<svg width="15" height="15" viewBox="0 0 15 15" fill="none" xmlns="http://www.w3.org/2000/svg">
<path d="M6.3706 12.2444C6.47872 12.3913 6.64497 12.4838 6.82685 12.4982C6.8431 12.4994 6.85935 12.5 6.87497 12.5C7.03997 12.5 7.19935 12.435 7.31685 12.3169L10.9106 8.72316C11.155 8.47878 11.155 8.08378 10.9106 7.83941C10.6662 7.59503 10.2712 7.59503 10.0268 7.83941L6.9481 10.9182L5.65997 9.16191C5.4556 8.88378 5.06435 8.82316 4.78623 9.02753C4.5081 9.23191 4.44748 9.62316 4.65185 9.90128L6.3706 12.2444Z" fill="#FF9643"/>
<path d="M13.125 1.875H12.5V0.625C12.5 0.28 12.22 0 11.875 0H11.25C10.905 0 10.625 0.28 10.625 0.625V1.875H4.375V0.625C4.375 0.28 4.095 0 3.75 0H3.125C2.78 0 2.5 0.28 2.5 0.625V1.875H1.875C0.84125 1.875 0 2.71625 0 3.75V13.125C0 14.1587 0.84125 15 1.875 15H13.125C14.1587 15 15 14.1587 15 13.125V3.75C15 2.71625 14.1587 1.875 13.125 1.875ZM13.75 13.125C13.75 13.4694 13.4694 13.75 13.125 13.75H1.875C1.53062 13.75 1.25 13.4694 1.25 13.125V6.275H13.75V13.125Z" fill="#FF9643"/>
</svg>
