<svg width="15" height="15" viewBox="0 0 15 15" fill="none" xmlns="http://www.w3.org/2000/svg">
<path d="M7.5 0C3.36433 0 0 3.36433 0 7.5C0 11.6357 3.36433 15 7.5 15C11.6357 15 15 11.6357 15 7.5C15 3.36433 11.6357 0 7.5 0ZM11.0669 11.3793C10.945 11.5012 10.785 11.5625 10.625 11.5625C10.465 11.5625 10.3049 11.5012 10.1832 11.3793L7.05814 8.25439C6.94061 8.13755 6.87504 7.97871 6.87504 7.81254V3.75C6.87504 3.40439 7.15496 3.12504 7.5 3.12504C7.84504 3.12504 8.12496 3.40439 8.12496 3.75V7.55379L11.0669 10.4956C11.3112 10.7401 11.3112 11.135 11.0669 11.3793Z" fill="#FF9643"/>
</svg>
