<svg width="20" height="20" viewBox="0 0 20 20" fill="none" xmlns="http://www.w3.org/2000/svg">
<path d="M16.6667 1.25H3.54171C2.73754 1.25 2.08337 1.90417 2.08337 2.70833V4.31333C2.08337 4.92583 2.32171 5.50167 2.75504 5.93417L7.61171 10.7875C7.80504 10.9808 7.91671 11.25 7.91671 11.5242V18.125C7.91671 18.3692 8.05837 18.5908 8.28087 18.6925C8.36421 18.7317 8.45337 18.75 8.54171 18.75C8.68837 18.75 8.83337 18.6983 8.94837 18.5992L11.2825 16.5983C11.7917 16.1633 12.0834 15.5283 12.0834 14.8583V11.5417C12.0834 11.2608 12.1992 10.9867 12.4017 10.7917L17.4242 5.94583C17.8692 5.51667 18.1242 4.915 18.1242 4.29667V2.70833C18.125 1.90417 17.4709 1.25 16.6667 1.25V1.25Z" fill="#1E2C96"/>
</svg>
