<svg width="17" height="18" viewBox="0 0 17 18" fill="none" xmlns="http://www.w3.org/2000/svg">
<path d="M14.6667 0.25H1.54171C0.737541 0.25 0.083374 0.904167 0.083374 1.70833V3.31333C0.083374 3.92583 0.321707 4.50167 0.755041 4.93417L5.61171 9.7875C5.80504 9.98083 5.91671 10.25 5.91671 10.5242V17.125C5.91671 17.3692 6.05837 17.5908 6.28087 17.6925C6.36421 17.7317 6.45337 17.75 6.54171 17.75C6.68837 17.75 6.83337 17.6983 6.94837 17.5992L9.28254 15.5983C9.79171 15.1633 10.0834 14.5283 10.0834 13.8583V10.5417C10.0834 10.2608 10.1992 9.98667 10.4017 9.79167L15.4242 4.94583C15.8692 4.51667 16.1242 3.915 16.1242 3.29667V1.70833C16.125 0.904167 15.4709 0.25 14.6667 0.25V0.25Z" fill="#1E2C96"/>
</svg>
