<svg width="15" height="15" viewBox="0 0 15 15" fill="none" xmlns="http://www.w3.org/2000/svg">
<path d="M10.817 4.68205C8.13954 3.05312 9.39509 0.753984 9.44899 0.658418C9.52716 0.522422 9.52689 0.355107 9.44832 0.219346C9.36977 0.083584 9.22481 0 9.06796 0C7.68975 0 6.61051 0.391582 5.86024 1.16394C4.57824 2.48358 4.63771 4.5375 4.66312 5.41456C4.66596 5.51174 4.66836 5.59567 4.66836 5.65805C4.66836 6.30926 4.77283 6.91043 4.86503 7.44088C4.92444 7.78271 4.97574 8.07791 4.98488 8.30994C4.99464 8.55844 4.94926 8.61533 4.94735 8.61765C4.94088 8.62535 4.88694 8.654 4.74122 8.654C4.57499 8.654 4.45247 8.59969 4.34387 8.47796C3.91977 8.00238 3.89044 6.70392 3.97153 5.99748C3.98604 5.87291 3.94663 5.74811 3.86322 5.65447C3.77984 5.56084 3.66043 5.50729 3.53507 5.50729C2.3941 5.50729 1.5415 7.37315 1.5415 9.04143C1.5415 9.82567 1.69927 10.5939 2.01037 11.3248C2.31113 12.0314 2.73998 12.6691 3.28514 13.2202C4.42036 14.3679 5.91723 15 7.49993 15C9.08905 15 10.5855 14.3769 11.7137 13.2454C12.839 12.1169 13.4588 10.6239 13.4588 9.04137C13.4588 7.0222 11.8789 5.32811 10.817 4.68205Z" fill="#FF9643"/>
</svg>
