<svg width="24" height="20" viewBox="0 0 24 20" fill="none" xmlns="http://www.w3.org/2000/svg">
<path d="M15.8706 11.6195C15.8706 13.7539 14.1344 15.4902 12 15.4902C9.86565 15.4902 8.13004 13.7539 8.13004 11.6195C8.13004 9.48518 9.86565 7.7489 12 7.7489C14.1344 7.7489 15.8706 9.48584 15.8706 11.6195ZM24 6.12343V17.117C24 18.5825 22.8117 19.7708 21.3462 19.7708H2.65384C1.18826 19.7708 0 18.5825 0 17.117V6.12343C0 4.65784 1.18826 3.46959 2.65384 3.46959H5.91806V2.55136C5.91806 1.26889 6.95704 0.229248 8.24017 0.229248H15.7598C17.043 0.229248 18.0819 1.26889 18.0819 2.55136V3.46892H21.3462C22.8117 3.46959 24 4.65784 24 6.12343ZM17.861 11.6195C17.861 8.38782 15.2317 5.75852 12 5.75852C8.76895 5.75852 6.13966 8.38782 6.13966 11.6195C6.13966 14.8512 8.76895 17.4805 12 17.4805C15.2317 17.4805 17.861 14.8512 17.861 11.6195Z" fill="#FF9643"/>
</svg>
