<svg width="20" height="17" viewBox="0 0 20 17" fill="none" xmlns="http://www.w3.org/2000/svg">
<path d="M9.72681 5.4909L12.4183 8.21074L12.4311 8.06827C12.4311 6.63926 11.2819 5.47795 9.86779 5.47795L9.72681 5.4909Z" fill="#7C8187"/>
<path d="M9.86756 3.75113C12.2258 3.75113 14.1398 5.68525 14.1398 8.06835C14.1398 8.62526 14.0287 9.15628 13.8365 9.64411L16.3357 12.1697C17.6259 11.0817 18.6427 9.67434 19.2708 8.06835C17.7883 4.27786 14.1441 1.59254 9.8676 1.59254C8.67136 1.59254 7.52643 1.80839 6.46265 2.19694L8.30825 4.05764C8.79096 3.8677 9.31644 3.75113 9.86756 3.75113Z" fill="#7C8187"/>
<path d="M1.32318 1.3982L3.27133 3.36685L3.66011 3.75973C2.25027 4.87356 1.13522 6.35438 0.46875 8.06828C1.94696 11.8588 5.59544 14.5441 9.86769 14.5441C11.1921 14.5441 12.4567 14.285 13.6145 13.8145L13.9776 14.1814L16.4683 16.7027L17.5578 15.6061L2.41261 0.297318L1.32318 1.3982ZM6.04831 6.16872L7.36843 7.50274C7.32998 7.68839 7.30435 7.874 7.30435 8.06828C7.30435 9.49729 8.45356 10.6586 9.86769 10.6586C10.0599 10.6586 10.2437 10.6327 10.4231 10.5938L11.7432 11.9279C11.175 12.2128 10.5427 12.3855 9.86769 12.3855C7.50941 12.3855 5.59544 10.4514 5.59544 8.06828C5.59544 7.38617 5.76634 6.74721 6.04831 6.16872Z" fill="#7C8187"/>
</svg>
