<svg width="15" height="15" viewBox="0 0 15 15" fill="none" xmlns="http://www.w3.org/2000/svg">
<g clip-path="url(#clip0)">
<path d="M9.15209 5.84661C8.97441 5.66787 8.77739 5.50943 8.5647 5.37419C8.00137 5.01347 7.34647 4.82178 6.67753 4.82178C5.74908 4.82006 4.85835 5.18895 4.20298 5.84661L1.02355 9.02853C0.36929 9.68405 0.00156312 10.5722 0.000977287 11.4983C-0.000252961 13.431 1.56544 14.9987 3.4981 14.9999C4.42512 15.0032 5.31503 14.636 5.97017 13.9801L8.5947 11.3556C8.64238 11.3083 8.66901 11.2438 8.66863 11.1767C8.66784 11.0386 8.55527 10.9274 8.41722 10.9282H8.31725C7.76891 10.9301 7.22546 10.8248 6.71755 10.6182C6.62396 10.5797 6.5164 10.6015 6.4451 10.6732L4.55793 12.5629C3.97192 13.1489 3.02182 13.1489 2.43581 12.5629C1.84981 11.9769 1.84981 11.0268 2.43581 10.4408L5.62775 7.25135C6.21329 6.66654 7.16184 6.66654 7.74738 7.25135C8.142 7.62274 8.75753 7.62274 9.15212 7.25135C9.32189 7.08143 9.42482 6.85606 9.44207 6.61645C9.46032 6.33013 9.35473 6.04972 9.15209 5.84661Z" fill="#FF9643"/>
<path d="M13.9741 1.02524C12.6074 -0.341421 10.3917 -0.341421 9.02499 1.02524L6.40296 3.64476C6.33096 3.71711 6.31019 3.82593 6.35046 3.91972C6.39027 4.01377 6.4833 4.07414 6.58541 4.07218H6.67789C7.22558 4.07119 7.76815 4.17731 8.2751 4.38463C8.36869 4.42315 8.47624 4.40142 8.54754 4.32965L10.4297 2.44998C11.0157 1.86397 11.9658 1.86397 12.5518 2.44998C13.1378 3.03599 13.1378 3.98609 12.5518 4.5721L10.2072 6.91417L10.1872 6.93667L9.36738 7.75153C8.78184 8.33634 7.83329 8.33634 7.24775 7.75153C6.85314 7.38014 6.2376 7.38014 5.84302 7.75153C5.67216 7.92274 5.56914 8.15007 5.55306 8.39141C5.53478 8.67773 5.64038 8.95814 5.84302 9.16128C6.13233 9.45182 6.47082 9.68876 6.84283 9.86114C6.89532 9.88613 6.94781 9.90613 7.0003 9.92863C7.05279 9.95113 7.10777 9.96861 7.16026 9.98862C7.21275 10.0086 7.26773 10.0261 7.32022 10.0411L7.46771 10.0811C7.56768 10.1061 7.66768 10.1261 7.77014 10.1436C7.89358 10.1619 8.01789 10.1736 8.14258 10.1786H8.31754H8.33254L8.48251 10.1611C8.53749 10.1586 8.59499 10.1461 8.65999 10.1461H8.74497L8.91743 10.1211L8.99743 10.1061L9.1424 10.0761H9.1699C9.78388 9.92189 10.3445 9.60399 10.7921 9.15627L13.974 5.97435C15.3408 4.60769 15.3408 2.3919 13.9741 1.02524Z" fill="#FF9643"/>
</g>
<defs>
<clipPath id="clip0">
<rect width="15" height="15" fill="white"/>
</clipPath>
</defs>
</svg>
