<svg width="311" height="190" viewBox="0 0 311 190" fill="none" xmlns="http://www.w3.org/2000/svg">
<path d="M9.57485 91.099C4.8158 91.099 0.957825 94.9559 0.957825 99.7154C0.957825 104.475 4.8158 108.333 9.57485 108.333V91.099ZM258.511 109.29L252.418 115.383L254.942 117.907H258.511V109.29ZM301.596 117.907C306.356 117.907 310.213 114.05 310.213 109.29C310.213 104.531 306.356 100.673 301.596 100.673V117.907ZM9.57485 108.333H67.0217V91.099H9.57485V108.333ZM67.0217 108.333C64.9192 108.333 63.5818 107.474 63.328 107.308C62.958 107.067 62.8652 106.93 63.0678 107.141C63.4639 107.551 64.1565 108.406 65.1519 109.847C67.1071 112.68 69.4295 116.585 71.9132 120.826C74.3028 124.906 76.8639 129.335 79.0583 132.699C80.1413 134.359 81.3286 136.063 82.5164 137.432C83.0977 138.103 83.9061 138.96 84.9047 139.716C85.655 140.285 87.8339 141.843 90.9577 141.843V124.61C93.6035 124.61 95.213 125.905 95.3161 125.983C95.6674 126.25 95.7486 126.386 95.5354 126.14C95.1344 125.676 94.4589 124.763 93.4925 123.282C91.5877 120.362 89.3018 116.413 86.7843 112.115C84.3612 107.98 81.7168 103.507 79.3337 100.055C78.1597 98.3549 76.8402 96.5934 75.4673 95.1709C74.7854 94.464 73.8688 93.6077 72.7466 92.8754C71.7407 92.2192 69.7226 91.099 67.0217 91.099V108.333ZM90.9577 141.843C93.5563 141.843 95.4358 140.754 96.3183 140.152C97.2926 139.487 98.0187 138.747 98.4914 138.221C99.443 137.157 100.264 135.925 100.925 134.846C102.292 132.614 103.794 129.664 105.32 126.459C108.402 119.987 112.067 111.431 115.633 103.11C119.248 94.6754 122.763 86.4767 125.666 80.382C127.132 77.3037 128.322 75.0179 129.199 73.584C129.66 72.8316 129.849 72.6237 129.776 72.705C129.744 72.7416 129.424 73.1043 128.822 73.515C128.31 73.8636 126.767 74.8221 124.468 74.8221V57.5876C121.87 57.5876 119.99 58.6772 119.108 59.2801C118.134 59.9442 117.407 60.6834 116.935 61.2103C115.984 62.2737 115.162 63.5057 114.502 64.5849C113.135 66.8165 111.632 69.7673 110.106 72.9723C107.025 79.4436 103.358 88.0006 99.7934 96.3216C96.1777 104.755 92.6624 112.954 89.7606 119.05C88.2944 122.127 87.1047 124.413 86.2268 125.847C85.766 126.6 85.5774 126.807 85.6503 126.726C85.6825 126.69 86.0022 126.327 86.6045 125.916C87.1156 125.567 88.6587 124.61 90.9577 124.61V141.843ZM124.468 74.8221C122.37 74.8221 120.845 74.0445 120.066 73.5464C119.275 73.0405 118.782 72.5232 118.569 72.2864C118.155 71.8242 118.014 71.5253 118.129 71.7272C118.316 72.0592 118.703 72.8657 119.288 74.3337C120.424 77.1814 121.883 81.4315 123.59 86.7799C126.99 97.4226 131.145 111.664 135.345 126.064C139.523 140.388 143.746 154.87 147.228 165.769C148.96 171.192 150.568 175.917 151.938 179.354C152.606 181.027 153.332 182.689 154.094 184.041C154.454 184.68 155.028 185.623 155.833 186.521C156.204 186.935 158.61 189.715 162.766 189.715V172.482C164.864 172.482 166.39 173.259 167.168 173.757C167.959 174.263 168.454 174.781 168.665 175.017C169.079 175.48 169.22 175.778 169.106 175.576C168.919 175.245 168.532 174.437 167.946 172.97C166.81 170.123 165.353 165.872 163.644 160.524C160.245 149.881 156.09 135.639 151.889 121.239C147.713 106.915 143.489 92.4342 140.007 81.5346C138.275 76.1118 136.666 71.3855 135.296 67.9498C134.629 66.2765 133.903 64.6146 133.141 63.2628C132.781 62.6241 132.206 61.6804 131.403 60.783C131.03 60.3688 128.625 57.5876 124.468 57.5876V74.8221ZM162.766 189.715C166.144 189.715 168.29 187.863 169.055 187.11C169.937 186.238 170.482 185.353 170.756 184.871C171.336 183.856 171.743 182.784 172.017 181.996C172.604 180.31 173.189 178.115 173.767 175.689C174.943 170.753 176.32 163.843 177.823 155.74C180.832 139.489 184.435 117.86 188.022 96.3452C191.616 74.7741 195.193 53.3191 198.168 37.2554C199.658 29.2026 200.973 22.6486 202.042 18.1594C202.586 15.8729 203.01 14.365 203.303 13.5269C203.467 13.0522 203.466 13.1561 203.259 13.5192C203.17 13.6755 202.804 14.3136 202.088 15.0187C201.493 15.6066 199.505 17.3752 196.277 17.3752V0.141174C192.899 0.141174 190.753 1.99386 189.988 2.74742C189.106 3.61823 188.562 4.50356 188.287 4.98607C187.708 6.00123 187.3 7.07293 187.026 7.86047C186.439 9.54688 185.854 11.7416 185.276 14.1676C184.101 19.1031 182.723 26.0132 181.221 34.1173C178.212 50.3675 174.608 71.9972 171.022 93.5115C167.427 115.083 163.85 136.538 160.875 152.601C159.385 160.654 158.071 167.208 157.002 171.697C156.458 173.984 156.033 175.492 155.74 176.33C155.576 176.804 155.577 176.701 155.784 176.337C155.873 176.181 156.239 175.543 156.955 174.837C157.55 174.25 159.539 172.482 162.766 172.482V189.715ZM196.277 17.3752C193.12 17.3752 191.119 15.6874 190.368 14.9255C189.58 14.1263 189.19 13.3866 189.08 13.1744C188.837 12.7026 188.816 12.4959 188.934 12.9201C189.137 13.641 189.429 15.0094 189.786 17.1629C190.485 21.3757 191.269 27.543 192.127 35.1557C193.843 50.364 195.774 70.5738 197.878 91.0239C199.972 111.36 202.234 131.896 204.587 147.387C205.757 155.085 206.992 161.826 208.306 166.751C208.946 169.149 209.72 171.571 210.715 173.556C211.199 174.524 211.964 175.855 213.134 177.06C214.276 178.236 216.664 180.141 220.213 180.141V162.907C223.164 162.907 224.954 164.494 225.497 165.054C226.07 165.643 226.236 166.061 226.124 165.837C225.924 165.436 225.506 164.363 224.958 162.309C223.897 158.333 222.775 152.358 221.626 144.797C219.343 129.769 217.117 109.614 215.022 89.2588C212.937 69.0167 210.979 48.5351 209.253 33.225C208.39 25.5784 207.566 19.0296 206.788 14.3412C206.407 12.0442 205.993 9.91553 205.524 8.25219C205.308 7.48422 204.959 6.36359 204.398 5.2759C204.13 4.75565 203.583 3.78243 202.642 2.82684C201.736 1.90841 199.583 0.141174 196.277 0.141174V17.3752ZM220.213 180.141C223.285 180.141 225.668 178.837 227.096 177.842C228.603 176.791 229.882 175.499 230.923 174.297C233.013 171.886 235.063 168.762 236.984 165.507C240.864 158.935 245.054 150.383 248.921 142.35C252.885 134.117 256.486 126.485 259.415 121.128C260.924 118.366 261.963 116.764 262.537 116.066C262.926 115.594 262.524 116.25 261.356 116.854C260.674 117.207 259.268 117.78 257.379 117.642C255.29 117.489 253.574 116.539 252.418 115.383L264.604 103.197C263.15 101.743 261.095 100.633 258.635 100.453C256.374 100.288 254.562 100.965 253.438 101.546C251.389 102.606 249.974 104.212 249.23 105.114C247.543 107.164 245.85 110.012 244.293 112.862C241.087 118.725 237.209 126.95 233.394 134.874C229.482 142.998 225.593 150.901 222.143 156.746C220.399 159.701 218.97 161.774 217.9 163.011C217.36 163.632 217.139 163.774 217.24 163.704C217.264 163.687 218.338 162.907 220.213 162.907V180.141ZM258.511 117.907C258.52 117.907 258.53 117.907 258.539 117.907C258.549 117.907 258.559 117.907 258.568 117.907C258.578 117.907 258.587 117.907 258.597 117.907C258.608 117.907 258.617 117.907 258.628 117.907C258.637 117.907 258.648 117.907 258.658 117.907C258.668 117.907 258.678 117.907 258.689 117.907C258.699 117.907 258.71 117.907 258.72 117.907C258.732 117.907 258.742 117.907 258.753 117.907C258.764 117.907 258.774 117.907 258.786 117.907C258.796 117.907 258.808 117.907 258.818 117.907C258.83 117.907 258.842 117.907 258.852 117.907C258.864 117.907 258.875 117.907 258.886 117.907C258.898 117.907 258.909 117.907 258.92 117.907C258.933 117.907 258.945 117.907 258.956 117.907C258.968 117.907 258.98 117.907 258.993 117.907C259.004 117.907 259.017 117.907 259.029 117.907C259.04 117.907 259.053 117.907 259.065 117.907C259.078 117.907 259.09 117.907 259.103 117.907C259.115 117.907 259.127 117.907 259.141 117.907C259.154 117.907 259.166 117.907 259.179 117.907C259.192 117.907 259.205 117.907 259.217 117.907C259.231 117.907 259.245 117.907 259.257 117.907C259.27 117.907 259.284 117.907 259.297 117.907C259.31 117.907 259.324 117.907 259.337 117.907C259.35 117.907 259.365 117.907 259.378 117.907C259.392 117.907 259.406 117.907 259.419 117.907C259.434 117.907 259.447 117.907 259.462 117.907C259.476 117.907 259.489 117.907 259.504 117.907C259.518 117.907 259.533 117.907 259.547 117.907C259.562 117.907 259.576 117.907 259.59 117.907C259.605 117.907 259.619 117.907 259.634 117.907C259.649 117.907 259.664 117.907 259.678 117.907C259.694 117.907 259.709 117.907 259.723 117.907C259.738 117.907 259.754 117.907 259.769 117.907C259.785 117.907 259.799 117.907 259.814 117.907C259.83 117.907 259.846 117.907 259.861 117.907C259.876 117.907 259.892 117.907 259.908 117.907C259.924 117.907 259.938 117.907 259.955 117.907C259.972 117.907 259.986 117.907 260.003 117.907C260.019 117.907 260.034 117.907 260.05 117.907C260.067 117.907 260.083 117.907 260.099 117.907C260.116 117.907 260.132 117.907 260.148 117.907C260.165 117.907 260.182 117.907 260.198 117.907C260.214 117.907 260.232 117.907 260.248 117.907C260.265 117.907 260.282 117.907 260.298 117.907C260.316 117.907 260.333 117.907 260.349 117.907C260.367 117.907 260.384 117.907 260.401 117.907C260.418 117.907 260.436 117.907 260.453 117.907C260.47 117.907 260.488 117.907 260.505 117.907C260.523 117.907 260.54 117.907 260.558 117.907C260.576 117.907 260.594 117.907 260.612 117.907C260.629 117.907 260.647 117.907 260.665 117.907C260.684 117.907 260.702 117.907 260.719 117.907C260.737 117.907 260.755 117.907 260.775 117.907C260.793 117.907 260.81 117.907 260.829 117.907C260.847 117.907 260.866 117.907 260.885 117.907C260.903 117.907 260.922 117.907 260.94 117.907C260.959 117.907 260.978 117.907 260.997 117.907C261.016 117.907 261.035 117.907 261.054 117.907C261.073 117.907 261.092 117.907 261.11 117.907C261.129 117.907 261.149 117.907 261.169 117.907C261.188 117.907 261.207 117.907 261.226 117.907C261.246 117.907 261.266 117.907 261.285 117.907C261.305 117.907 261.324 117.907 261.344 117.907C261.364 117.907 261.384 117.907 261.404 117.907C261.424 117.907 261.444 117.907 261.463 117.907C261.483 117.907 261.503 117.907 261.523 117.907C261.543 117.907 261.564 117.907 261.585 117.907C261.605 117.907 261.625 117.907 261.645 117.907C261.666 117.907 261.686 117.907 261.707 117.907C261.727 117.907 261.748 117.907 261.768 117.907C261.789 117.907 261.81 117.907 261.83 117.907C261.852 117.907 261.873 117.907 261.894 117.907C261.915 117.907 261.936 117.907 261.957 117.907C261.978 117.907 261.999 117.907 262.02 117.907C262.042 117.907 262.063 117.907 262.084 117.907C262.105 117.907 262.127 117.907 262.148 117.907C262.17 117.907 262.192 117.907 262.214 117.907C262.235 117.907 262.257 117.907 262.278 117.907C262.299 117.907 262.322 117.907 262.344 117.907C262.366 117.907 262.388 117.907 262.409 117.907C262.432 117.907 262.454 117.907 262.476 117.907C262.498 117.907 262.52 117.907 262.543 117.907C262.565 117.907 262.588 117.907 262.61 117.907C262.632 117.907 262.655 117.907 262.677 117.907C262.7 117.907 262.723 117.907 262.745 117.907C262.768 117.907 262.79 117.907 262.814 117.907C262.836 117.907 262.859 117.907 262.882 117.907C262.905 117.907 262.928 117.907 262.95 117.907C262.974 117.907 262.997 117.907 263.02 117.907C263.044 117.907 263.067 117.907 263.09 117.907C263.114 117.907 263.136 117.907 263.16 117.907C263.184 117.907 263.207 117.907 263.23 117.907C263.254 117.907 263.278 117.907 263.301 117.907C263.325 117.907 263.349 117.907 263.373 117.907C263.397 117.907 263.42 117.907 263.445 117.907C263.468 117.907 263.493 117.907 263.517 117.907C263.54 117.907 263.565 117.907 263.588 117.907C263.613 117.907 263.637 117.907 263.662 117.907C263.686 117.907 263.71 117.907 263.734 117.907C263.759 117.907 263.783 117.907 263.807 117.907C263.833 117.907 263.856 117.907 263.882 117.907C263.906 117.907 263.932 117.907 263.955 117.907C263.98 117.907 264.005 117.907 264.029 117.907C264.055 117.907 264.079 117.907 264.105 117.907C264.129 117.907 264.155 117.907 264.18 117.907C264.205 117.907 264.23 117.907 264.256 117.907C264.28 117.907 264.306 117.907 264.332 117.907C264.356 117.907 264.382 117.907 264.407 117.907C264.433 117.907 264.458 117.907 264.484 117.907C264.509 117.907 264.535 117.907 264.56 117.907C264.586 117.907 264.612 117.907 264.638 117.907C264.664 117.907 264.689 117.907 264.715 117.907C264.742 117.907 264.767 117.907 264.793 117.907C264.818 117.907 264.846 117.907 264.872 117.907C264.897 117.907 264.924 117.907 264.95 117.907C264.976 117.907 265.003 117.907 265.028 117.907C265.055 117.907 265.081 117.907 265.108 117.907C265.134 117.907 265.16 117.907 265.187 117.907C265.214 117.907 265.24 117.907 265.267 117.907C265.294 117.907 265.32 117.907 265.347 117.907C265.374 117.907 265.4 117.907 265.427 117.907C265.455 117.907 265.482 117.907 265.508 117.907C265.535 117.907 265.562 117.907 265.589 117.907C265.616 117.907 265.643 117.907 265.67 117.907C265.697 117.907 265.725 117.907 265.753 117.907C265.779 117.907 265.807 117.907 265.834 117.907C265.862 117.907 265.889 117.907 265.916 117.907C265.944 117.907 265.972 117.907 265.999 117.907C266.026 117.907 266.054 117.907 266.082 117.907C266.109 117.907 266.137 117.907 266.165 117.907C266.193 117.907 266.22 117.907 266.248 117.907C266.276 117.907 266.304 117.907 266.333 117.907C266.36 117.907 266.388 117.907 266.416 117.907C266.445 117.907 266.473 117.907 266.5 117.907C266.528 117.907 266.556 117.907 266.585 117.907C266.613 117.907 266.642 117.907 266.669 117.907C266.698 117.907 266.727 117.907 266.755 117.907C266.784 117.907 266.812 117.907 266.84 117.907C266.868 117.907 266.897 117.907 266.926 117.907C266.955 117.907 266.984 117.907 267.013 117.907C267.04 117.907 267.069 117.907 267.098 117.907C267.127 117.907 267.156 117.907 267.186 117.907C267.214 117.907 267.243 117.907 267.272 117.907C267.302 117.907 267.33 117.907 267.359 117.907C267.388 117.907 267.417 117.907 267.446 117.907C267.476 117.907 267.504 117.907 267.534 117.907C267.564 117.907 267.593 117.907 267.622 117.907C267.65 117.907 267.68 117.907 267.71 117.907C267.74 117.907 267.768 117.907 267.798 117.907C267.828 117.907 267.857 117.907 267.887 117.907C267.917 117.907 267.947 117.907 267.976 117.907C268.006 117.907 268.036 117.907 268.065 117.907C268.095 117.907 268.125 117.907 268.155 117.907C268.185 117.907 268.215 117.907 268.245 117.907C268.274 117.907 268.305 117.907 268.335 117.907C268.364 117.907 268.395 117.907 268.425 117.907C268.455 117.907 268.485 117.907 268.515 117.907C268.545 117.907 268.576 117.907 268.605 117.907C268.636 117.907 268.667 117.907 268.696 117.907C268.727 117.907 268.757 117.907 268.788 117.907C268.818 117.907 268.848 117.907 268.879 117.907C268.91 117.907 268.94 117.907 268.972 117.907C269.002 117.907 269.033 117.907 269.063 117.907C269.094 117.907 269.124 117.907 269.155 117.907C269.186 117.907 269.216 117.907 269.247 117.907C269.278 117.907 269.309 117.907 269.339 117.907C269.37 117.907 269.402 117.907 269.433 117.907C269.463 117.907 269.495 117.907 269.526 117.907C269.557 117.907 269.588 117.907 269.619 117.907C269.65 117.907 269.682 117.907 269.713 117.907C269.744 117.907 269.775 117.907 269.806 117.907C269.837 117.907 269.868 117.907 269.9 117.907C269.932 117.907 269.963 117.907 269.994 117.907C270.025 117.907 270.057 117.907 270.088 117.907C270.12 117.907 270.152 117.907 270.183 117.907C270.215 117.907 270.246 117.907 270.278 117.907C270.309 117.907 270.342 117.907 270.373 117.907C270.405 117.907 270.436 117.907 270.467 117.907C270.499 117.907 270.532 117.907 270.564 117.907C270.595 117.907 270.627 117.907 270.659 117.907C270.69 117.907 270.723 117.907 270.755 117.907C270.786 117.907 270.818 117.907 270.85 117.907C270.883 117.907 270.915 117.907 270.946 117.907C270.979 117.907 271.01 117.907 271.043 117.907C271.076 117.907 271.107 117.907 271.139 117.907C271.172 117.907 271.204 117.907 271.236 117.907C271.268 117.907 271.3 117.907 271.333 117.907C271.366 117.907 271.398 117.907 271.43 117.907C271.463 117.907 271.495 117.907 271.527 117.907C271.56 117.907 271.593 117.907 271.625 117.907C271.658 117.907 271.69 117.907 271.723 117.907C271.755 117.907 271.788 117.907 271.82 117.907C271.853 117.907 271.886 117.907 271.918 117.907C271.952 117.907 271.984 117.907 272.017 117.907C272.049 117.907 272.082 117.907 272.115 117.907C272.148 117.907 272.18 117.907 272.214 117.907C272.247 117.907 272.279 117.907 272.313 117.907C272.345 117.907 272.378 117.907 272.412 117.907C272.444 117.907 272.477 117.907 272.51 117.907C272.544 117.907 272.576 117.907 272.609 117.907C272.642 117.907 272.676 117.907 272.709 117.907C272.742 117.907 272.775 117.907 272.808 117.907C272.841 117.907 272.875 117.907 272.908 117.907C272.94 117.907 272.974 117.907 273.008 117.907C273.042 117.907 273.074 117.907 273.107 117.907C273.14 117.907 273.174 117.907 273.208 117.907C273.242 117.907 273.275 117.907 273.308 117.907C273.34 117.907 273.375 117.907 273.408 117.907C273.442 117.907 273.475 117.907 273.508 117.907C273.542 117.907 273.576 117.907 273.61 117.907C273.644 117.907 273.677 117.907 273.71 117.907C273.744 117.907 273.777 117.907 273.811 117.907C273.846 117.907 273.879 117.907 273.913 117.907C273.946 117.907 273.98 117.907 274.014 117.907C274.047 117.907 274.081 117.907 274.116 117.907C274.149 117.907 274.183 117.907 274.217 117.907C274.25 117.907 274.284 117.907 274.318 117.907C274.352 117.907 274.386 117.907 274.42 117.907C274.455 117.907 274.488 117.907 274.523 117.907C274.556 117.907 274.59 117.907 274.624 117.907C274.658 117.907 274.692 117.907 274.726 117.907C274.76 117.907 274.794 117.907 274.829 117.907C274.863 117.907 274.897 117.907 274.932 117.907C274.965 117.907 274.999 117.907 275.034 117.907C275.067 117.907 275.102 117.907 275.136 117.907C275.17 117.907 275.204 117.907 275.238 117.907C275.273 117.907 275.307 117.907 275.342 117.907C275.376 117.907 275.41 117.907 275.445 117.907C275.479 117.907 275.514 117.907 275.548 117.907C275.583 117.907 275.617 117.907 275.651 117.907C275.685 117.907 275.719 117.907 275.754 117.907C275.788 117.907 275.823 117.907 275.857 117.907C275.892 117.907 275.926 117.907 275.96 117.907C275.995 117.907 276.03 117.907 276.065 117.907C276.099 117.907 276.134 117.907 276.168 117.907C276.203 117.907 276.237 117.907 276.272 117.907C276.306 117.907 276.342 117.907 276.376 117.907C276.41 117.907 276.445 117.907 276.479 117.907C276.514 117.907 276.549 117.907 276.584 117.907C276.618 117.907 276.653 117.907 276.688 117.907C276.723 117.907 276.757 117.907 276.792 117.907C276.827 117.907 276.862 117.907 276.896 117.907C276.932 117.907 276.966 117.907 277 117.907C277.036 117.907 277.07 117.907 277.105 117.907C277.14 117.907 277.175 117.907 277.21 117.907C277.245 117.907 277.279 117.907 277.314 117.907C277.349 117.907 277.384 117.907 277.418 117.907C277.454 117.907 277.488 117.907 277.523 117.907C277.558 117.907 277.593 117.907 277.628 117.907C277.663 117.907 277.698 117.907 277.733 117.907C277.768 117.907 277.803 117.907 277.838 117.907C277.874 117.907 277.908 117.907 277.944 117.907C277.978 117.907 278.013 117.907 278.048 117.907C278.083 117.907 278.118 117.907 278.153 117.907C278.188 117.907 278.223 117.907 278.258 117.907C278.294 117.907 278.328 117.907 278.364 117.907C278.399 117.907 278.434 117.907 278.469 117.907C278.504 117.907 278.539 117.907 278.574 117.907C278.609 117.907 278.644 117.907 278.679 117.907C278.715 117.907 278.749 117.907 278.785 117.907C278.82 117.907 278.855 117.907 278.89 117.907C278.926 117.907 278.961 117.907 278.996 117.907C279.031 117.907 279.066 117.907 279.102 117.907C279.136 117.907 279.172 117.907 279.207 117.907C279.243 117.907 279.277 117.907 279.313 117.907C279.348 117.907 279.384 117.907 279.419 117.907C279.453 117.907 279.488 117.907 279.524 117.907C279.559 117.907 279.595 117.907 279.629 117.907C279.665 117.907 279.7 117.907 279.736 117.907C279.771 117.907 279.806 117.907 279.841 117.907C279.876 117.907 279.912 117.907 279.947 117.907C279.983 117.907 280.017 117.907 280.053 117.907C280.088 117.907 280.124 117.907 280.159 117.907C280.194 117.907 280.229 117.907 280.264 117.907C280.299 117.907 280.335 117.907 280.37 117.907C280.406 117.907 280.442 117.907 280.477 117.907C280.513 117.907 280.547 117.907 280.582 117.907C280.617 117.907 280.653 117.907 280.688 117.907C280.724 117.907 280.759 117.907 280.795 117.907C280.829 117.907 280.865 117.907 280.9 117.907C280.935 117.907 280.97 117.907 281.006 117.907C281.042 117.907 281.077 117.907 281.113 117.907C281.147 117.907 281.183 117.907 281.218 117.907C281.253 117.907 281.288 117.907 281.324 117.907C281.359 117.907 281.395 117.907 281.43 117.907C281.465 117.907 281.5 117.907 281.536 117.907C281.572 117.907 281.606 117.907 281.642 117.907C281.677 117.907 281.713 117.907 281.748 117.907C281.783 117.907 281.818 117.907 281.854 117.907C281.889 117.907 281.925 117.907 281.96 117.907C281.995 117.907 282.03 117.907 282.066 117.907C282.1 117.907 282.136 117.907 282.172 117.907C282.207 117.907 282.243 117.907 282.278 117.907C282.313 117.907 282.347 117.907 282.383 117.907C282.418 117.907 282.454 117.907 282.489 117.907C282.525 117.907 282.56 117.907 282.595 117.907C282.63 117.907 282.666 117.907 282.7 117.907C282.736 117.907 282.772 117.907 282.806 117.907C282.842 117.907 282.877 117.907 282.913 117.907C282.948 117.907 282.983 117.907 283.018 117.907C283.054 117.907 283.088 117.907 283.124 117.907C283.158 117.907 283.194 117.907 283.229 117.907C283.265 117.907 283.3 117.907 283.335 117.907C283.37 117.907 283.406 117.907 283.441 117.907C283.476 117.907 283.51 117.907 283.546 117.907C283.582 117.907 283.616 117.907 283.652 117.907C283.687 117.907 283.722 117.907 283.757 117.907C283.793 117.907 283.828 117.907 283.863 117.907C283.898 117.907 283.933 117.907 283.967 117.907C284.003 117.907 284.038 117.907 284.073 117.907C284.108 117.907 284.144 117.907 284.178 117.907C284.214 117.907 284.248 117.907 284.284 117.907C284.319 117.907 284.354 117.907 284.389 117.907C284.424 117.907 284.459 117.907 284.494 117.907C284.528 117.907 284.564 117.907 284.598 117.907C284.634 117.907 284.668 117.907 284.704 117.907C284.739 117.907 284.774 117.907 284.809 117.907C284.844 117.907 284.879 117.907 284.914 117.907C284.949 117.907 284.984 117.907 285.019 117.907C285.054 117.907 285.088 117.907 285.123 117.907C285.158 117.907 285.193 117.907 285.227 117.907C285.263 117.907 285.297 117.907 285.332 117.907C285.367 117.907 285.402 117.907 285.437 117.907C285.472 117.907 285.506 117.907 285.542 117.907C285.576 117.907 285.61 117.907 285.646 117.907C285.68 117.907 285.715 117.907 285.75 117.907C285.785 117.907 285.819 117.907 285.854 117.907C285.889 117.907 285.924 117.907 285.958 117.907C285.993 117.907 286.027 117.907 286.063 117.907C286.097 117.907 286.132 117.907 286.166 117.907C286.2 117.907 286.236 117.907 286.27 117.907C286.305 117.907 286.339 117.907 286.374 117.907C286.408 117.907 286.443 117.907 286.477 117.907C286.512 117.907 286.546 117.907 286.58 117.907C286.615 117.907 286.65 117.907 286.685 117.907C286.719 117.907 286.753 117.907 286.787 117.907C286.822 117.907 286.856 117.907 286.89 117.907C286.925 117.907 286.959 117.907 286.994 117.907C287.028 117.907 287.063 117.907 287.097 117.907C287.132 117.907 287.166 117.907 287.2 117.907C287.235 117.907 287.269 117.907 287.304 117.907C287.337 117.907 287.372 117.907 287.406 117.907C287.44 117.907 287.474 117.907 287.508 117.907C287.543 117.907 287.576 117.907 287.61 117.907C287.645 117.907 287.678 117.907 287.713 117.907C287.747 117.907 287.781 117.907 287.816 117.907C287.849 117.907 287.884 117.907 287.918 117.907C287.952 117.907 287.986 117.907 288.019 117.907C288.054 117.907 288.087 117.907 288.121 117.907C288.156 117.907 288.189 117.907 288.224 117.907C288.257 117.907 288.292 117.907 288.325 117.907C288.358 117.907 288.393 117.907 288.426 117.907C288.46 117.907 288.495 117.907 288.528 117.907C288.562 117.907 288.595 117.907 288.629 117.907C288.663 117.907 288.696 117.907 288.73 117.907C288.764 117.907 288.797 117.907 288.832 117.907C288.865 117.907 288.898 117.907 288.932 117.907C288.966 117.907 288.999 117.907 289.033 117.907C289.066 117.907 289.099 117.907 289.133 117.907C289.166 117.907 289.2 117.907 289.234 117.907C289.267 117.907 289.3 117.907 289.334 117.907C289.367 117.907 289.4 117.907 289.434 117.907C289.467 117.907 289.5 117.907 289.534 117.907C289.567 117.907 289.6 117.907 289.634 117.907C289.667 117.907 289.7 117.907 289.734 117.907C289.767 117.907 289.799 117.907 289.833 117.907C289.866 117.907 289.899 117.907 289.933 117.907C289.965 117.907 289.998 117.907 290.032 117.907C290.065 117.907 290.097 117.907 290.13 117.907C290.163 117.907 290.196 117.907 290.229 117.907C290.262 117.907 290.295 117.907 290.328 117.907C290.36 117.907 290.393 117.907 290.427 117.907C290.459 117.907 290.492 117.907 290.524 117.907C290.558 117.907 290.59 117.907 290.623 117.907C290.655 117.907 290.688 117.907 290.72 117.907C290.753 117.907 290.786 117.907 290.818 117.907C290.85 117.907 290.884 117.907 290.916 117.907C290.948 117.907 290.98 117.907 291.014 117.907C291.046 117.907 291.078 117.907 291.111 117.907C291.144 117.907 291.175 117.907 291.208 117.907C291.24 117.907 291.273 117.907 291.305 117.907C291.337 117.907 291.369 117.907 291.402 117.907C291.434 117.907 291.466 117.907 291.498 117.907C291.53 117.907 291.562 117.907 291.595 117.907C291.626 117.907 291.659 117.907 291.69 117.907C291.723 117.907 291.755 117.907 291.786 117.907C291.818 117.907 291.85 117.907 291.882 117.907C291.915 117.907 291.946 117.907 291.977 117.907C292.009 117.907 292.042 117.907 292.074 117.907C292.105 117.907 292.137 117.907 292.168 117.907C292.199 117.907 292.232 117.907 292.263 117.907C292.295 117.907 292.326 117.907 292.358 117.907C292.389 117.907 292.42 117.907 292.453 117.907C292.484 117.907 292.516 117.907 292.546 117.907C292.578 117.907 292.609 117.907 292.641 117.907C292.672 117.907 292.704 117.907 292.735 117.907C292.766 117.907 292.797 117.907 292.828 117.907C292.859 117.907 292.891 117.907 292.922 117.907C292.953 117.907 292.984 117.907 293.015 117.907C293.046 117.907 293.077 117.907 293.108 117.907C293.139 117.907 293.169 117.907 293.2 117.907C293.232 117.907 293.263 117.907 293.293 117.907C293.324 117.907 293.355 117.907 293.386 117.907C293.417 117.907 293.447 117.907 293.478 117.907C293.508 117.907 293.539 117.907 293.57 117.907C293.6 117.907 293.632 117.907 293.66 117.907C293.692 117.907 293.722 117.907 293.753 117.907C293.784 117.907 293.813 117.907 293.844 117.907C293.874 117.907 293.904 117.907 293.935 117.907C293.965 117.907 293.995 117.907 294.026 117.907C294.055 117.907 294.086 117.907 294.116 117.907C294.146 117.907 294.176 117.907 294.206 117.907C294.236 117.907 294.266 117.907 294.296 117.907C294.325 117.907 294.356 117.907 294.386 117.907C294.415 117.907 294.445 117.907 294.475 117.907C294.504 117.907 294.534 117.907 294.564 117.907C294.594 117.907 294.623 117.907 294.653 117.907C294.683 117.907 294.712 117.907 294.742 117.907C294.772 117.907 294.8 117.907 294.83 117.907C294.859 117.907 294.889 117.907 294.918 117.907C294.947 117.907 294.976 117.907 295.006 117.907C295.036 117.907 295.065 117.907 295.094 117.907C295.123 117.907 295.152 117.907 295.181 117.907C295.21 117.907 295.238 117.907 295.268 117.907C295.297 117.907 295.326 117.907 295.355 117.907C295.384 117.907 295.413 117.907 295.442 117.907C295.47 117.907 295.499 117.907 295.528 117.907C295.556 117.907 295.585 117.907 295.614 117.907C295.643 117.907 295.67 117.907 295.699 117.907C295.728 117.907 295.757 117.907 295.785 117.907C295.813 117.907 295.842 117.907 295.869 117.907C295.898 117.907 295.926 117.907 295.955 117.907C295.983 117.907 296.012 117.907 296.039 117.907C296.068 117.907 296.096 117.907 296.124 117.907C296.152 117.907 296.18 117.907 296.207 117.907C296.235 117.907 296.263 117.907 296.29 117.907C296.319 117.907 296.347 117.907 296.375 117.907C296.403 117.907 296.429 117.907 296.457 117.907C296.485 117.907 296.513 117.907 296.54 117.907C296.568 117.907 296.595 117.907 296.623 117.907C296.65 117.907 296.678 117.907 296.706 117.907C296.733 117.907 296.76 117.907 296.787 117.907C296.815 117.907 296.842 117.907 296.869 117.907C296.896 117.907 296.923 117.907 296.95 117.907C296.977 117.907 297.004 117.907 297.031 117.907C297.058 117.907 297.085 117.907 297.112 117.907C297.138 117.907 297.165 117.907 297.192 117.907C297.218 117.907 297.246 117.907 297.273 117.907C297.299 117.907 297.326 117.907 297.352 117.907C297.378 117.907 297.405 117.907 297.432 117.907C297.458 117.907 297.484 117.907 297.51 117.907C297.537 117.907 297.564 117.907 297.589 117.907C297.615 117.907 297.642 117.907 297.668 117.907C297.694 117.907 297.719 117.907 297.746 117.907C297.772 117.907 297.798 117.907 297.824 117.907C297.849 117.907 297.876 117.907 297.902 117.907C297.927 117.907 297.953 117.907 297.978 117.907C298.004 117.907 298.029 117.907 298.056 117.907C298.08 117.907 298.106 117.907 298.131 117.907C298.157 117.907 298.182 117.907 298.208 117.907C298.233 117.907 298.258 117.907 298.284 117.907C298.308 117.907 298.334 117.907 298.359 117.907C298.384 117.907 298.409 117.907 298.434 117.907C298.458 117.907 298.484 117.907 298.508 117.907C298.534 117.907 298.558 117.907 298.583 117.907C298.608 117.907 298.633 117.907 298.657 117.907C298.682 117.907 298.707 117.907 298.73 117.907C298.755 117.907 298.779 117.907 298.804 117.907C298.828 117.907 298.853 117.907 298.877 117.907C298.902 117.907 298.926 117.907 298.949 117.907C298.974 117.907 298.997 117.907 299.022 117.907C299.046 117.907 299.07 117.907 299.094 117.907C299.118 117.907 299.142 117.907 299.165 117.907C299.189 117.907 299.213 117.907 299.237 117.907C299.26 117.907 299.284 117.907 299.308 117.907C299.33 117.907 299.355 117.907 299.378 117.907C299.402 117.907 299.425 117.907 299.447 117.907C299.472 117.907 299.495 117.907 299.517 117.907C299.54 117.907 299.565 117.907 299.587 117.907C299.61 117.907 299.634 117.907 299.656 117.907C299.679 117.907 299.702 117.907 299.724 117.907C299.747 117.907 299.77 117.907 299.793 117.907C299.815 117.907 299.838 117.907 299.86 117.907C299.883 117.907 299.905 117.907 299.928 117.907C299.95 117.907 299.973 117.907 299.995 117.907C300.017 117.907 300.039 117.907 300.062 117.907C300.084 117.907 300.106 117.907 300.128 117.907C300.15 117.907 300.172 117.907 300.194 117.907C300.216 117.907 300.237 117.907 300.259 117.907C300.28 117.907 300.303 117.907 300.325 117.907C300.346 117.907 300.368 117.907 300.389 117.907C300.41 117.907 300.432 117.907 300.453 117.907C300.475 117.907 300.496 117.907 300.517 117.907C300.538 117.907 300.559 117.907 300.58 117.907C300.602 117.907 300.623 117.907 300.644 117.907C300.665 117.907 300.686 117.907 300.707 117.907C300.727 117.907 300.748 117.907 300.769 117.907C300.789 117.907 300.81 117.907 300.83 117.907C300.852 117.907 300.872 117.907 300.892 117.907C300.913 117.907 300.933 117.907 300.953 117.907C300.973 117.907 300.993 117.907 301.014 117.907C301.034 117.907 301.053 117.907 301.074 117.907C301.094 117.907 301.114 117.907 301.134 117.907C301.154 117.907 301.173 117.907 301.193 117.907C301.213 117.907 301.233 117.907 301.252 117.907C301.272 117.907 301.29 117.907 301.31 117.907C301.33 117.907 301.349 117.907 301.368 117.907C301.387 117.907 301.406 117.907 301.426 117.907C301.445 117.907 301.464 117.907 301.483 117.907C301.503 117.907 301.52 117.907 301.539 117.907C301.559 117.907 301.577 117.907 301.596 117.907V100.673C301.577 100.673 301.559 100.673 301.539 100.673C301.52 100.673 301.503 100.673 301.483 100.673C301.464 100.673 301.445 100.673 301.426 100.673C301.406 100.673 301.387 100.673 301.368 100.673C301.349 100.673 301.33 100.673 301.31 100.673C301.29 100.673 301.272 100.673 301.252 100.673C301.233 100.673 301.213 100.673 301.193 100.673C301.173 100.673 301.154 100.673 301.134 100.673C301.114 100.673 301.094 100.673 301.074 100.673C301.053 100.673 301.034 100.673 301.014 100.673C300.993 100.673 300.973 100.673 300.953 100.673C300.933 100.673 300.913 100.673 300.892 100.673C300.872 100.673 300.852 100.673 300.83 100.673C300.81 100.673 300.789 100.673 300.769 100.673C300.748 100.673 300.727 100.673 300.707 100.673C300.686 100.673 300.665 100.673 300.644 100.673C300.623 100.673 300.602 100.673 300.58 100.673C300.559 100.673 300.538 100.673 300.517 100.673C300.496 100.673 300.475 100.673 300.453 100.673C300.432 100.673 300.41 100.673 300.389 100.673C300.368 100.673 300.346 100.673 300.325 100.673C300.303 100.673 300.28 100.673 300.259 100.673C300.237 100.673 300.216 100.673 300.194 100.673C300.172 100.673 300.15 100.673 300.128 100.673C300.106 100.673 300.084 100.673 300.062 100.673C300.039 100.673 300.017 100.673 299.995 100.673C299.973 100.673 299.95 100.673 299.928 100.673C299.905 100.673 299.883 100.673 299.86 100.673C299.838 100.673 299.815 100.673 299.793 100.673C299.77 100.673 299.747 100.673 299.724 100.673C299.702 100.673 299.679 100.673 299.656 100.673C299.634 100.673 299.61 100.673 299.587 100.673C299.565 100.673 299.54 100.673 299.517 100.673C299.495 100.673 299.472 100.673 299.447 100.673C299.425 100.673 299.402 100.673 299.378 100.673C299.355 100.673 299.33 100.673 299.308 100.673C299.284 100.673 299.26 100.673 299.237 100.673C299.213 100.673 299.189 100.673 299.165 100.673C299.142 100.673 299.118 100.673 299.094 100.673C299.07 100.673 299.046 100.673 299.022 100.673C298.997 100.673 298.974 100.673 298.949 100.673C298.926 100.673 298.902 100.673 298.877 100.673C298.853 100.673 298.828 100.673 298.804 100.673C298.779 100.673 298.755 100.673 298.73 100.673C298.707 100.673 298.682 100.673 298.657 100.673C298.633 100.673 298.608 100.673 298.583 100.673C298.558 100.673 298.534 100.673 298.508 100.673C298.484 100.673 298.458 100.673 298.434 100.673C298.409 100.673 298.384 100.673 298.359 100.673C298.334 100.673 298.308 100.673 298.284 100.673C298.258 100.673 298.233 100.673 298.208 100.673C298.182 100.673 298.157 100.673 298.131 100.673C298.106 100.673 298.08 100.673 298.056 100.673C298.029 100.673 298.004 100.673 297.978 100.673C297.953 100.673 297.927 100.673 297.902 100.673C297.876 100.673 297.849 100.673 297.824 100.673C297.798 100.673 297.772 100.673 297.746 100.673C297.719 100.673 297.694 100.673 297.668 100.673C297.642 100.673 297.615 100.673 297.589 100.673C297.564 100.673 297.537 100.673 297.51 100.673C297.484 100.673 297.458 100.673 297.432 100.673C297.405 100.673 297.378 100.673 297.352 100.673C297.326 100.673 297.299 100.673 297.273 100.673C297.246 100.673 297.218 100.673 297.192 100.673C297.165 100.673 297.138 100.673 297.112 100.673C297.085 100.673 297.058 100.673 297.031 100.673C297.004 100.673 296.977 100.673 296.95 100.673C296.923 100.673 296.896 100.673 296.869 100.673C296.842 100.673 296.815 100.673 296.787 100.673C296.76 100.673 296.733 100.673 296.706 100.673C296.678 100.673 296.65 100.673 296.623 100.673C296.595 100.673 296.568 100.673 296.54 100.673C296.513 100.673 296.485 100.673 296.457 100.673C296.429 100.673 296.403 100.673 296.375 100.673C296.347 100.673 296.319 100.673 296.29 100.673C296.263 100.673 296.235 100.673 296.207 100.673C296.18 100.673 296.152 100.673 296.124 100.673C296.096 100.673 296.068 100.673 296.039 100.673C296.012 100.673 295.983 100.673 295.955 100.673C295.926 100.673 295.898 100.673 295.869 100.673C295.842 100.673 295.813 100.673 295.785 100.673C295.757 100.673 295.728 100.673 295.699 100.673C295.67 100.673 295.643 100.673 295.614 100.673C295.585 100.673 295.556 100.673 295.528 100.673C295.499 100.673 295.47 100.673 295.442 100.673C295.413 100.673 295.384 100.673 295.355 100.673C295.326 100.673 295.297 100.673 295.268 100.673C295.238 100.673 295.21 100.673 295.181 100.673C295.152 100.673 295.123 100.673 295.094 100.673C295.065 100.673 295.036 100.673 295.006 100.673C294.976 100.673 294.947 100.673 294.918 100.673C294.889 100.673 294.859 100.673 294.83 100.673C294.8 100.673 294.772 100.673 294.742 100.673C294.712 100.673 294.683 100.673 294.653 100.673C294.623 100.673 294.594 100.673 294.564 100.673C294.534 100.673 294.504 100.673 294.475 100.673C294.445 100.673 294.415 100.673 294.386 100.673C294.356 100.673 294.325 100.673 294.296 100.673C294.266 100.673 294.236 100.673 294.206 100.673C294.176 100.673 294.146 100.673 294.116 100.673C294.086 100.673 294.055 100.673 294.026 100.673C293.995 100.673 293.965 100.673 293.935 100.673C293.904 100.673 293.874 100.673 293.844 100.673C293.813 100.673 293.784 100.673 293.753 100.673C293.722 100.673 293.692 100.673 293.66 100.673C293.632 100.673 293.6 100.673 293.57 100.673C293.539 100.673 293.508 100.673 293.478 100.673C293.447 100.673 293.417 100.673 293.386 100.673C293.355 100.673 293.324 100.673 293.293 100.673C293.263 100.673 293.232 100.673 293.2 100.673C293.169 100.673 293.139 100.673 293.108 100.673C293.077 100.673 293.046 100.673 293.015 100.673C292.984 100.673 292.953 100.673 292.922 100.673C292.891 100.673 292.859 100.673 292.828 100.673C292.797 100.673 292.766 100.673 292.735 100.673C292.704 100.673 292.672 100.673 292.641 100.673C292.609 100.673 292.578 100.673 292.546 100.673C292.516 100.673 292.484 100.673 292.453 100.673C292.42 100.673 292.389 100.673 292.358 100.673C292.326 100.673 292.295 100.673 292.263 100.673C292.232 100.673 292.199 100.673 292.168 100.673C292.137 100.673 292.105 100.673 292.074 100.673C292.042 100.673 292.009 100.673 291.977 100.673C291.946 100.673 291.915 100.673 291.882 100.673C291.85 100.673 291.818 100.673 291.786 100.673C291.755 100.673 291.723 100.673 291.69 100.673C291.659 100.673 291.626 100.673 291.595 100.673C291.562 100.673 291.53 100.673 291.498 100.673C291.466 100.673 291.434 100.673 291.402 100.673C291.369 100.673 291.337 100.673 291.305 100.673C291.273 100.673 291.24 100.673 291.208 100.673C291.175 100.673 291.144 100.673 291.111 100.673C291.078 100.673 291.046 100.673 291.014 100.673C290.98 100.673 290.948 100.673 290.916 100.673C290.884 100.673 290.85 100.673 290.818 100.673C290.786 100.673 290.753 100.673 290.72 100.673C290.688 100.673 290.655 100.673 290.623 100.673C290.59 100.673 290.558 100.673 290.524 100.673C290.492 100.673 290.459 100.673 290.427 100.673C290.393 100.673 290.36 100.673 290.328 100.673C290.295 100.673 290.262 100.673 290.229 100.673C290.196 100.673 290.163 100.673 290.13 100.673C290.097 100.673 290.065 100.673 290.032 100.673C289.998 100.673 289.965 100.673 289.933 100.673C289.899 100.673 289.866 100.673 289.833 100.673C289.799 100.673 289.767 100.673 289.734 100.673C289.7 100.673 289.667 100.673 289.634 100.673C289.6 100.673 289.567 100.673 289.534 100.673C289.5 100.673 289.467 100.673 289.434 100.673C289.4 100.673 289.367 100.673 289.334 100.673C289.3 100.673 289.267 100.673 289.234 100.673C289.2 100.673 289.166 100.673 289.133 100.673C289.099 100.673 289.066 100.673 289.033 100.673C288.999 100.673 288.966 100.673 288.932 100.673C288.898 100.673 288.865 100.673 288.832 100.673C288.797 100.673 288.764 100.673 288.73 100.673C288.696 100.673 288.663 100.673 288.629 100.673C288.595 100.673 288.562 100.673 288.528 100.673C288.495 100.673 288.46 100.673 288.426 100.673C288.393 100.673 288.358 100.673 288.325 100.673C288.292 100.673 288.257 100.673 288.224 100.673C288.189 100.673 288.156 100.673 288.121 100.673C288.087 100.673 288.054 100.673 288.019 100.673C287.986 100.673 287.952 100.673 287.918 100.673C287.884 100.673 287.849 100.673 287.816 100.673C287.781 100.673 287.747 100.673 287.713 100.673C287.678 100.673 287.645 100.673 287.61 100.673C287.576 100.673 287.543 100.673 287.508 100.673C287.474 100.673 287.44 100.673 287.406 100.673C287.372 100.673 287.337 100.673 287.304 100.673C287.269 100.673 287.235 100.673 287.2 100.673C287.166 100.673 287.132 100.673 287.097 100.673C287.063 100.673 287.028 100.673 286.994 100.673C286.959 100.673 286.925 100.673 286.89 100.673C286.856 100.673 286.822 100.673 286.787 100.673C286.753 100.673 286.719 100.673 286.685 100.673C286.65 100.673 286.615 100.673 286.58 100.673C286.546 100.673 286.512 100.673 286.477 100.673C286.443 100.673 286.408 100.673 286.374 100.673C286.339 100.673 286.305 100.673 286.27 100.673C286.236 100.673 286.2 100.673 286.166 100.673C286.132 100.673 286.097 100.673 286.063 100.673C286.027 100.673 285.993 100.673 285.958 100.673C285.924 100.673 285.889 100.673 285.854 100.673C285.819 100.673 285.785 100.673 285.75 100.673C285.715 100.673 285.68 100.673 285.646 100.673C285.61 100.673 285.576 100.673 285.542 100.673C285.506 100.673 285.472 100.673 285.437 100.673C285.402 100.673 285.367 100.673 285.332 100.673C285.297 100.673 285.263 100.673 285.227 100.673C285.193 100.673 285.158 100.673 285.123 100.673C285.088 100.673 285.054 100.673 285.019 100.673C284.984 100.673 284.949 100.673 284.914 100.673C284.879 100.673 284.844 100.673 284.809 100.673C284.774 100.673 284.739 100.673 284.704 100.673C284.668 100.673 284.634 100.673 284.598 100.673C284.564 100.673 284.528 100.673 284.494 100.673C284.459 100.673 284.424 100.673 284.389 100.673C284.354 100.673 284.319 100.673 284.284 100.673C284.248 100.673 284.214 100.673 284.178 100.673C284.144 100.673 284.108 100.673 284.073 100.673C284.038 100.673 284.003 100.673 283.967 100.673C283.933 100.673 283.898 100.673 283.863 100.673C283.828 100.673 283.793 100.673 283.757 100.673C283.722 100.673 283.687 100.673 283.652 100.673C283.616 100.673 283.582 100.673 283.546 100.673C283.51 100.673 283.476 100.673 283.441 100.673C283.406 100.673 283.37 100.673 283.335 100.673C283.3 100.673 283.265 100.673 283.229 100.673C283.194 100.673 283.158 100.673 283.124 100.673C283.088 100.673 283.054 100.673 283.018 100.673C282.983 100.673 282.948 100.673 282.913 100.673C282.877 100.673 282.842 100.673 282.806 100.673C282.772 100.673 282.736 100.673 282.7 100.673C282.666 100.673 282.63 100.673 282.595 100.673C282.56 100.673 282.525 100.673 282.489 100.673C282.454 100.673 282.418 100.673 282.383 100.673C282.347 100.673 282.313 100.673 282.278 100.673C282.243 100.673 282.207 100.673 282.172 100.673C282.136 100.673 282.1 100.673 282.066 100.673C282.03 100.673 281.995 100.673 281.96 100.673C281.925 100.673 281.889 100.673 281.854 100.673C281.818 100.673 281.783 100.673 281.748 100.673C281.713 100.673 281.677 100.673 281.642 100.673C281.606 100.673 281.572 100.673 281.536 100.673C281.5 100.673 281.465 100.673 281.43 100.673C281.395 100.673 281.359 100.673 281.324 100.673C281.288 100.673 281.253 100.673 281.218 100.673C281.183 100.673 281.147 100.673 281.113 100.673C281.077 100.673 281.042 100.673 281.006 100.673C280.97 100.673 280.935 100.673 280.9 100.673C280.865 100.673 280.829 100.673 280.795 100.673C280.759 100.673 280.724 100.673 280.688 100.673C280.653 100.673 280.617 100.673 280.582 100.673C280.547 100.673 280.513 100.673 280.477 100.673C280.442 100.673 280.406 100.673 280.37 100.673C280.335 100.673 280.299 100.673 280.264 100.673C280.229 100.673 280.194 100.673 280.159 100.673C280.124 100.673 280.088 100.673 280.053 100.673C280.017 100.673 279.983 100.673 279.947 100.673C279.912 100.673 279.876 100.673 279.841 100.673C279.806 100.673 279.771 100.673 279.736 100.673C279.7 100.673 279.665 100.673 279.629 100.673C279.595 100.673 279.559 100.673 279.524 100.673C279.488 100.673 279.453 100.673 279.419 100.673C279.384 100.673 279.348 100.673 279.313 100.673C279.277 100.673 279.243 100.673 279.207 100.673C279.172 100.673 279.136 100.673 279.102 100.673C279.066 100.673 279.031 100.673 278.996 100.673C278.961 100.673 278.926 100.673 278.89 100.673C278.855 100.673 278.82 100.673 278.785 100.673C278.749 100.673 278.715 100.673 278.679 100.673C278.644 100.673 278.609 100.673 278.574 100.673C278.539 100.673 278.504 100.673 278.469 100.673C278.434 100.673 278.399 100.673 278.364 100.673C278.328 100.673 278.294 100.673 278.258 100.673C278.223 100.673 278.188 100.673 278.153 100.673C278.118 100.673 278.083 100.673 278.048 100.673C278.013 100.673 277.978 100.673 277.944 100.673C277.908 100.673 277.874 100.673 277.838 100.673C277.803 100.673 277.768 100.673 277.733 100.673C277.698 100.673 277.663 100.673 277.628 100.673C277.593 100.673 277.558 100.673 277.523 100.673C277.488 100.673 277.454 100.673 277.418 100.673C277.384 100.673 277.349 100.673 277.314 100.673C277.279 100.673 277.245 100.673 277.21 100.673C277.175 100.673 277.14 100.673 277.105 100.673C277.07 100.673 277.036 100.673 277 100.673C276.966 100.673 276.932 100.673 276.896 100.673C276.862 100.673 276.827 100.673 276.792 100.673C276.757 100.673 276.723 100.673 276.688 100.673C276.653 100.673 276.618 100.673 276.584 100.673C276.549 100.673 276.514 100.673 276.479 100.673C276.445 100.673 276.41 100.673 276.376 100.673C276.342 100.673 276.306 100.673 276.272 100.673C276.237 100.673 276.203 100.673 276.168 100.673C276.134 100.673 276.099 100.673 276.065 100.673C276.03 100.673 275.995 100.673 275.96 100.673C275.926 100.673 275.892 100.673 275.857 100.673C275.823 100.673 275.788 100.673 275.754 100.673C275.719 100.673 275.685 100.673 275.651 100.673C275.617 100.673 275.583 100.673 275.548 100.673C275.514 100.673 275.479 100.673 275.445 100.673C275.41 100.673 275.376 100.673 275.342 100.673C275.307 100.673 275.273 100.673 275.238 100.673C275.204 100.673 275.17 100.673 275.136 100.673C275.102 100.673 275.067 100.673 275.034 100.673C274.999 100.673 274.965 100.673 274.932 100.673C274.897 100.673 274.863 100.673 274.829 100.673C274.794 100.673 274.76 100.673 274.726 100.673C274.692 100.673 274.658 100.673 274.624 100.673C274.59 100.673 274.556 100.673 274.523 100.673C274.488 100.673 274.455 100.673 274.42 100.673C274.386 100.673 274.352 100.673 274.318 100.673C274.284 100.673 274.25 100.673 274.217 100.673C274.183 100.673 274.149 100.673 274.116 100.673C274.081 100.673 274.047 100.673 274.014 100.673C273.98 100.673 273.946 100.673 273.913 100.673C273.879 100.673 273.846 100.673 273.811 100.673C273.777 100.673 273.744 100.673 273.71 100.673C273.677 100.673 273.644 100.673 273.61 100.673C273.576 100.673 273.542 100.673 273.508 100.673C273.475 100.673 273.442 100.673 273.408 100.673C273.375 100.673 273.34 100.673 273.308 100.673C273.275 100.673 273.242 100.673 273.208 100.673C273.174 100.673 273.14 100.673 273.107 100.673C273.074 100.673 273.042 100.673 273.008 100.673C272.974 100.673 272.94 100.673 272.908 100.673C272.875 100.673 272.841 100.673 272.808 100.673C272.775 100.673 272.742 100.673 272.709 100.673C272.676 100.673 272.642 100.673 272.609 100.673C272.576 100.673 272.544 100.673 272.51 100.673C272.477 100.673 272.444 100.673 272.412 100.673C272.378 100.673 272.345 100.673 272.313 100.673C272.279 100.673 272.247 100.673 272.214 100.673C272.18 100.673 272.148 100.673 272.115 100.673C272.082 100.673 272.049 100.673 272.017 100.673C271.984 100.673 271.952 100.673 271.918 100.673C271.886 100.673 271.853 100.673 271.82 100.673C271.788 100.673 271.755 100.673 271.723 100.673C271.69 100.673 271.658 100.673 271.625 100.673C271.593 100.673 271.56 100.673 271.527 100.673C271.495 100.673 271.463 100.673 271.43 100.673C271.398 100.673 271.366 100.673 271.333 100.673C271.3 100.673 271.268 100.673 271.236 100.673C271.204 100.673 271.172 100.673 271.139 100.673C271.107 100.673 271.076 100.673 271.043 100.673C271.01 100.673 270.979 100.673 270.946 100.673C270.915 100.673 270.883 100.673 270.85 100.673C270.818 100.673 270.786 100.673 270.755 100.673C270.723 100.673 270.69 100.673 270.659 100.673C270.627 100.673 270.595 100.673 270.564 100.673C270.532 100.673 270.499 100.673 270.467 100.673C270.436 100.673 270.405 100.673 270.373 100.673C270.342 100.673 270.309 100.673 270.278 100.673C270.246 100.673 270.215 100.673 270.183 100.673C270.152 100.673 270.12 100.673 270.088 100.673C270.057 100.673 270.025 100.673 269.994 100.673C269.963 100.673 269.932 100.673 269.9 100.673C269.868 100.673 269.837 100.673 269.806 100.673C269.775 100.673 269.744 100.673 269.713 100.673C269.682 100.673 269.65 100.673 269.619 100.673C269.588 100.673 269.557 100.673 269.526 100.673C269.495 100.673 269.463 100.673 269.433 100.673C269.402 100.673 269.37 100.673 269.339 100.673C269.309 100.673 269.278 100.673 269.247 100.673C269.216 100.673 269.186 100.673 269.155 100.673C269.124 100.673 269.094 100.673 269.063 100.673C269.033 100.673 269.002 100.673 268.972 100.673C268.94 100.673 268.91 100.673 268.879 100.673C268.848 100.673 268.818 100.673 268.788 100.673C268.757 100.673 268.727 100.673 268.696 100.673C268.667 100.673 268.636 100.673 268.605 100.673C268.576 100.673 268.545 100.673 268.515 100.673C268.485 100.673 268.455 100.673 268.425 100.673C268.395 100.673 268.364 100.673 268.335 100.673C268.305 100.673 268.274 100.673 268.245 100.673C268.215 100.673 268.185 100.673 268.155 100.673C268.125 100.673 268.095 100.673 268.065 100.673C268.036 100.673 268.006 100.673 267.976 100.673C267.947 100.673 267.917 100.673 267.887 100.673C267.857 100.673 267.828 100.673 267.798 100.673C267.768 100.673 267.74 100.673 267.71 100.673C267.68 100.673 267.65 100.673 267.622 100.673C267.593 100.673 267.564 100.673 267.534 100.673C267.504 100.673 267.476 100.673 267.446 100.673C267.417 100.673 267.388 100.673 267.359 100.673C267.33 100.673 267.302 100.673 267.272 100.673C267.243 100.673 267.214 100.673 267.186 100.673C267.156 100.673 267.127 100.673 267.098 100.673C267.069 100.673 267.04 100.673 267.013 100.673C266.984 100.673 266.955 100.673 266.926 100.673C266.897 100.673 266.868 100.673 266.84 100.673C266.812 100.673 266.784 100.673 266.755 100.673C266.727 100.673 266.698 100.673 266.669 100.673C266.642 100.673 266.613 100.673 266.585 100.673C266.556 100.673 266.528 100.673 266.5 100.673C266.473 100.673 266.445 100.673 266.416 100.673C266.388 100.673 266.36 100.673 266.333 100.673C266.304 100.673 266.276 100.673 266.248 100.673C266.22 100.673 266.193 100.673 266.165 100.673C266.137 100.673 266.109 100.673 266.082 100.673C266.054 100.673 266.026 100.673 265.999 100.673C265.972 100.673 265.944 100.673 265.916 100.673C265.889 100.673 265.862 100.673 265.834 100.673C265.807 100.673 265.779 100.673 265.753 100.673C265.725 100.673 265.697 100.673 265.67 100.673C265.643 100.673 265.616 100.673 265.589 100.673C265.562 100.673 265.535 100.673 265.508 100.673C265.482 100.673 265.455 100.673 265.427 100.673C265.4 100.673 265.374 100.673 265.347 100.673C265.32 100.673 265.294 100.673 265.267 100.673C265.24 100.673 265.214 100.673 265.187 100.673C265.16 100.673 265.134 100.673 265.108 100.673C265.081 100.673 265.055 100.673 265.028 100.673C265.003 100.673 264.976 100.673 264.95 100.673C264.924 100.673 264.897 100.673 264.872 100.673C264.846 100.673 264.818 100.673 264.793 100.673C264.767 100.673 264.742 100.673 264.715 100.673C264.689 100.673 264.664 100.673 264.638 100.673C264.612 100.673 264.586 100.673 264.56 100.673C264.535 100.673 264.509 100.673 264.484 100.673C264.458 100.673 264.433 100.673 264.407 100.673C264.382 100.673 264.356 100.673 264.332 100.673C264.306 100.673 264.28 100.673 264.256 100.673C264.23 100.673 264.205 100.673 264.18 100.673C264.155 100.673 264.129 100.673 264.105 100.673C264.079 100.673 264.055 100.673 264.029 100.673C264.005 100.673 263.98 100.673 263.955 100.673C263.932 100.673 263.906 100.673 263.882 100.673C263.856 100.673 263.833 100.673 263.807 100.673C263.783 100.673 263.759 100.673 263.734 100.673C263.71 100.673 263.686 100.673 263.662 100.673C263.637 100.673 263.613 100.673 263.588 100.673C263.565 100.673 263.54 100.673 263.517 100.673C263.493 100.673 263.468 100.673 263.445 100.673C263.42 100.673 263.397 100.673 263.373 100.673C263.349 100.673 263.325 100.673 263.301 100.673C263.278 100.673 263.254 100.673 263.23 100.673C263.207 100.673 263.184 100.673 263.16 100.673C263.136 100.673 263.114 100.673 263.09 100.673C263.067 100.673 263.044 100.673 263.02 100.673C262.997 100.673 262.974 100.673 262.95 100.673C262.928 100.673 262.905 100.673 262.882 100.673C262.859 100.673 262.836 100.673 262.814 100.673C262.79 100.673 262.768 100.673 262.745 100.673C262.723 100.673 262.7 100.673 262.677 100.673C262.655 100.673 262.632 100.673 262.61 100.673C262.588 100.673 262.565 100.673 262.543 100.673C262.52 100.673 262.498 100.673 262.476 100.673C262.454 100.673 262.432 100.673 262.409 100.673C262.388 100.673 262.366 100.673 262.344 100.673C262.322 100.673 262.299 100.673 262.278 100.673C262.257 100.673 262.235 100.673 262.214 100.673C262.192 100.673 262.17 100.673 262.148 100.673C262.127 100.673 262.105 100.673 262.084 100.673C262.063 100.673 262.042 100.673 262.02 100.673C261.999 100.673 261.978 100.673 261.957 100.673C261.936 100.673 261.915 100.673 261.894 100.673C261.873 100.673 261.852 100.673 261.83 100.673C261.81 100.673 261.789 100.673 261.768 100.673C261.748 100.673 261.727 100.673 261.707 100.673C261.686 100.673 261.666 100.673 261.645 100.673C261.625 100.673 261.605 100.673 261.585 100.673C261.564 100.673 261.543 100.673 261.523 100.673C261.503 100.673 261.483 100.673 261.463 100.673C261.444 100.673 261.424 100.673 261.404 100.673C261.384 100.673 261.364 100.673 261.344 100.673C261.324 100.673 261.305 100.673 261.285 100.673C261.266 100.673 261.246 100.673 261.226 100.673C261.207 100.673 261.188 100.673 261.169 100.673C261.149 100.673 261.129 100.673 261.11 100.673C261.092 100.673 261.073 100.673 261.054 100.673C261.035 100.673 261.016 100.673 260.997 100.673C260.978 100.673 260.959 100.673 260.94 100.673C260.922 100.673 260.903 100.673 260.885 100.673C260.866 100.673 260.847 100.673 260.829 100.673C260.81 100.673 260.793 100.673 260.775 100.673C260.755 100.673 260.737 100.673 260.719 100.673C260.702 100.673 260.684 100.673 260.665 100.673C260.647 100.673 260.629 100.673 260.612 100.673C260.594 100.673 260.576 100.673 260.558 100.673C260.54 100.673 260.523 100.673 260.505 100.673C260.488 100.673 260.47 100.673 260.453 100.673C260.436 100.673 260.418 100.673 260.401 100.673C260.384 100.673 260.367 100.673 260.349 100.673C260.333 100.673 260.316 100.673 260.298 100.673C260.282 100.673 260.265 100.673 260.248 100.673C260.232 100.673 260.214 100.673 260.198 100.673C260.182 100.673 260.165 100.673 260.148 100.673C260.132 100.673 260.116 100.673 260.099 100.673C260.083 100.673 260.067 100.673 260.05 100.673C260.034 100.673 260.019 100.673 260.003 100.673C259.986 100.673 259.972 100.673 259.955 100.673C259.938 100.673 259.924 100.673 259.908 100.673C259.892 100.673 259.876 100.673 259.861 100.673C259.846 100.673 259.83 100.673 259.814 100.673C259.799 100.673 259.785 100.673 259.769 100.673C259.754 100.673 259.738 100.673 259.723 100.673C259.709 100.673 259.694 100.673 259.678 100.673C259.664 100.673 259.649 100.673 259.634 100.673C259.619 100.673 259.605 100.673 259.59 100.673C259.576 100.673 259.562 100.673 259.547 100.673C259.533 100.673 259.518 100.673 259.504 100.673C259.489 100.673 259.476 100.673 259.462 100.673C259.447 100.673 259.434 100.673 259.419 100.673C259.406 100.673 259.392 100.673 259.378 100.673C259.365 100.673 259.35 100.673 259.337 100.673C259.324 100.673 259.31 100.673 259.297 100.673C259.284 100.673 259.27 100.673 259.257 100.673C259.245 100.673 259.231 100.673 259.217 100.673C259.205 100.673 259.192 100.673 259.179 100.673C259.166 100.673 259.154 100.673 259.141 100.673C259.127 100.673 259.115 100.673 259.103 100.673C259.09 100.673 259.078 100.673 259.065 100.673C259.053 100.673 259.04 100.673 259.029 100.673C259.017 100.673 259.004 100.673 258.993 100.673C258.98 100.673 258.968 100.673 258.956 100.673C258.945 100.673 258.933 100.673 258.92 100.673C258.909 100.673 258.898 100.673 258.886 100.673C258.875 100.673 258.864 100.673 258.852 100.673C258.842 100.673 258.83 100.673 258.818 100.673C258.808 100.673 258.796 100.673 258.786 100.673C258.774 100.673 258.764 100.673 258.753 100.673C258.742 100.673 258.732 100.673 258.72 100.673C258.71 100.673 258.699 100.673 258.689 100.673C258.678 100.673 258.668 100.673 258.658 100.673C258.648 100.673 258.637 100.673 258.628 100.673C258.617 100.673 258.608 100.673 258.597 100.673C258.587 100.673 258.578 100.673 258.568 100.673C258.559 100.673 258.549 100.673 258.539 100.673C258.53 100.673 258.52 100.673 258.511 100.673V117.907Z" fill="#1E2C96"/>
</svg>
