<svg width="140" height="50" viewBox="0 0 140 50" fill="none" xmlns="http://www.w3.org/2000/svg">
<path d="M50.5786 35.9233C49.9828 35.9709 49.5301 35.8875 49.2203 35.6731C48.9105 35.4586 48.7556 35.1369 48.7556 34.708C48.7556 33.9216 49.1965 33.5165 50.0782 33.4926L51.1505 33.4212C52.3658 33.3497 53.2714 32.9803 53.8671 32.3131C54.4628 31.622 54.7607 30.5258 54.7607 29.0246V11.8671C54.7607 11.4143 54.9037 11.0569 55.1897 10.7948C55.4756 10.5088 55.8211 10.3658 56.2263 10.3658C56.679 10.3658 57.0365 10.5088 57.2986 10.7948C57.5607 11.0569 57.6918 11.4143 57.6918 11.8671V29.0603C57.6918 31.2526 57.1914 32.9088 56.1905 34.0288C55.1897 35.125 53.6765 35.7326 51.6509 35.8518L50.5786 35.9233ZM67.9209 17.908C72.2817 17.908 74.4621 20.1956 74.4621 24.7709V34.4935C74.4621 34.9224 74.3311 35.268 74.069 35.5301C73.8307 35.7922 73.497 35.9233 73.0681 35.9233C72.6392 35.9233 72.2936 35.7922 72.0315 35.5301C71.7694 35.268 71.6383 34.9224 71.6383 34.4935V32.7777C71.1856 33.8024 70.4945 34.6007 69.5651 35.1726C68.6358 35.7207 67.5634 35.9948 66.3481 35.9948C65.2281 35.9948 64.1915 35.7684 63.2383 35.3156C62.309 34.8629 61.5702 34.2314 61.0221 33.4212C60.4741 32.6109 60.2 31.7173 60.2 30.7403C60.2 29.4297 60.5336 28.4169 61.2009 27.702C61.8681 26.9633 62.9643 26.439 64.4894 26.1292C66.0145 25.7956 68.1353 25.6288 70.8519 25.6288H71.6383V24.4492C71.6383 23.0195 71.3404 21.9709 70.7447 21.3037C70.1728 20.6365 69.2315 20.3029 67.9209 20.3029C66.3004 20.3029 64.6562 20.7437 62.9881 21.6254C62.3447 22.0305 61.8919 22.2331 61.6298 22.2331C61.3438 22.2331 61.1056 22.1258 60.9149 21.9114C60.7243 21.6969 60.629 21.4229 60.629 21.0892C60.629 20.7556 60.7243 20.4697 60.9149 20.2314C61.1294 19.9692 61.463 19.7071 61.9158 19.445C62.7498 18.9684 63.6911 18.599 64.7396 18.3369C65.8119 18.0509 66.8724 17.908 67.9209 17.908ZM66.7413 33.7071C68.1711 33.7071 69.3387 33.2305 70.2443 32.2773C71.1736 31.3003 71.6383 30.0492 71.6383 28.5241V27.4875H70.9949C68.8979 27.4875 67.3013 27.5829 66.2051 27.7735C65.109 27.9403 64.3226 28.2382 63.846 28.6671C63.3932 29.0722 63.1668 29.6799 63.1668 30.4901C63.1668 31.4195 63.5004 32.1939 64.1677 32.8135C64.8587 33.4092 65.7166 33.7071 66.7413 33.7071ZM85.8388 17.908C87.3639 17.908 88.7103 18.2773 89.8779 19.016C91.0456 19.7548 91.9511 20.8033 92.5945 22.1616C93.2379 23.5199 93.5596 25.0926 93.5596 26.8799C93.5596 28.6909 93.2379 30.2875 92.5945 31.6697C91.9511 33.028 91.0456 34.0884 89.8779 34.8509C88.7103 35.6135 87.3639 35.9948 85.8388 35.9948C84.4805 35.9948 83.289 35.6969 82.2643 35.1012C81.2635 34.5054 80.5009 33.6595 79.9767 32.5633V34.4935C79.9767 34.9224 79.8456 35.268 79.5835 35.5301C79.3452 35.7922 78.9996 35.9233 78.5469 35.9233C78.0941 35.9233 77.7367 35.7922 77.4745 35.5301C77.2124 35.268 77.0813 34.9224 77.0813 34.4935V11.7599C77.0813 11.3548 77.2124 11.0212 77.4745 10.759C77.7367 10.4969 78.0941 10.3658 78.5469 10.3658C78.9996 10.3658 79.3452 10.4969 79.5835 10.759C79.8456 10.9973 79.9767 11.3309 79.9767 11.7599V21.3395C80.5009 20.2433 81.2635 19.3973 82.2643 18.8016C83.289 18.2058 84.4805 17.908 85.8388 17.908ZM85.2669 33.5999C86.9588 33.5999 88.2694 33.016 89.1988 31.8484C90.1281 30.6569 90.5928 29.0007 90.5928 26.8799C90.5928 24.8067 90.1281 23.1982 89.1988 22.0543C88.2694 20.9105 86.9588 20.3386 85.2669 20.3386C83.575 20.3386 82.2643 20.9105 81.3349 22.0543C80.4294 23.1982 79.9767 24.8305 79.9767 26.9514C79.9767 29.0722 80.4294 30.7165 81.3349 31.8841C82.2643 33.028 83.575 33.5999 85.2669 33.5999ZM103.962 17.908C105.487 17.908 106.834 18.2773 108.002 19.016C109.169 19.7548 110.075 20.8033 110.718 22.1616C111.362 23.5199 111.683 25.0926 111.683 26.8799C111.683 28.6909 111.362 30.2875 110.718 31.6697C110.075 33.028 109.169 34.0884 108.002 34.8509C106.834 35.6135 105.487 35.9948 103.962 35.9948C102.604 35.9948 101.413 35.6969 100.388 35.1012C99.3871 34.5054 98.6245 33.6595 98.1003 32.5633V34.4935C98.1003 34.9224 97.9692 35.268 97.7071 35.5301C97.4688 35.7922 97.1232 35.9233 96.6705 35.9233C96.2177 35.9233 95.8602 35.7922 95.5981 35.5301C95.336 35.268 95.2049 34.9224 95.2049 34.4935V11.7599C95.2049 11.3548 95.336 11.0212 95.5981 10.759C95.8602 10.4969 96.2177 10.3658 96.6705 10.3658C97.1232 10.3658 97.4688 10.4969 97.7071 10.759C97.9692 10.9973 98.1003 11.3309 98.1003 11.7599V21.3395C98.6245 20.2433 99.3871 19.3973 100.388 18.8016C101.413 18.2058 102.604 17.908 103.962 17.908ZM103.39 33.5999C105.082 33.5999 106.393 33.016 107.322 31.8484C108.252 30.6569 108.716 29.0007 108.716 26.8799C108.716 24.8067 108.252 23.1982 107.322 22.0543C106.393 20.9105 105.082 20.3386 103.39 20.3386C101.699 20.3386 100.388 20.9105 99.4585 22.0543C98.553 23.1982 98.1003 24.8305 98.1003 26.9514C98.1003 29.0722 98.553 30.7165 99.4585 31.8841C100.388 33.028 101.699 33.5999 103.39 33.5999ZM126.804 31.7054C127.067 31.7054 127.293 31.8126 127.484 32.0271C127.674 32.2416 127.77 32.5156 127.77 32.8492C127.77 33.445 127.352 33.9931 126.518 34.4935C125.661 34.9939 124.755 35.3752 123.802 35.6373C122.849 35.8756 121.919 35.9948 121.014 35.9948C118.321 35.9948 116.188 35.1965 114.615 33.5999C113.067 32.0033 112.292 29.799 112.292 26.9871C112.292 25.1999 112.638 23.6271 113.329 22.2688C114.02 20.8867 114.985 19.8143 116.224 19.0518C117.487 18.2892 118.917 17.908 120.513 17.908C122.777 17.908 124.576 18.6467 125.911 20.1241C127.245 21.6016 127.912 23.6033 127.912 26.1292C127.912 26.6058 127.817 26.9514 127.627 27.1658C127.436 27.3803 127.126 27.4875 126.697 27.4875H115.187C115.402 31.5863 117.344 33.6356 121.014 33.6356C121.943 33.6356 122.741 33.5165 123.409 33.2782C124.076 33.016 124.791 32.6705 125.553 32.2416C126.173 31.8841 126.59 31.7054 126.804 31.7054ZM120.549 20.1599C119.024 20.1599 117.797 20.6365 116.867 21.5897C115.962 22.5429 115.426 23.8892 115.259 25.6288H125.375C125.327 23.8654 124.886 22.519 124.052 21.5897C123.218 20.6365 122.05 20.1599 120.549 20.1599ZM138.112 17.9795C139.113 17.908 139.613 18.3131 139.613 19.1948C139.613 19.576 139.506 19.8858 139.292 20.1241C139.077 20.3386 138.708 20.4697 138.183 20.5173L137.111 20.6246C135.515 20.7675 134.323 21.3395 133.537 22.3403C132.774 23.3173 132.393 24.4731 132.393 25.8075V34.4935C132.393 34.9701 132.262 35.3275 132 35.5658C131.737 35.8041 131.392 35.9233 130.963 35.9233C130.534 35.9233 130.177 35.8041 129.891 35.5658C129.629 35.3037 129.497 34.9463 129.497 34.4935V19.4092C129.497 18.9565 129.64 18.6109 129.926 18.3726C130.212 18.1105 130.558 17.9795 130.963 17.9795C131.344 17.9795 131.666 18.1105 131.928 18.3726C132.19 18.6109 132.321 18.9446 132.321 19.3735V21.3752C132.822 20.3267 133.525 19.5284 134.43 18.9803C135.36 18.4322 136.42 18.1105 137.612 18.0152L138.112 17.9795Z" fill="#1E2C96"/>
<path d="M1.48935 21.7447C0.749055 21.7447 0.148926 22.3448 0.148926 23.0851C0.148926 23.8255 0.749055 24.4256 1.48935 24.4256V21.7447ZM40.2128 24.5745L39.2649 25.5223L39.6575 25.9149H40.2128V24.5745ZM46.9149 25.9149C47.6552 25.9149 48.2553 25.3149 48.2553 24.5745C48.2553 23.8341 47.6552 23.2341 46.9149 23.2341V25.9149ZM1.48935 24.4256H10.4255V21.7447H1.48935V24.4256ZM10.4255 24.4256C10.0985 24.4256 9.89042 24.292 9.85096 24.2662C9.79339 24.2287 9.77896 24.2074 9.81047 24.2401C9.87209 24.3039 9.97983 24.437 10.1347 24.6612C10.4388 25.1017 10.8001 25.7092 11.1864 26.369C11.5581 27.0037 11.9565 27.6926 12.2979 28.2158C12.4664 28.4741 12.651 28.7392 12.8358 28.9522C12.9262 29.0564 13.052 29.1897 13.2073 29.3075C13.324 29.396 13.663 29.6383 14.1489 29.6383V26.9575C14.5604 26.9575 14.8109 27.1591 14.8269 27.1712C14.8815 27.2126 14.8942 27.2339 14.861 27.1956C14.7986 27.1235 14.6935 26.9815 14.5432 26.7511C14.2469 26.2968 13.8913 25.6826 13.4997 25.014C13.1228 24.3706 12.7114 23.6749 12.3407 23.138C12.1581 22.8735 11.9529 22.5995 11.7393 22.3781C11.6332 22.2682 11.4906 22.1351 11.3161 22.0211C11.1596 21.919 10.8457 21.7447 10.4255 21.7447V24.4256ZM14.1489 29.6383C14.5531 29.6383 14.8455 29.4688 14.9828 29.3752C15.1343 29.2718 15.2473 29.1568 15.3208 29.0749C15.4688 28.9094 15.5966 28.7178 15.6994 28.5499C15.9119 28.2027 16.1457 27.7437 16.3831 27.2452C16.8624 26.2386 17.4327 24.9075 17.9873 23.6131C18.5497 22.3011 19.0964 21.0258 19.548 20.0777C19.776 19.5988 19.961 19.2433 20.0976 19.0202C20.1694 18.9032 20.1987 18.8708 20.1872 18.8835C20.1823 18.8892 20.1326 18.9456 20.0389 19.0095C19.9594 19.0637 19.7193 19.2128 19.3617 19.2128V16.5319C18.9575 16.5319 18.6651 16.7014 18.5278 16.7951C18.3763 16.8985 18.2633 17.0135 18.1899 17.0954C18.0418 17.2608 17.914 17.4525 17.8113 17.6204C17.5987 17.9675 17.3649 18.4266 17.1275 18.9251C16.6482 19.9317 16.0779 21.2628 15.5233 22.5572C14.9609 23.8691 14.4141 25.1445 13.9627 26.0926C13.7346 26.5714 13.5495 26.9269 13.413 27.1501C13.3413 27.2671 13.312 27.2994 13.3233 27.2868C13.3283 27.2811 13.3781 27.2247 13.4717 27.1608C13.5512 27.1066 13.7913 26.9575 14.1489 26.9575V29.6383ZM19.3617 19.2128C19.0354 19.2128 18.798 19.0919 18.6769 19.0144C18.5539 18.9356 18.477 18.8552 18.4441 18.8184C18.3796 18.7465 18.3577 18.7 18.3756 18.7314C18.4046 18.783 18.4648 18.9085 18.5559 19.1368C18.7326 19.5798 18.9594 20.2409 19.2251 21.0729C19.754 22.7284 20.4002 24.9439 21.0536 27.1839C21.7034 29.4119 22.3604 31.6646 22.9021 33.3601C23.1715 34.2037 23.4217 34.9388 23.6348 35.4734C23.7386 35.7335 23.8515 35.9921 23.9701 36.2024C24.0261 36.3017 24.1154 36.4486 24.2405 36.5881C24.2983 36.6526 24.6726 37.0851 25.3191 37.0851V34.4043C25.6455 34.4043 25.8829 34.5252 26.0039 34.6027C26.127 34.6815 26.2038 34.7619 26.2367 34.7987C26.3012 34.8706 26.3231 34.9171 26.3052 34.8856C26.2762 34.8341 26.216 34.7086 26.1249 34.4802C25.9482 34.0373 25.7214 33.3762 25.4557 32.5442C24.9268 30.8886 24.2806 28.6732 23.6272 26.4332C22.9774 24.2051 22.3205 21.9525 21.7788 20.257C21.5093 19.4134 21.2591 18.6783 21.046 18.1437C20.9422 17.8835 20.8293 17.625 20.7108 17.4147C20.6548 17.3154 20.5654 17.1685 20.4403 17.0289C20.3825 16.9645 20.0082 16.5319 19.3617 16.5319V19.2128ZM25.3191 37.0851C25.8446 37.0851 26.1785 36.7969 26.2973 36.6797C26.4347 36.5442 26.5193 36.4066 26.562 36.3315C26.6521 36.1736 26.7154 36.0068 26.7582 35.8844C26.8495 35.622 26.9405 35.2806 27.0304 34.9032C27.2132 34.1355 27.4276 33.0606 27.6612 31.8C28.1293 29.2721 28.6899 25.9075 29.2478 22.5609C29.8069 19.2054 30.3633 15.8678 30.8261 13.3691C31.0579 12.1165 31.2623 11.0969 31.4286 10.3986C31.5132 10.0429 31.5794 9.80838 31.6248 9.678C31.6504 9.60415 31.6503 9.62033 31.6181 9.67681C31.6042 9.70113 31.5472 9.80038 31.4359 9.91007C31.3433 10.0015 31.034 10.2766 30.5319 10.2766V7.59578C30.0065 7.59578 29.6725 7.88397 29.5537 8.0012C29.4164 8.13666 29.3318 8.27438 29.289 8.34943C29.1989 8.50734 29.1356 8.67405 29.0929 8.79656C29.0016 9.05888 28.9106 9.40029 28.8206 9.77766C28.6379 10.5454 28.4234 11.6203 28.1899 12.881C27.7218 15.4088 27.1612 18.7734 26.6033 22.12C26.0442 25.4756 25.4877 28.8131 25.025 31.3118C24.7931 32.5645 24.5888 33.5839 24.4224 34.2823C24.3378 34.638 24.2717 34.8725 24.2262 35.0029C24.2006 35.0767 24.2008 35.0606 24.2329 35.0041C24.2468 34.9798 24.3038 34.8806 24.4151 34.7708C24.5077 34.6794 24.8171 34.4043 25.3191 34.4043V37.0851ZM30.5319 10.2766C30.0409 10.2766 29.7296 10.0141 29.6128 9.89556C29.4902 9.77125 29.4295 9.65618 29.4125 9.62317C29.3747 9.54978 29.3712 9.51762 29.3897 9.58362C29.4213 9.69575 29.4667 9.90861 29.5223 10.2436C29.631 10.8989 29.753 11.8583 29.8864 13.0425C30.1532 15.4082 30.4536 18.552 30.7809 21.7331C31.1066 24.8965 31.4586 28.091 31.8247 30.5007C32.0067 31.6981 32.1986 32.7468 32.4031 33.5129C32.5026 33.8858 32.6231 34.2626 32.7779 34.5714C32.8532 34.722 32.9721 34.9291 33.1541 35.1165C33.3318 35.2995 33.7032 35.5958 34.2553 35.5958V32.9149C34.7143 32.9149 34.9927 33.1617 35.0773 33.2488C35.1664 33.3406 35.1921 33.4055 35.1747 33.3707C35.1436 33.3084 35.0786 33.1413 34.9934 32.8218C34.8284 32.2035 34.6539 31.2739 34.4751 30.0978C34.1199 27.7601 33.7736 24.6248 33.4478 21.4585C33.1235 18.3098 32.819 15.1238 32.5504 12.7421C32.4162 11.5527 32.288 10.534 32.1669 9.80467C32.1076 9.44735 32.0432 9.11624 31.9703 8.85749C31.9368 8.73803 31.8825 8.56372 31.7952 8.39451C31.7535 8.31359 31.6684 8.1622 31.5219 8.01355C31.3811 7.87069 31.0462 7.59578 30.5319 7.59578V10.2766ZM34.2553 35.5958C34.7331 35.5958 35.1038 35.3929 35.326 35.238C35.5604 35.0746 35.7593 34.8736 35.9213 34.6867C36.2463 34.3116 36.5652 33.8257 36.8641 33.3194C37.4676 32.2971 38.1195 30.9667 38.721 29.7171C39.3376 28.4366 39.8978 27.2492 40.3534 26.4159C40.5881 25.9864 40.7497 25.7371 40.839 25.6285C40.8995 25.5551 40.8369 25.6571 40.6552 25.7511C40.5492 25.8061 40.3306 25.8951 40.0367 25.8737C39.7117 25.8498 39.4447 25.7021 39.2649 25.5223L41.1606 23.6267C40.9343 23.4004 40.6147 23.2278 40.232 23.1998C39.8803 23.1742 39.5984 23.2795 39.4237 23.3699C39.105 23.5348 38.8847 23.7845 38.7691 23.9248C38.5065 24.2439 38.2434 24.6868 38.001 25.13C37.5024 26.0421 36.8991 27.3215 36.3056 28.5542C35.697 29.8179 35.0922 31.0473 34.5554 31.9565C34.2842 32.4161 34.062 32.7387 33.8955 32.931C33.8116 33.0277 33.7771 33.0499 33.7929 33.0388C33.7966 33.0363 33.9637 32.9149 34.2553 32.9149V35.5958ZM40.2128 25.9149C40.2142 25.9149 40.2157 25.9149 40.2172 25.9149C40.2187 25.9149 40.2202 25.9149 40.2217 25.9149C40.2232 25.9149 40.2247 25.9149 40.2262 25.9149C40.2278 25.9149 40.2293 25.9149 40.2309 25.9149C40.2324 25.9149 40.2341 25.9149 40.2357 25.9149C40.2372 25.9149 40.2388 25.9149 40.2405 25.9149C40.2421 25.9149 40.2437 25.9149 40.2454 25.9149C40.247 25.9149 40.2486 25.9149 40.2504 25.9149C40.2521 25.9149 40.2537 25.9149 40.2555 25.9149C40.2571 25.9149 40.2589 25.9149 40.2606 25.9149C40.2624 25.9149 40.2641 25.9149 40.2658 25.9149C40.2676 25.9149 40.2693 25.9149 40.2711 25.9149C40.2729 25.9149 40.2747 25.9149 40.2765 25.9149C40.2784 25.9149 40.2802 25.9149 40.282 25.9149C40.2839 25.9149 40.2857 25.9149 40.2877 25.9149C40.2895 25.9149 40.2914 25.9149 40.2933 25.9149C40.2951 25.9149 40.2971 25.9149 40.299 25.9149C40.3009 25.9149 40.3029 25.9149 40.3048 25.9149C40.3067 25.9149 40.3087 25.9149 40.3108 25.9149C40.3127 25.9149 40.3146 25.9149 40.3167 25.9149C40.3186 25.9149 40.3207 25.9149 40.3227 25.9149C40.3248 25.9149 40.3268 25.9149 40.3288 25.9149C40.3309 25.9149 40.3329 25.9149 40.335 25.9149C40.3371 25.9149 40.3392 25.9149 40.3413 25.9149C40.3434 25.9149 40.3456 25.9149 40.3477 25.9149C40.3498 25.9149 40.352 25.9149 40.3541 25.9149C40.3563 25.9149 40.3584 25.9149 40.3606 25.9149C40.3629 25.9149 40.365 25.9149 40.3672 25.9149C40.3694 25.9149 40.3717 25.9149 40.3739 25.9149C40.3761 25.9149 40.3784 25.9149 40.3806 25.9149C40.383 25.9149 40.3852 25.9149 40.3875 25.9149C40.3898 25.9149 40.3921 25.9149 40.3943 25.9149C40.3967 25.9149 40.3991 25.9149 40.4013 25.9149C40.4037 25.9149 40.4061 25.9149 40.4085 25.9149C40.4108 25.9149 40.4131 25.9149 40.4155 25.9149C40.418 25.9149 40.4204 25.9149 40.4228 25.9149C40.4251 25.9149 40.4275 25.9149 40.4301 25.9149C40.4324 25.9149 40.4348 25.9149 40.4374 25.9149C40.4399 25.9149 40.4423 25.9149 40.4448 25.9149C40.4473 25.9149 40.4497 25.9149 40.4522 25.9149C40.4548 25.9149 40.4573 25.9149 40.4598 25.9149C40.4624 25.9149 40.4649 25.9149 40.4674 25.9149C40.47 25.9149 40.4726 25.9149 40.4752 25.9149C40.4777 25.9149 40.4804 25.9149 40.4829 25.9149C40.4856 25.9149 40.4881 25.9149 40.4908 25.9149C40.4935 25.9149 40.4962 25.9149 40.4987 25.9149C40.5014 25.9149 40.5041 25.9149 40.5068 25.9149C40.5094 25.9149 40.5121 25.9149 40.5148 25.9149C40.5175 25.9149 40.5203 25.9149 40.523 25.9149C40.5257 25.9149 40.5285 25.9149 40.5312 25.9149C40.534 25.9149 40.5367 25.9149 40.5395 25.9149C40.5422 25.9149 40.545 25.9149 40.5479 25.9149C40.5507 25.9149 40.5535 25.9149 40.5562 25.9149C40.559 25.9149 40.5619 25.9149 40.5648 25.9149C40.5677 25.9149 40.5705 25.9149 40.5733 25.9149C40.5762 25.9149 40.5791 25.9149 40.582 25.9149C40.5848 25.9149 40.5878 25.9149 40.5906 25.9149C40.5936 25.9149 40.5966 25.9149 40.5994 25.9149C40.6024 25.9149 40.6054 25.9149 40.6083 25.9149C40.6112 25.9149 40.6141 25.9149 40.6171 25.9149C40.6201 25.9149 40.6231 25.9149 40.6262 25.9149C40.6292 25.9149 40.6322 25.9149 40.6351 25.9149C40.6383 25.9149 40.6412 25.9149 40.6442 25.9149C40.6474 25.9149 40.6503 25.9149 40.6535 25.9149C40.6566 25.9149 40.6596 25.9149 40.6627 25.9149C40.6658 25.9149 40.6689 25.9149 40.6719 25.9149C40.6751 25.9149 40.6782 25.9149 40.6813 25.9149C40.6844 25.9149 40.6877 25.9149 40.6908 25.9149C40.694 25.9149 40.6971 25.9149 40.7002 25.9149C40.7035 25.9149 40.7066 25.9149 40.7099 25.9149C40.713 25.9149 40.7163 25.9149 40.7194 25.9149C40.7227 25.9149 40.726 25.9149 40.7291 25.9149C40.7324 25.9149 40.7357 25.9149 40.7389 25.9149C40.7422 25.9149 40.7455 25.9149 40.7488 25.9149C40.7521 25.9149 40.7553 25.9149 40.7586 25.9149C40.7619 25.9149 40.7653 25.9149 40.7686 25.9149C40.7719 25.9149 40.7753 25.9149 40.7786 25.9149C40.782 25.9149 40.7853 25.9149 40.7887 25.9149C40.792 25.9149 40.7954 25.9149 40.7988 25.9149C40.8021 25.9149 40.8055 25.9149 40.8089 25.9149C40.8124 25.9149 40.8158 25.9149 40.8192 25.9149C40.8226 25.9149 40.8261 25.9149 40.8295 25.9149C40.8329 25.9149 40.8365 25.9149 40.8399 25.9149C40.8433 25.9149 40.8469 25.9149 40.8503 25.9149C40.8538 25.9149 40.8573 25.9149 40.8608 25.9149C40.8643 25.9149 40.8679 25.9149 40.8713 25.9149C40.8749 25.9149 40.8785 25.9149 40.8821 25.9149C40.8855 25.9149 40.8891 25.9149 40.8926 25.9149C40.8962 25.9149 40.8998 25.9149 40.9034 25.9149C40.9069 25.9149 40.9107 25.9149 40.9142 25.9149C40.9178 25.9149 40.9214 25.9149 40.9251 25.9149C40.9287 25.9149 40.9323 25.9149 40.936 25.9149C40.9396 25.9149 40.9433 25.9149 40.9469 25.9149C40.9506 25.9149 40.9543 25.9149 40.9579 25.9149C40.9616 25.9149 40.9653 25.9149 40.9691 25.9149C40.9728 25.9149 40.9765 25.9149 40.9802 25.9149C40.9839 25.9149 40.9877 25.9149 40.9914 25.9149C40.9951 25.9149 40.9988 25.9149 41.0026 25.9149C41.0063 25.9149 41.0102 25.9149 41.0139 25.9149C41.0178 25.9149 41.0215 25.9149 41.0252 25.9149C41.0291 25.9149 41.0328 25.9149 41.0367 25.9149C41.0405 25.9149 41.0443 25.9149 41.0481 25.9149C41.052 25.9149 41.0559 25.9149 41.0596 25.9149C41.0635 25.9149 41.0673 25.9149 41.0712 25.9149C41.0751 25.9149 41.079 25.9149 41.0828 25.9149C41.0867 25.9149 41.0907 25.9149 41.0946 25.9149C41.0985 25.9149 41.1023 25.9149 41.1064 25.9149C41.1102 25.9149 41.1141 25.9149 41.1181 25.9149C41.122 25.9149 41.126 25.9149 41.1299 25.9149C41.1339 25.9149 41.1379 25.9149 41.1418 25.9149C41.1458 25.9149 41.1499 25.9149 41.1537 25.9149C41.1578 25.9149 41.1618 25.9149 41.1658 25.9149C41.1698 25.9149 41.1738 25.9149 41.1779 25.9149C41.1819 25.9149 41.1859 25.9149 41.1899 25.9149C41.1939 25.9149 41.1981 25.9149 41.2021 25.9149C41.2062 25.9149 41.2103 25.9149 41.2144 25.9149C41.2184 25.9149 41.2225 25.9149 41.2266 25.9149C41.2307 25.9149 41.2348 25.9149 41.2389 25.9149C41.2429 25.9149 41.2471 25.9149 41.2513 25.9149C41.2555 25.9149 41.2595 25.9149 41.2636 25.9149C41.2678 25.9149 41.272 25.9149 41.2762 25.9149C41.2803 25.9149 41.2845 25.9149 41.2887 25.9149C41.2928 25.9149 41.297 25.9149 41.3012 25.9149C41.3054 25.9149 41.3095 25.9149 41.3138 25.9149C41.318 25.9149 41.3222 25.9149 41.3265 25.9149C41.3307 25.9149 41.3348 25.9149 41.3392 25.9149C41.3433 25.9149 41.3476 25.9149 41.3518 25.9149C41.3561 25.9149 41.3605 25.9149 41.3646 25.9149C41.3689 25.9149 41.3733 25.9149 41.3776 25.9149C41.3818 25.9149 41.3861 25.9149 41.3904 25.9149C41.3947 25.9149 41.399 25.9149 41.4034 25.9149C41.4077 25.9149 41.412 25.9149 41.4163 25.9149C41.4206 25.9149 41.4249 25.9149 41.4294 25.9149C41.4337 25.9149 41.438 25.9149 41.4424 25.9149C41.4468 25.9149 41.4512 25.9149 41.4555 25.9149C41.4599 25.9149 41.4643 25.9149 41.4687 25.9149C41.473 25.9149 41.4775 25.9149 41.4818 25.9149C41.4863 25.9149 41.4908 25.9149 41.4951 25.9149C41.4996 25.9149 41.504 25.9149 41.5085 25.9149C41.5128 25.9149 41.5173 25.9149 41.5218 25.9149C41.5262 25.9149 41.5307 25.9149 41.5352 25.9149C41.5396 25.9149 41.5441 25.9149 41.5486 25.9149C41.553 25.9149 41.5575 25.9149 41.5621 25.9149C41.5666 25.9149 41.5711 25.9149 41.5755 25.9149C41.5801 25.9149 41.5846 25.9149 41.5891 25.9149C41.5937 25.9149 41.5982 25.9149 41.6026 25.9149C41.6072 25.9149 41.6117 25.9149 41.6163 25.9149C41.6209 25.9149 41.6254 25.9149 41.63 25.9149C41.6345 25.9149 41.6391 25.9149 41.6437 25.9149C41.6483 25.9149 41.6528 25.9149 41.6574 25.9149C41.662 25.9149 41.6667 25.9149 41.6713 25.9149C41.6759 25.9149 41.6805 25.9149 41.6851 25.9149C41.6898 25.9149 41.6944 25.9149 41.699 25.9149C41.7036 25.9149 41.7082 25.9149 41.7128 25.9149C41.7176 25.9149 41.7222 25.9149 41.7268 25.9149C41.7315 25.9149 41.7362 25.9149 41.7408 25.9149C41.7455 25.9149 41.7502 25.9149 41.7548 25.9149C41.7596 25.9149 41.7642 25.9149 41.769 25.9149C41.7736 25.9149 41.7784 25.9149 41.783 25.9149C41.7878 25.9149 41.7925 25.9149 41.7971 25.9149C41.8019 25.9149 41.8067 25.9149 41.8114 25.9149C41.8161 25.9149 41.8208 25.9149 41.8256 25.9149C41.8303 25.9149 41.8351 25.9149 41.8399 25.9149C41.8446 25.9149 41.8494 25.9149 41.8542 25.9149C41.8589 25.9149 41.8637 25.9149 41.8685 25.9149C41.8732 25.9149 41.878 25.9149 41.8828 25.9149C41.8877 25.9149 41.8925 25.9149 41.8972 25.9149C41.902 25.9149 41.9069 25.9149 41.9117 25.9149C41.9164 25.9149 41.9213 25.9149 41.9261 25.9149C41.931 25.9149 41.9358 25.9149 41.9407 25.9149C41.9455 25.9149 41.9504 25.9149 41.9552 25.9149C41.9601 25.9149 41.9648 25.9149 41.9698 25.9149C41.9747 25.9149 41.9794 25.9149 41.9844 25.9149C41.9893 25.9149 41.9942 25.9149 41.9989 25.9149C42.0039 25.9149 42.0088 25.9149 42.0137 25.9149C42.0186 25.9149 42.0235 25.9149 42.0284 25.9149C42.0334 25.9149 42.0383 25.9149 42.0432 25.9149C42.0481 25.9149 42.053 25.9149 42.0579 25.9149C42.0628 25.9149 42.0678 25.9149 42.0727 25.9149C42.0776 25.9149 42.0826 25.9149 42.0876 25.9149C42.0925 25.9149 42.0974 25.9149 42.1025 25.9149C42.1074 25.9149 42.1123 25.9149 42.1173 25.9149C42.1223 25.9149 42.1272 25.9149 42.1322 25.9149C42.1372 25.9149 42.1422 25.9149 42.1471 25.9149C42.1522 25.9149 42.1571 25.9149 42.1622 25.9149C42.1672 25.9149 42.1722 25.9149 42.1772 25.9149C42.1821 25.9149 42.1872 25.9149 42.1923 25.9149C42.1972 25.9149 42.2022 25.9149 42.2073 25.9149C42.2124 25.9149 42.2174 25.9149 42.2224 25.9149C42.2274 25.9149 42.2325 25.9149 42.2375 25.9149C42.2426 25.9149 42.2477 25.9149 42.2527 25.9149C42.2578 25.9149 42.2629 25.9149 42.2679 25.9149C42.273 25.9149 42.2781 25.9149 42.2831 25.9149C42.2882 25.9149 42.2932 25.9149 42.2983 25.9149C42.3035 25.9149 42.3086 25.9149 42.3136 25.9149C42.3187 25.9149 42.3238 25.9149 42.329 25.9149C42.3341 25.9149 42.3391 25.9149 42.3443 25.9149C42.3494 25.9149 42.3545 25.9149 42.3597 25.9149C42.3647 25.9149 42.3698 25.9149 42.375 25.9149C42.3801 25.9149 42.3853 25.9149 42.3903 25.9149C42.3956 25.9149 42.4006 25.9149 42.4058 25.9149C42.4109 25.9149 42.4161 25.9149 42.4213 25.9149C42.4264 25.9149 42.4316 25.9149 42.4368 25.9149C42.4419 25.9149 42.4471 25.9149 42.4523 25.9149C42.4574 25.9149 42.4626 25.9149 42.4678 25.9149C42.473 25.9149 42.4781 25.9149 42.4833 25.9149C42.4885 25.9149 42.4937 25.9149 42.4989 25.9149C42.5041 25.9149 42.5093 25.9149 42.5146 25.9149C42.5196 25.9149 42.5248 25.9149 42.5301 25.9149C42.5353 25.9149 42.5405 25.9149 42.5457 25.9149C42.5509 25.9149 42.5563 25.9149 42.5615 25.9149C42.5667 25.9149 42.5719 25.9149 42.5771 25.9149C42.5823 25.9149 42.5875 25.9149 42.5928 25.9149C42.5981 25.9149 42.6033 25.9149 42.6085 25.9149C42.6138 25.9149 42.6191 25.9149 42.6243 25.9149C42.6295 25.9149 42.6348 25.9149 42.6401 25.9149C42.6453 25.9149 42.6505 25.9149 42.6559 25.9149C42.6611 25.9149 42.6663 25.9149 42.6717 25.9149C42.6769 25.9149 42.6823 25.9149 42.6875 25.9149C42.6928 25.9149 42.6981 25.9149 42.7034 25.9149C42.7086 25.9149 42.714 25.9149 42.7192 25.9149C42.7246 25.9149 42.7298 25.9149 42.7351 25.9149C42.7403 25.9149 42.7457 25.9149 42.7511 25.9149C42.7563 25.9149 42.7616 25.9149 42.767 25.9149C42.7722 25.9149 42.7776 25.9149 42.7829 25.9149C42.7882 25.9149 42.7935 25.9149 42.7989 25.9149C42.8042 25.9149 42.8095 25.9149 42.8148 25.9149C42.8202 25.9149 42.8255 25.9149 42.8309 25.9149C42.8361 25.9149 42.8415 25.9149 42.8468 25.9149C42.8522 25.9149 42.8576 25.9149 42.8629 25.9149C42.8683 25.9149 42.8736 25.9149 42.879 25.9149C42.8842 25.9149 42.8896 25.9149 42.8949 25.9149C42.9003 25.9149 42.9057 25.9149 42.911 25.9149C42.9164 25.9149 42.9218 25.9149 42.9271 25.9149C42.9325 25.9149 42.938 25.9149 42.9434 25.9149C42.9487 25.9149 42.9541 25.9149 42.9594 25.9149C42.9648 25.9149 42.9702 25.9149 42.9755 25.9149C42.9809 25.9149 42.9864 25.9149 42.9918 25.9149C42.9971 25.9149 43.0025 25.9149 43.0078 25.9149C43.0132 25.9149 43.0187 25.9149 43.0241 25.9149C43.0294 25.9149 43.0348 25.9149 43.0403 25.9149C43.0457 25.9149 43.051 25.9149 43.0564 25.9149C43.0619 25.9149 43.0673 25.9149 43.0726 25.9149C43.0781 25.9149 43.0835 25.9149 43.0889 25.9149C43.0944 25.9149 43.0997 25.9149 43.1051 25.9149C43.1106 25.9149 43.116 25.9149 43.1215 25.9149C43.1268 25.9149 43.1322 25.9149 43.1377 25.9149C43.1431 25.9149 43.1486 25.9149 43.1539 25.9149C43.1595 25.9149 43.1648 25.9149 43.1702 25.9149C43.1757 25.9149 43.1811 25.9149 43.1866 25.9149C43.1919 25.9149 43.1974 25.9149 43.2028 25.9149C43.2083 25.9149 43.2137 25.9149 43.2192 25.9149C43.2247 25.9149 43.2301 25.9149 43.2356 25.9149C43.2409 25.9149 43.2464 25.9149 43.2518 25.9149C43.2573 25.9149 43.2628 25.9149 43.2682 25.9149C43.2737 25.9149 43.2791 25.9149 43.2846 25.9149C43.2901 25.9149 43.2954 25.9149 43.3009 25.9149C43.3065 25.9149 43.3118 25.9149 43.3173 25.9149C43.3227 25.9149 43.3282 25.9149 43.3337 25.9149C43.3392 25.9149 43.3446 25.9149 43.3501 25.9149C43.3556 25.9149 43.361 25.9149 43.3665 25.9149C43.372 25.9149 43.3773 25.9149 43.3829 25.9149C43.3884 25.9149 43.3939 25.9149 43.3992 25.9149C43.4048 25.9149 43.4103 25.9149 43.4158 25.9149C43.4211 25.9149 43.4266 25.9149 43.4322 25.9149C43.4377 25.9149 43.443 25.9149 43.4485 25.9149C43.4541 25.9149 43.4596 25.9149 43.4651 25.9149C43.4704 25.9149 43.4759 25.9149 43.4815 25.9149C43.487 25.9149 43.4925 25.9149 43.4978 25.9149C43.5033 25.9149 43.5089 25.9149 43.5144 25.9149C43.5199 25.9149 43.5252 25.9149 43.5308 25.9149C43.5363 25.9149 43.5418 25.9149 43.5473 25.9149C43.5528 25.9149 43.5582 25.9149 43.5637 25.9149C43.5692 25.9149 43.5747 25.9149 43.5802 25.9149C43.5857 25.9149 43.5912 25.9149 43.5966 25.9149C43.6021 25.9149 43.6076 25.9149 43.6131 25.9149C43.6186 25.9149 43.6241 25.9149 43.6297 25.9149C43.6352 25.9149 43.6405 25.9149 43.646 25.9149C43.6515 25.9149 43.6571 25.9149 43.6626 25.9149C43.6681 25.9149 43.6736 25.9149 43.6791 25.9149C43.6845 25.9149 43.69 25.9149 43.6955 25.9149C43.701 25.9149 43.7065 25.9149 43.712 25.9149C43.7175 25.9149 43.723 25.9149 43.7285 25.9149C43.7339 25.9149 43.7394 25.9149 43.7449 25.9149C43.7504 25.9149 43.7559 25.9149 43.7615 25.9149C43.767 25.9149 43.7725 25.9149 43.778 25.9149C43.7834 25.9149 43.7889 25.9149 43.7944 25.9149C43.7999 25.9149 43.8054 25.9149 43.8109 25.9149C43.8164 25.9149 43.8219 25.9149 43.8274 25.9149C43.8328 25.9149 43.8383 25.9149 43.8438 25.9149C43.8493 25.9149 43.8548 25.9149 43.8604 25.9149C43.8659 25.9149 43.8714 25.9149 43.8769 25.9149C43.8822 25.9149 43.8878 25.9149 43.8933 25.9149C43.8988 25.9149 43.9043 25.9149 43.9098 25.9149C43.9153 25.9149 43.9207 25.9149 43.9262 25.9149C43.9317 25.9149 43.9372 25.9149 43.9427 25.9149C43.9482 25.9149 43.9537 25.9149 43.9591 25.9149C43.9646 25.9149 43.9701 25.9149 43.9756 25.9149C43.9811 25.9149 43.9866 25.9149 43.992 25.9149C43.9975 25.9149 44.003 25.9149 44.0085 25.9149C44.014 25.9149 44.0194 25.9149 44.0249 25.9149C44.0304 25.9149 44.0359 25.9149 44.0415 25.9149C44.0468 25.9149 44.0523 25.9149 44.0578 25.9149C44.0633 25.9149 44.0689 25.9149 44.0742 25.9149C44.0797 25.9149 44.0852 25.9149 44.0908 25.9149C44.0961 25.9149 44.1016 25.9149 44.1071 25.9149C44.1126 25.9149 44.118 25.9149 44.1235 25.9149C44.129 25.9149 44.1344 25.9149 44.1399 25.9149C44.1454 25.9149 44.1509 25.9149 44.1563 25.9149C44.1618 25.9149 44.1673 25.9149 44.1727 25.9149C44.1782 25.9149 44.1837 25.9149 44.1891 25.9149C44.1946 25.9149 44.2001 25.9149 44.2054 25.9149C44.2109 25.9149 44.2163 25.9149 44.2218 25.9149C44.2273 25.9149 44.2327 25.9149 44.2382 25.9149C44.2436 25.9149 44.2491 25.9149 44.2546 25.9149C44.2599 25.9149 44.2655 25.9149 44.2708 25.9149C44.2763 25.9149 44.2817 25.9149 44.2872 25.9149C44.2927 25.9149 44.2981 25.9149 44.3036 25.9149C44.3089 25.9149 44.3145 25.9149 44.3198 25.9149C44.3253 25.9149 44.3307 25.9149 44.3362 25.9149C44.3416 25.9149 44.3469 25.9149 44.3524 25.9149C44.3578 25.9149 44.3633 25.9149 44.3687 25.9149C44.3742 25.9149 44.3795 25.9149 44.3849 25.9149C44.3904 25.9149 44.3958 25.9149 44.4013 25.9149C44.4066 25.9149 44.412 25.9149 44.4175 25.9149C44.4229 25.9149 44.4282 25.9149 44.4338 25.9149C44.4391 25.9149 44.4445 25.9149 44.45 25.9149C44.4553 25.9149 44.4607 25.9149 44.4661 25.9149C44.4716 25.9149 44.4769 25.9149 44.4823 25.9149C44.4877 25.9149 44.493 25.9149 44.4985 25.9149C44.5039 25.9149 44.5093 25.9149 44.5146 25.9149C44.52 25.9149 44.5255 25.9149 44.5309 25.9149C44.5362 25.9149 44.5416 25.9149 44.5469 25.9149C44.5523 25.9149 44.5577 25.9149 44.563 25.9149C44.5684 25.9149 44.5738 25.9149 44.5791 25.9149C44.5845 25.9149 44.59 25.9149 44.5953 25.9149C44.6007 25.9149 44.6059 25.9149 44.6113 25.9149C44.6166 25.9149 44.622 25.9149 44.6274 25.9149C44.6327 25.9149 44.6381 25.9149 44.6435 25.9149C44.6488 25.9149 44.6542 25.9149 44.6595 25.9149C44.6649 25.9149 44.6701 25.9149 44.6755 25.9149C44.6808 25.9149 44.6862 25.9149 44.6916 25.9149C44.6968 25.9149 44.7021 25.9149 44.7075 25.9149C44.7129 25.9149 44.7181 25.9149 44.7234 25.9149C44.7288 25.9149 44.734 25.9149 44.7394 25.9149C44.7447 25.9149 44.7499 25.9149 44.7553 25.9149C44.7607 25.9149 44.7659 25.9149 44.7712 25.9149C44.7765 25.9149 44.7818 25.9149 44.7872 25.9149C44.7924 25.9149 44.7978 25.9149 44.803 25.9149C44.8083 25.9149 44.8135 25.9149 44.8188 25.9149C44.8241 25.9149 44.8293 25.9149 44.8347 25.9149C44.8399 25.9149 44.8453 25.9149 44.8505 25.9149C44.8557 25.9149 44.861 25.9149 44.8663 25.9149C44.8715 25.9149 44.8768 25.9149 44.882 25.9149C44.8873 25.9149 44.8925 25.9149 44.8978 25.9149C44.9031 25.9149 44.9083 25.9149 44.9135 25.9149C44.9187 25.9149 44.9239 25.9149 44.9293 25.9149C44.9345 25.9149 44.9397 25.9149 44.9449 25.9149C44.9501 25.9149 44.9553 25.9149 44.9605 25.9149C44.9658 25.9149 44.971 25.9149 44.9762 25.9149C44.9814 25.9149 44.9866 25.9149 44.9918 25.9149C44.997 25.9149 45.0022 25.9149 45.0075 25.9149C45.0127 25.9149 45.0177 25.9149 45.0229 25.9149C45.0282 25.9149 45.0334 25.9149 45.0386 25.9149C45.0436 25.9149 45.0489 25.9149 45.0541 25.9149C45.0593 25.9149 45.0644 25.9149 45.0696 25.9149C45.0748 25.9149 45.0798 25.9149 45.0851 25.9149C45.0901 25.9149 45.0953 25.9149 45.1005 25.9149C45.1056 25.9149 45.1108 25.9149 45.1159 25.9149C45.1211 25.9149 45.1262 25.9149 45.1314 25.9149C45.1364 25.9149 45.1415 25.9149 45.1467 25.9149C45.1518 25.9149 45.1568 25.9149 45.162 25.9149C45.1671 25.9149 45.1722 25.9149 45.1774 25.9149C45.1825 25.9149 45.1875 25.9149 45.1926 25.9149C45.1978 25.9149 45.2029 25.9149 45.2079 25.9149C45.213 25.9149 45.2181 25.9149 45.2231 25.9149C45.2282 25.9149 45.2332 25.9149 45.2383 25.9149C45.2434 25.9149 45.2484 25.9149 45.2535 25.9149C45.2586 25.9149 45.2636 25.9149 45.2687 25.9149C45.2738 25.9149 45.2788 25.9149 45.2839 25.9149C45.2889 25.9149 45.2939 25.9149 45.2989 25.9149C45.304 25.9149 45.3091 25.9149 45.314 25.9149C45.319 25.9149 45.3241 25.9149 45.329 25.9149C45.3341 25.9149 45.3391 25.9149 45.3441 25.9149C45.3491 25.9149 45.354 25.9149 45.3591 25.9149C45.364 25.9149 45.3691 25.9149 45.374 25.9149C45.3791 25.9149 45.384 25.9149 45.3889 25.9149C45.3939 25.9149 45.3989 25.9149 45.4038 25.9149C45.4088 25.9149 45.4138 25.9149 45.4187 25.9149C45.4236 25.9149 45.4286 25.9149 45.4336 25.9149C45.4385 25.9149 45.4434 25.9149 45.4483 25.9149C45.4532 25.9149 45.4581 25.9149 45.4631 25.9149C45.468 25.9149 45.4729 25.9149 45.4778 25.9149C45.4827 25.9149 45.4876 25.9149 45.4925 25.9149C45.4975 25.9149 45.5024 25.9149 45.5071 25.9149C45.5121 25.9149 45.517 25.9149 45.5219 25.9149C45.5266 25.9149 45.5316 25.9149 45.5365 25.9149C45.5412 25.9149 45.5462 25.9149 45.5509 25.9149C45.5558 25.9149 45.5608 25.9149 45.5655 25.9149C45.5704 25.9149 45.5752 25.9149 45.58 25.9149C45.5849 25.9149 45.5896 25.9149 45.5946 25.9149C45.5993 25.9149 45.6041 25.9149 45.6089 25.9149C45.6138 25.9149 45.6185 25.9149 45.6233 25.9149C45.6281 25.9149 45.6328 25.9149 45.6378 25.9149C45.6425 25.9149 45.6473 25.9149 45.6521 25.9149C45.6568 25.9149 45.6616 25.9149 45.6663 25.9149C45.6711 25.9149 45.6759 25.9149 45.6805 25.9149C45.6853 25.9149 45.69 25.9149 45.6948 25.9149C45.6996 25.9149 45.7042 25.9149 45.7089 25.9149C45.7137 25.9149 45.7183 25.9149 45.7231 25.9149C45.7279 25.9149 45.7325 25.9149 45.7372 25.9149C45.7419 25.9149 45.7466 25.9149 45.7512 25.9149C45.756 25.9149 45.7606 25.9149 45.7652 25.9149C45.77 25.9149 45.7746 25.9149 45.7792 25.9149C45.7839 25.9149 45.7886 25.9149 45.7932 25.9149C45.7979 25.9149 45.8025 25.9149 45.8071 25.9149C45.8117 25.9149 45.8163 25.9149 45.8209 25.9149C45.8256 25.9149 45.8302 25.9149 45.8348 25.9149C45.8394 25.9149 45.844 25.9149 45.8486 25.9149C45.8533 25.9149 45.8577 25.9149 45.8624 25.9149C45.867 25.9149 45.8716 25.9149 45.876 25.9149C45.8807 25.9149 45.8851 25.9149 45.8898 25.9149C45.8944 25.9149 45.8988 25.9149 45.9035 25.9149C45.9079 25.9149 45.9124 25.9149 45.917 25.9149C45.9215 25.9149 45.9259 25.9149 45.9306 25.9149C45.935 25.9149 45.9395 25.9149 45.944 25.9149C45.9486 25.9149 45.9531 25.9149 45.9575 25.9149C45.962 25.9149 45.9665 25.9149 45.9709 25.9149C45.9754 25.9149 45.9799 25.9149 45.9843 25.9149C45.9888 25.9149 45.9931 25.9149 45.9976 25.9149C46.0021 25.9149 46.0065 25.9149 46.0108 25.9149C46.0153 25.9149 46.0198 25.9149 46.0241 25.9149C46.0286 25.9149 46.0329 25.9149 46.0373 25.9149C46.0417 25.9149 46.0461 25.9149 46.0505 25.9149C46.0549 25.9149 46.0592 25.9149 46.0636 25.9149C46.068 25.9149 46.0723 25.9149 46.0767 25.9149C46.081 25.9149 46.0853 25.9149 46.0896 25.9149C46.0941 25.9149 46.0984 25.9149 46.1027 25.9149C46.1071 25.9149 46.1112 25.9149 46.1155 25.9149C46.1199 25.9149 46.1242 25.9149 46.1285 25.9149C46.1328 25.9149 46.137 25.9149 46.1413 25.9149C46.1456 25.9149 46.1498 25.9149 46.1541 25.9149C46.1583 25.9149 46.1626 25.9149 46.1668 25.9149C46.1711 25.9149 46.1753 25.9149 46.1796 25.9149C46.1838 25.9149 46.1879 25.9149 46.1922 25.9149C46.1964 25.9149 46.2006 25.9149 46.2048 25.9149C46.2089 25.9149 46.2131 25.9149 46.2173 25.9149C46.2214 25.9149 46.2256 25.9149 46.2298 25.9149C46.2339 25.9149 46.2381 25.9149 46.2423 25.9149C46.2465 25.9149 46.2506 25.9149 46.2546 25.9149C46.2588 25.9149 46.263 25.9149 46.267 25.9149C46.2712 25.9149 46.2752 25.9149 46.2794 25.9149C46.2834 25.9149 46.2876 25.9149 46.2916 25.9149C46.2956 25.9149 46.2998 25.9149 46.3038 25.9149C46.3078 25.9149 46.3118 25.9149 46.316 25.9149C46.32 25.9149 46.3241 25.9149 46.3281 25.9149C46.3321 25.9149 46.3361 25.9149 46.3401 25.9149C46.3442 25.9149 46.3482 25.9149 46.3521 25.9149C46.3561 25.9149 46.3601 25.9149 46.3641 25.9149C46.368 25.9149 46.372 25.9149 46.3759 25.9149C46.3799 25.9149 46.3838 25.9149 46.3878 25.9149C46.3917 25.9149 46.3957 25.9149 46.3996 25.9149C46.4034 25.9149 46.4075 25.9149 46.4113 25.9149C46.4152 25.9149 46.4191 25.9149 46.4229 25.9149C46.4268 25.9149 46.4307 25.9149 46.4346 25.9149C46.4384 25.9149 46.4423 25.9149 46.4462 25.9149C46.4501 25.9149 46.4539 25.9149 46.4576 25.9149C46.4615 25.9149 46.4654 25.9149 46.4691 25.9149C46.473 25.9149 46.4767 25.9149 46.4806 25.9149C46.4843 25.9149 46.4882 25.9149 46.4919 25.9149C46.4958 25.9149 46.4995 25.9149 46.5032 25.9149C46.5069 25.9149 46.5107 25.9149 46.5144 25.9149C46.5183 25.9149 46.522 25.9149 46.5257 25.9149C46.5294 25.9149 46.533 25.9149 46.5367 25.9149C46.5405 25.9149 46.5442 25.9149 46.5479 25.9149C46.5515 25.9149 46.5552 25.9149 46.5589 25.9149C46.5625 25.9149 46.5662 25.9149 46.5698 25.9149C46.5735 25.9149 46.5771 25.9149 46.5807 25.9149C46.5844 25.9149 46.588 25.9149 46.5915 25.9149C46.5951 25.9149 46.5988 25.9149 46.6024 25.9149C46.606 25.9149 46.6096 25.9149 46.6131 25.9149C46.6167 25.9149 46.6201 25.9149 46.6237 25.9149C46.6273 25.9149 46.6309 25.9149 46.6343 25.9149C46.6379 25.9149 46.6414 25.9149 46.6449 25.9149C46.6484 25.9149 46.6519 25.9149 46.6554 25.9149C46.6589 25.9149 46.6623 25.9149 46.6659 25.9149C46.6693 25.9149 46.6727 25.9149 46.6761 25.9149C46.6796 25.9149 46.6831 25.9149 46.6866 25.9149C46.69 25.9149 46.6933 25.9149 46.6967 25.9149C46.7001 25.9149 46.7035 25.9149 46.707 25.9149C46.7102 25.9149 46.7137 25.9149 46.7171 25.9149C46.7204 25.9149 46.7238 25.9149 46.7271 25.9149C46.7305 25.9149 46.7338 25.9149 46.7371 25.9149C46.7405 25.9149 46.7438 25.9149 46.747 25.9149C46.7503 25.9149 46.7536 25.9149 46.7569 25.9149C46.7601 25.9149 46.7634 25.9149 46.7667 25.9149C46.77 25.9149 46.7732 25.9149 46.7765 25.9149C46.7796 25.9149 46.7829 25.9149 46.7862 25.9149C46.7893 25.9149 46.7926 25.9149 46.7957 25.9149C46.799 25.9149 46.8021 25.9149 46.8053 25.9149C46.8085 25.9149 46.8117 25.9149 46.8148 25.9149C46.8179 25.9149 46.821 25.9149 46.8243 25.9149C46.8275 25.9149 46.8304 25.9149 46.8336 25.9149C46.8367 25.9149 46.8398 25.9149 46.8429 25.9149C46.8461 25.9149 46.849 25.9149 46.8522 25.9149C46.8552 25.9149 46.8583 25.9149 46.8613 25.9149C46.8644 25.9149 46.8674 25.9149 46.8703 25.9149C46.8735 25.9149 46.8765 25.9149 46.8794 25.9149C46.8824 25.9149 46.8854 25.9149 46.8884 25.9149C46.8913 25.9149 46.8943 25.9149 46.8973 25.9149C46.9003 25.9149 46.9031 25.9149 46.9061 25.9149C46.9091 25.9149 46.9119 25.9149 46.9149 25.9149V23.2341C46.9119 23.2341 46.9091 23.2341 46.9061 23.2341C46.9031 23.2341 46.9003 23.2341 46.8973 23.2341C46.8943 23.2341 46.8913 23.2341 46.8884 23.2341C46.8854 23.2341 46.8824 23.2341 46.8794 23.2341C46.8765 23.2341 46.8735 23.2341 46.8703 23.2341C46.8674 23.2341 46.8644 23.2341 46.8613 23.2341C46.8583 23.2341 46.8552 23.2341 46.8522 23.2341C46.849 23.2341 46.8461 23.2341 46.8429 23.2341C46.8398 23.2341 46.8367 23.2341 46.8336 23.2341C46.8304 23.2341 46.8275 23.2341 46.8243 23.2341C46.821 23.2341 46.8179 23.2341 46.8148 23.2341C46.8117 23.2341 46.8085 23.2341 46.8053 23.2341C46.8021 23.2341 46.799 23.2341 46.7957 23.2341C46.7926 23.2341 46.7893 23.2341 46.7862 23.2341C46.7829 23.2341 46.7796 23.2341 46.7765 23.2341C46.7732 23.2341 46.77 23.2341 46.7667 23.2341C46.7634 23.2341 46.7601 23.2341 46.7569 23.2341C46.7536 23.2341 46.7503 23.2341 46.747 23.2341C46.7438 23.2341 46.7405 23.2341 46.7371 23.2341C46.7338 23.2341 46.7305 23.2341 46.7271 23.2341C46.7238 23.2341 46.7204 23.2341 46.7171 23.2341C46.7137 23.2341 46.7102 23.2341 46.707 23.2341C46.7035 23.2341 46.7001 23.2341 46.6967 23.2341C46.6933 23.2341 46.69 23.2341 46.6866 23.2341C46.6831 23.2341 46.6796 23.2341 46.6761 23.2341C46.6727 23.2341 46.6693 23.2341 46.6659 23.2341C46.6623 23.2341 46.6589 23.2341 46.6554 23.2341C46.6519 23.2341 46.6484 23.2341 46.6449 23.2341C46.6414 23.2341 46.6379 23.2341 46.6343 23.2341C46.6309 23.2341 46.6273 23.2341 46.6237 23.2341C46.6201 23.2341 46.6167 23.2341 46.6131 23.2341C46.6096 23.2341 46.606 23.2341 46.6024 23.2341C46.5988 23.2341 46.5951 23.2341 46.5915 23.2341C46.588 23.2341 46.5844 23.2341 46.5807 23.2341C46.5771 23.2341 46.5735 23.2341 46.5698 23.2341C46.5662 23.2341 46.5625 23.2341 46.5589 23.2341C46.5552 23.2341 46.5515 23.2341 46.5479 23.2341C46.5442 23.2341 46.5405 23.2341 46.5367 23.2341C46.533 23.2341 46.5294 23.2341 46.5257 23.2341C46.522 23.2341 46.5183 23.2341 46.5144 23.2341C46.5107 23.2341 46.5069 23.2341 46.5032 23.2341C46.4995 23.2341 46.4958 23.2341 46.4919 23.2341C46.4882 23.2341 46.4843 23.2341 46.4806 23.2341C46.4767 23.2341 46.473 23.2341 46.4691 23.2341C46.4654 23.2341 46.4615 23.2341 46.4576 23.2341C46.4539 23.2341 46.4501 23.2341 46.4462 23.2341C46.4423 23.2341 46.4384 23.2341 46.4346 23.2341C46.4307 23.2341 46.4268 23.2341 46.4229 23.2341C46.4191 23.2341 46.4152 23.2341 46.4113 23.2341C46.4075 23.2341 46.4034 23.2341 46.3996 23.2341C46.3957 23.2341 46.3917 23.2341 46.3878 23.2341C46.3838 23.2341 46.3799 23.2341 46.3759 23.2341C46.372 23.2341 46.368 23.2341 46.3641 23.2341C46.3601 23.2341 46.3561 23.2341 46.3521 23.2341C46.3482 23.2341 46.3442 23.2341 46.3401 23.2341C46.3361 23.2341 46.3321 23.2341 46.3281 23.2341C46.3241 23.2341 46.32 23.2341 46.316 23.2341C46.3118 23.2341 46.3078 23.2341 46.3038 23.2341C46.2998 23.2341 46.2956 23.2341 46.2916 23.2341C46.2876 23.2341 46.2834 23.2341 46.2794 23.2341C46.2752 23.2341 46.2712 23.2341 46.267 23.2341C46.263 23.2341 46.2588 23.2341 46.2546 23.2341C46.2506 23.2341 46.2465 23.2341 46.2423 23.2341C46.2381 23.2341 46.2339 23.2341 46.2298 23.2341C46.2256 23.2341 46.2214 23.2341 46.2173 23.2341C46.2131 23.2341 46.2089 23.2341 46.2048 23.2341C46.2006 23.2341 46.1964 23.2341 46.1922 23.2341C46.1879 23.2341 46.1838 23.2341 46.1796 23.2341C46.1753 23.2341 46.1711 23.2341 46.1668 23.2341C46.1626 23.2341 46.1583 23.2341 46.1541 23.2341C46.1498 23.2341 46.1456 23.2341 46.1413 23.2341C46.137 23.2341 46.1328 23.2341 46.1285 23.2341C46.1242 23.2341 46.1199 23.2341 46.1155 23.2341C46.1112 23.2341 46.1071 23.2341 46.1027 23.2341C46.0984 23.2341 46.0941 23.2341 46.0896 23.2341C46.0853 23.2341 46.081 23.2341 46.0767 23.2341C46.0723 23.2341 46.068 23.2341 46.0636 23.2341C46.0592 23.2341 46.0549 23.2341 46.0505 23.2341C46.0461 23.2341 46.0417 23.2341 46.0373 23.2341C46.0329 23.2341 46.0286 23.2341 46.0241 23.2341C46.0198 23.2341 46.0153 23.2341 46.0108 23.2341C46.0065 23.2341 46.0021 23.2341 45.9976 23.2341C45.9931 23.2341 45.9888 23.2341 45.9843 23.2341C45.9799 23.2341 45.9754 23.2341 45.9709 23.2341C45.9665 23.2341 45.962 23.2341 45.9575 23.2341C45.9531 23.2341 45.9486 23.2341 45.944 23.2341C45.9395 23.2341 45.935 23.2341 45.9306 23.2341C45.9259 23.2341 45.9215 23.2341 45.917 23.2341C45.9124 23.2341 45.9079 23.2341 45.9035 23.2341C45.8988 23.2341 45.8944 23.2341 45.8898 23.2341C45.8851 23.2341 45.8807 23.2341 45.876 23.2341C45.8716 23.2341 45.867 23.2341 45.8624 23.2341C45.8577 23.2341 45.8533 23.2341 45.8486 23.2341C45.844 23.2341 45.8394 23.2341 45.8348 23.2341C45.8302 23.2341 45.8256 23.2341 45.8209 23.2341C45.8163 23.2341 45.8117 23.2341 45.8071 23.2341C45.8025 23.2341 45.7979 23.2341 45.7932 23.2341C45.7886 23.2341 45.7839 23.2341 45.7792 23.2341C45.7746 23.2341 45.77 23.2341 45.7652 23.2341C45.7606 23.2341 45.756 23.2341 45.7512 23.2341C45.7466 23.2341 45.7419 23.2341 45.7372 23.2341C45.7325 23.2341 45.7279 23.2341 45.7231 23.2341C45.7183 23.2341 45.7137 23.2341 45.7089 23.2341C45.7042 23.2341 45.6996 23.2341 45.6948 23.2341C45.69 23.2341 45.6853 23.2341 45.6805 23.2341C45.6759 23.2341 45.6711 23.2341 45.6663 23.2341C45.6616 23.2341 45.6568 23.2341 45.6521 23.2341C45.6473 23.2341 45.6425 23.2341 45.6378 23.2341C45.6328 23.2341 45.6281 23.2341 45.6233 23.2341C45.6185 23.2341 45.6138 23.2341 45.6089 23.2341C45.6041 23.2341 45.5993 23.2341 45.5946 23.2341C45.5896 23.2341 45.5849 23.2341 45.58 23.2341C45.5752 23.2341 45.5704 23.2341 45.5655 23.2341C45.5608 23.2341 45.5558 23.2341 45.5509 23.2341C45.5462 23.2341 45.5412 23.2341 45.5365 23.2341C45.5316 23.2341 45.5266 23.2341 45.5219 23.2341C45.517 23.2341 45.5121 23.2341 45.5071 23.2341C45.5024 23.2341 45.4975 23.2341 45.4925 23.2341C45.4876 23.2341 45.4827 23.2341 45.4778 23.2341C45.4729 23.2341 45.468 23.2341 45.4631 23.2341C45.4581 23.2341 45.4532 23.2341 45.4483 23.2341C45.4434 23.2341 45.4385 23.2341 45.4336 23.2341C45.4286 23.2341 45.4236 23.2341 45.4187 23.2341C45.4138 23.2341 45.4088 23.2341 45.4038 23.2341C45.3989 23.2341 45.3939 23.2341 45.3889 23.2341C45.384 23.2341 45.3791 23.2341 45.374 23.2341C45.3691 23.2341 45.364 23.2341 45.3591 23.2341C45.354 23.2341 45.3491 23.2341 45.3441 23.2341C45.3391 23.2341 45.3341 23.2341 45.329 23.2341C45.3241 23.2341 45.319 23.2341 45.314 23.2341C45.3091 23.2341 45.304 23.2341 45.2989 23.2341C45.2939 23.2341 45.2889 23.2341 45.2839 23.2341C45.2788 23.2341 45.2738 23.2341 45.2687 23.2341C45.2636 23.2341 45.2586 23.2341 45.2535 23.2341C45.2484 23.2341 45.2434 23.2341 45.2383 23.2341C45.2332 23.2341 45.2282 23.2341 45.2231 23.2341C45.2181 23.2341 45.213 23.2341 45.2079 23.2341C45.2029 23.2341 45.1978 23.2341 45.1926 23.2341C45.1875 23.2341 45.1825 23.2341 45.1774 23.2341C45.1722 23.2341 45.1671 23.2341 45.162 23.2341C45.1568 23.2341 45.1518 23.2341 45.1467 23.2341C45.1415 23.2341 45.1364 23.2341 45.1314 23.2341C45.1262 23.2341 45.1211 23.2341 45.1159 23.2341C45.1108 23.2341 45.1056 23.2341 45.1005 23.2341C45.0953 23.2341 45.0901 23.2341 45.0851 23.2341C45.0798 23.2341 45.0748 23.2341 45.0696 23.2341C45.0644 23.2341 45.0593 23.2341 45.0541 23.2341C45.0489 23.2341 45.0436 23.2341 45.0386 23.2341C45.0334 23.2341 45.0282 23.2341 45.0229 23.2341C45.0177 23.2341 45.0127 23.2341 45.0075 23.2341C45.0022 23.2341 44.997 23.2341 44.9918 23.2341C44.9866 23.2341 44.9814 23.2341 44.9762 23.2341C44.971 23.2341 44.9658 23.2341 44.9605 23.2341C44.9553 23.2341 44.9501 23.2341 44.9449 23.2341C44.9397 23.2341 44.9345 23.2341 44.9293 23.2341C44.9239 23.2341 44.9187 23.2341 44.9135 23.2341C44.9083 23.2341 44.9031 23.2341 44.8978 23.2341C44.8925 23.2341 44.8873 23.2341 44.882 23.2341C44.8768 23.2341 44.8715 23.2341 44.8663 23.2341C44.861 23.2341 44.8557 23.2341 44.8505 23.2341C44.8453 23.2341 44.8399 23.2341 44.8347 23.2341C44.8293 23.2341 44.8241 23.2341 44.8188 23.2341C44.8135 23.2341 44.8083 23.2341 44.803 23.2341C44.7978 23.2341 44.7924 23.2341 44.7872 23.2341C44.7818 23.2341 44.7765 23.2341 44.7712 23.2341C44.7659 23.2341 44.7607 23.2341 44.7553 23.2341C44.7499 23.2341 44.7447 23.2341 44.7394 23.2341C44.734 23.2341 44.7288 23.2341 44.7234 23.2341C44.7181 23.2341 44.7129 23.2341 44.7075 23.2341C44.7021 23.2341 44.6968 23.2341 44.6916 23.2341C44.6862 23.2341 44.6808 23.2341 44.6755 23.2341C44.6701 23.2341 44.6649 23.2341 44.6595 23.2341C44.6542 23.2341 44.6488 23.2341 44.6435 23.2341C44.6381 23.2341 44.6327 23.2341 44.6274 23.2341C44.622 23.2341 44.6166 23.2341 44.6113 23.2341C44.6059 23.2341 44.6007 23.2341 44.5953 23.2341C44.59 23.2341 44.5845 23.2341 44.5791 23.2341C44.5738 23.2341 44.5684 23.2341 44.563 23.2341C44.5577 23.2341 44.5523 23.2341 44.5469 23.2341C44.5416 23.2341 44.5362 23.2341 44.5309 23.2341C44.5255 23.2341 44.52 23.2341 44.5146 23.2341C44.5093 23.2341 44.5039 23.2341 44.4985 23.2341C44.493 23.2341 44.4877 23.2341 44.4823 23.2341C44.4769 23.2341 44.4716 23.2341 44.4661 23.2341C44.4607 23.2341 44.4553 23.2341 44.45 23.2341C44.4445 23.2341 44.4391 23.2341 44.4338 23.2341C44.4282 23.2341 44.4229 23.2341 44.4175 23.2341C44.412 23.2341 44.4066 23.2341 44.4013 23.2341C44.3958 23.2341 44.3904 23.2341 44.3849 23.2341C44.3795 23.2341 44.3742 23.2341 44.3687 23.2341C44.3633 23.2341 44.3578 23.2341 44.3524 23.2341C44.3469 23.2341 44.3416 23.2341 44.3362 23.2341C44.3307 23.2341 44.3253 23.2341 44.3198 23.2341C44.3145 23.2341 44.3089 23.2341 44.3036 23.2341C44.2981 23.2341 44.2927 23.2341 44.2872 23.2341C44.2817 23.2341 44.2763 23.2341 44.2708 23.2341C44.2655 23.2341 44.2599 23.2341 44.2546 23.2341C44.2491 23.2341 44.2436 23.2341 44.2382 23.2341C44.2327 23.2341 44.2273 23.2341 44.2218 23.2341C44.2163 23.2341 44.2109 23.2341 44.2054 23.2341C44.2001 23.2341 44.1946 23.2341 44.1891 23.2341C44.1837 23.2341 44.1782 23.2341 44.1727 23.2341C44.1673 23.2341 44.1618 23.2341 44.1563 23.2341C44.1509 23.2341 44.1454 23.2341 44.1399 23.2341C44.1344 23.2341 44.129 23.2341 44.1235 23.2341C44.118 23.2341 44.1126 23.2341 44.1071 23.2341C44.1016 23.2341 44.0961 23.2341 44.0908 23.2341C44.0852 23.2341 44.0797 23.2341 44.0742 23.2341C44.0689 23.2341 44.0633 23.2341 44.0578 23.2341C44.0523 23.2341 44.0468 23.2341 44.0415 23.2341C44.0359 23.2341 44.0304 23.2341 44.0249 23.2341C44.0194 23.2341 44.014 23.2341 44.0085 23.2341C44.003 23.2341 43.9975 23.2341 43.992 23.2341C43.9866 23.2341 43.9811 23.2341 43.9756 23.2341C43.9701 23.2341 43.9646 23.2341 43.9591 23.2341C43.9537 23.2341 43.9482 23.2341 43.9427 23.2341C43.9372 23.2341 43.9317 23.2341 43.9262 23.2341C43.9207 23.2341 43.9153 23.2341 43.9098 23.2341C43.9043 23.2341 43.8988 23.2341 43.8933 23.2341C43.8878 23.2341 43.8822 23.2341 43.8769 23.2341C43.8714 23.2341 43.8659 23.2341 43.8604 23.2341C43.8548 23.2341 43.8493 23.2341 43.8438 23.2341C43.8383 23.2341 43.8328 23.2341 43.8274 23.2341C43.8219 23.2341 43.8164 23.2341 43.8109 23.2341C43.8054 23.2341 43.7999 23.2341 43.7944 23.2341C43.7889 23.2341 43.7834 23.2341 43.778 23.2341C43.7725 23.2341 43.767 23.2341 43.7615 23.2341C43.7559 23.2341 43.7504 23.2341 43.7449 23.2341C43.7394 23.2341 43.7339 23.2341 43.7285 23.2341C43.723 23.2341 43.7175 23.2341 43.712 23.2341C43.7065 23.2341 43.701 23.2341 43.6955 23.2341C43.69 23.2341 43.6845 23.2341 43.6791 23.2341C43.6736 23.2341 43.6681 23.2341 43.6626 23.2341C43.6571 23.2341 43.6515 23.2341 43.646 23.2341C43.6405 23.2341 43.6352 23.2341 43.6297 23.2341C43.6241 23.2341 43.6186 23.2341 43.6131 23.2341C43.6076 23.2341 43.6021 23.2341 43.5966 23.2341C43.5912 23.2341 43.5857 23.2341 43.5802 23.2341C43.5747 23.2341 43.5692 23.2341 43.5637 23.2341C43.5582 23.2341 43.5528 23.2341 43.5473 23.2341C43.5418 23.2341 43.5363 23.2341 43.5308 23.2341C43.5252 23.2341 43.5199 23.2341 43.5144 23.2341C43.5089 23.2341 43.5033 23.2341 43.4978 23.2341C43.4925 23.2341 43.487 23.2341 43.4815 23.2341C43.4759 23.2341 43.4704 23.2341 43.4651 23.2341C43.4596 23.2341 43.4541 23.2341 43.4485 23.2341C43.443 23.2341 43.4377 23.2341 43.4322 23.2341C43.4266 23.2341 43.4211 23.2341 43.4158 23.2341C43.4103 23.2341 43.4048 23.2341 43.3992 23.2341C43.3939 23.2341 43.3884 23.2341 43.3829 23.2341C43.3773 23.2341 43.372 23.2341 43.3665 23.2341C43.361 23.2341 43.3556 23.2341 43.3501 23.2341C43.3446 23.2341 43.3392 23.2341 43.3337 23.2341C43.3282 23.2341 43.3227 23.2341 43.3173 23.2341C43.3118 23.2341 43.3065 23.2341 43.3009 23.2341C43.2954 23.2341 43.2901 23.2341 43.2846 23.2341C43.2791 23.2341 43.2737 23.2341 43.2682 23.2341C43.2628 23.2341 43.2573 23.2341 43.2518 23.2341C43.2464 23.2341 43.2409 23.2341 43.2356 23.2341C43.2301 23.2341 43.2247 23.2341 43.2192 23.2341C43.2137 23.2341 43.2083 23.2341 43.2028 23.2341C43.1974 23.2341 43.1919 23.2341 43.1866 23.2341C43.1811 23.2341 43.1757 23.2341 43.1702 23.2341C43.1648 23.2341 43.1595 23.2341 43.1539 23.2341C43.1486 23.2341 43.1431 23.2341 43.1377 23.2341C43.1322 23.2341 43.1268 23.2341 43.1215 23.2341C43.116 23.2341 43.1106 23.2341 43.1051 23.2341C43.0997 23.2341 43.0944 23.2341 43.0889 23.2341C43.0835 23.2341 43.0781 23.2341 43.0726 23.2341C43.0673 23.2341 43.0619 23.2341 43.0564 23.2341C43.051 23.2341 43.0457 23.2341 43.0403 23.2341C43.0348 23.2341 43.0294 23.2341 43.0241 23.2341C43.0187 23.2341 43.0132 23.2341 43.0078 23.2341C43.0025 23.2341 42.9971 23.2341 42.9918 23.2341C42.9864 23.2341 42.9809 23.2341 42.9755 23.2341C42.9702 23.2341 42.9648 23.2341 42.9594 23.2341C42.9541 23.2341 42.9487 23.2341 42.9434 23.2341C42.938 23.2341 42.9325 23.2341 42.9271 23.2341C42.9218 23.2341 42.9164 23.2341 42.911 23.2341C42.9057 23.2341 42.9003 23.2341 42.8949 23.2341C42.8896 23.2341 42.8842 23.2341 42.879 23.2341C42.8736 23.2341 42.8683 23.2341 42.8629 23.2341C42.8576 23.2341 42.8522 23.2341 42.8468 23.2341C42.8415 23.2341 42.8361 23.2341 42.8309 23.2341C42.8255 23.2341 42.8202 23.2341 42.8148 23.2341C42.8095 23.2341 42.8042 23.2341 42.7989 23.2341C42.7935 23.2341 42.7882 23.2341 42.7829 23.2341C42.7776 23.2341 42.7722 23.2341 42.767 23.2341C42.7616 23.2341 42.7563 23.2341 42.7511 23.2341C42.7457 23.2341 42.7403 23.2341 42.7351 23.2341C42.7298 23.2341 42.7246 23.2341 42.7192 23.2341C42.714 23.2341 42.7086 23.2341 42.7034 23.2341C42.6981 23.2341 42.6928 23.2341 42.6875 23.2341C42.6823 23.2341 42.6769 23.2341 42.6717 23.2341C42.6663 23.2341 42.6611 23.2341 42.6559 23.2341C42.6505 23.2341 42.6453 23.2341 42.6401 23.2341C42.6348 23.2341 42.6295 23.2341 42.6243 23.2341C42.6191 23.2341 42.6138 23.2341 42.6085 23.2341C42.6033 23.2341 42.5981 23.2341 42.5928 23.2341C42.5875 23.2341 42.5823 23.2341 42.5771 23.2341C42.5719 23.2341 42.5667 23.2341 42.5615 23.2341C42.5563 23.2341 42.5509 23.2341 42.5457 23.2341C42.5405 23.2341 42.5353 23.2341 42.5301 23.2341C42.5248 23.2341 42.5196 23.2341 42.5146 23.2341C42.5093 23.2341 42.5041 23.2341 42.4989 23.2341C42.4937 23.2341 42.4885 23.2341 42.4833 23.2341C42.4781 23.2341 42.473 23.2341 42.4678 23.2341C42.4626 23.2341 42.4574 23.2341 42.4523 23.2341C42.4471 23.2341 42.4419 23.2341 42.4368 23.2341C42.4316 23.2341 42.4264 23.2341 42.4213 23.2341C42.4161 23.2341 42.4109 23.2341 42.4058 23.2341C42.4006 23.2341 42.3956 23.2341 42.3903 23.2341C42.3853 23.2341 42.3801 23.2341 42.375 23.2341C42.3698 23.2341 42.3647 23.2341 42.3597 23.2341C42.3545 23.2341 42.3494 23.2341 42.3443 23.2341C42.3391 23.2341 42.3341 23.2341 42.329 23.2341C42.3238 23.2341 42.3187 23.2341 42.3136 23.2341C42.3086 23.2341 42.3035 23.2341 42.2983 23.2341C42.2932 23.2341 42.2882 23.2341 42.2831 23.2341C42.2781 23.2341 42.273 23.2341 42.2679 23.2341C42.2629 23.2341 42.2578 23.2341 42.2527 23.2341C42.2477 23.2341 42.2426 23.2341 42.2375 23.2341C42.2325 23.2341 42.2274 23.2341 42.2224 23.2341C42.2174 23.2341 42.2124 23.2341 42.2073 23.2341C42.2022 23.2341 42.1972 23.2341 42.1923 23.2341C42.1872 23.2341 42.1821 23.2341 42.1772 23.2341C42.1722 23.2341 42.1672 23.2341 42.1622 23.2341C42.1571 23.2341 42.1522 23.2341 42.1471 23.2341C42.1422 23.2341 42.1372 23.2341 42.1322 23.2341C42.1272 23.2341 42.1223 23.2341 42.1173 23.2341C42.1123 23.2341 42.1074 23.2341 42.1025 23.2341C42.0974 23.2341 42.0925 23.2341 42.0876 23.2341C42.0826 23.2341 42.0776 23.2341 42.0727 23.2341C42.0678 23.2341 42.0628 23.2341 42.0579 23.2341C42.053 23.2341 42.0481 23.2341 42.0432 23.2341C42.0383 23.2341 42.0334 23.2341 42.0284 23.2341C42.0235 23.2341 42.0186 23.2341 42.0137 23.2341C42.0088 23.2341 42.0039 23.2341 41.9989 23.2341C41.9942 23.2341 41.9893 23.2341 41.9844 23.2341C41.9794 23.2341 41.9747 23.2341 41.9698 23.2341C41.9648 23.2341 41.9601 23.2341 41.9552 23.2341C41.9504 23.2341 41.9455 23.2341 41.9407 23.2341C41.9358 23.2341 41.931 23.2341 41.9261 23.2341C41.9213 23.2341 41.9164 23.2341 41.9117 23.2341C41.9069 23.2341 41.902 23.2341 41.8972 23.2341C41.8925 23.2341 41.8877 23.2341 41.8828 23.2341C41.878 23.2341 41.8732 23.2341 41.8685 23.2341C41.8637 23.2341 41.8589 23.2341 41.8542 23.2341C41.8494 23.2341 41.8446 23.2341 41.8399 23.2341C41.8351 23.2341 41.8303 23.2341 41.8256 23.2341C41.8208 23.2341 41.8161 23.2341 41.8114 23.2341C41.8067 23.2341 41.8019 23.2341 41.7971 23.2341C41.7925 23.2341 41.7878 23.2341 41.783 23.2341C41.7784 23.2341 41.7736 23.2341 41.769 23.2341C41.7642 23.2341 41.7596 23.2341 41.7548 23.2341C41.7502 23.2341 41.7455 23.2341 41.7408 23.2341C41.7362 23.2341 41.7315 23.2341 41.7268 23.2341C41.7222 23.2341 41.7176 23.2341 41.7128 23.2341C41.7082 23.2341 41.7036 23.2341 41.699 23.2341C41.6944 23.2341 41.6898 23.2341 41.6851 23.2341C41.6805 23.2341 41.6759 23.2341 41.6713 23.2341C41.6667 23.2341 41.662 23.2341 41.6574 23.2341C41.6528 23.2341 41.6483 23.2341 41.6437 23.2341C41.6391 23.2341 41.6345 23.2341 41.63 23.2341C41.6254 23.2341 41.6209 23.2341 41.6163 23.2341C41.6117 23.2341 41.6072 23.2341 41.6026 23.2341C41.5982 23.2341 41.5937 23.2341 41.5891 23.2341C41.5846 23.2341 41.5801 23.2341 41.5755 23.2341C41.5711 23.2341 41.5666 23.2341 41.5621 23.2341C41.5575 23.2341 41.553 23.2341 41.5486 23.2341C41.5441 23.2341 41.5396 23.2341 41.5352 23.2341C41.5307 23.2341 41.5262 23.2341 41.5218 23.2341C41.5173 23.2341 41.5128 23.2341 41.5085 23.2341C41.504 23.2341 41.4996 23.2341 41.4951 23.2341C41.4908 23.2341 41.4863 23.2341 41.4818 23.2341C41.4775 23.2341 41.473 23.2341 41.4687 23.2341C41.4643 23.2341 41.4599 23.2341 41.4555 23.2341C41.4512 23.2341 41.4468 23.2341 41.4424 23.2341C41.438 23.2341 41.4337 23.2341 41.4294 23.2341C41.4249 23.2341 41.4206 23.2341 41.4163 23.2341C41.412 23.2341 41.4077 23.2341 41.4034 23.2341C41.399 23.2341 41.3947 23.2341 41.3904 23.2341C41.3861 23.2341 41.3818 23.2341 41.3776 23.2341C41.3733 23.2341 41.3689 23.2341 41.3646 23.2341C41.3605 23.2341 41.3561 23.2341 41.3518 23.2341C41.3476 23.2341 41.3433 23.2341 41.3392 23.2341C41.3348 23.2341 41.3307 23.2341 41.3265 23.2341C41.3222 23.2341 41.318 23.2341 41.3138 23.2341C41.3095 23.2341 41.3054 23.2341 41.3012 23.2341C41.297 23.2341 41.2928 23.2341 41.2887 23.2341C41.2845 23.2341 41.2803 23.2341 41.2762 23.2341C41.272 23.2341 41.2678 23.2341 41.2636 23.2341C41.2595 23.2341 41.2555 23.2341 41.2513 23.2341C41.2471 23.2341 41.2429 23.2341 41.2389 23.2341C41.2348 23.2341 41.2307 23.2341 41.2266 23.2341C41.2225 23.2341 41.2184 23.2341 41.2144 23.2341C41.2103 23.2341 41.2062 23.2341 41.2021 23.2341C41.1981 23.2341 41.1939 23.2341 41.1899 23.2341C41.1859 23.2341 41.1819 23.2341 41.1779 23.2341C41.1738 23.2341 41.1698 23.2341 41.1658 23.2341C41.1618 23.2341 41.1578 23.2341 41.1537 23.2341C41.1499 23.2341 41.1458 23.2341 41.1418 23.2341C41.1379 23.2341 41.1339 23.2341 41.1299 23.2341C41.126 23.2341 41.122 23.2341 41.1181 23.2341C41.1141 23.2341 41.1102 23.2341 41.1064 23.2341C41.1023 23.2341 41.0985 23.2341 41.0946 23.2341C41.0907 23.2341 41.0867 23.2341 41.0828 23.2341C41.079 23.2341 41.0751 23.2341 41.0712 23.2341C41.0673 23.2341 41.0635 23.2341 41.0596 23.2341C41.0559 23.2341 41.052 23.2341 41.0481 23.2341C41.0443 23.2341 41.0405 23.2341 41.0367 23.2341C41.0328 23.2341 41.0291 23.2341 41.0252 23.2341C41.0215 23.2341 41.0178 23.2341 41.0139 23.2341C41.0102 23.2341 41.0063 23.2341 41.0026 23.2341C40.9988 23.2341 40.9951 23.2341 40.9914 23.2341C40.9877 23.2341 40.9839 23.2341 40.9802 23.2341C40.9765 23.2341 40.9728 23.2341 40.9691 23.2341C40.9653 23.2341 40.9616 23.2341 40.9579 23.2341C40.9543 23.2341 40.9506 23.2341 40.9469 23.2341C40.9433 23.2341 40.9396 23.2341 40.936 23.2341C40.9323 23.2341 40.9287 23.2341 40.9251 23.2341C40.9214 23.2341 40.9178 23.2341 40.9142 23.2341C40.9107 23.2341 40.9069 23.2341 40.9034 23.2341C40.8998 23.2341 40.8962 23.2341 40.8926 23.2341C40.8891 23.2341 40.8855 23.2341 40.8821 23.2341C40.8785 23.2341 40.8749 23.2341 40.8713 23.2341C40.8679 23.2341 40.8643 23.2341 40.8608 23.2341C40.8573 23.2341 40.8538 23.2341 40.8503 23.2341C40.8469 23.2341 40.8433 23.2341 40.8399 23.2341C40.8365 23.2341 40.8329 23.2341 40.8295 23.2341C40.8261 23.2341 40.8226 23.2341 40.8192 23.2341C40.8158 23.2341 40.8124 23.2341 40.8089 23.2341C40.8055 23.2341 40.8021 23.2341 40.7988 23.2341C40.7954 23.2341 40.792 23.2341 40.7887 23.2341C40.7853 23.2341 40.782 23.2341 40.7786 23.2341C40.7753 23.2341 40.7719 23.2341 40.7686 23.2341C40.7653 23.2341 40.7619 23.2341 40.7586 23.2341C40.7553 23.2341 40.7521 23.2341 40.7488 23.2341C40.7455 23.2341 40.7422 23.2341 40.7389 23.2341C40.7357 23.2341 40.7324 23.2341 40.7291 23.2341C40.726 23.2341 40.7227 23.2341 40.7194 23.2341C40.7163 23.2341 40.713 23.2341 40.7099 23.2341C40.7066 23.2341 40.7035 23.2341 40.7002 23.2341C40.6971 23.2341 40.694 23.2341 40.6908 23.2341C40.6877 23.2341 40.6844 23.2341 40.6813 23.2341C40.6782 23.2341 40.6751 23.2341 40.6719 23.2341C40.6689 23.2341 40.6658 23.2341 40.6627 23.2341C40.6596 23.2341 40.6566 23.2341 40.6535 23.2341C40.6503 23.2341 40.6474 23.2341 40.6442 23.2341C40.6412 23.2341 40.6383 23.2341 40.6351 23.2341C40.6322 23.2341 40.6292 23.2341 40.6262 23.2341C40.6231 23.2341 40.6201 23.2341 40.6171 23.2341C40.6141 23.2341 40.6112 23.2341 40.6083 23.2341C40.6054 23.2341 40.6024 23.2341 40.5994 23.2341C40.5966 23.2341 40.5936 23.2341 40.5906 23.2341C40.5878 23.2341 40.5848 23.2341 40.582 23.2341C40.5791 23.2341 40.5762 23.2341 40.5733 23.2341C40.5705 23.2341 40.5677 23.2341 40.5648 23.2341C40.5619 23.2341 40.559 23.2341 40.5562 23.2341C40.5535 23.2341 40.5507 23.2341 40.5479 23.2341C40.545 23.2341 40.5422 23.2341 40.5395 23.2341C40.5367 23.2341 40.534 23.2341 40.5312 23.2341C40.5285 23.2341 40.5257 23.2341 40.523 23.2341C40.5203 23.2341 40.5175 23.2341 40.5148 23.2341C40.5121 23.2341 40.5094 23.2341 40.5068 23.2341C40.5041 23.2341 40.5014 23.2341 40.4987 23.2341C40.4962 23.2341 40.4935 23.2341 40.4908 23.2341C40.4881 23.2341 40.4856 23.2341 40.4829 23.2341C40.4804 23.2341 40.4777 23.2341 40.4752 23.2341C40.4726 23.2341 40.47 23.2341 40.4674 23.2341C40.4649 23.2341 40.4624 23.2341 40.4598 23.2341C40.4573 23.2341 40.4548 23.2341 40.4522 23.2341C40.4497 23.2341 40.4473 23.2341 40.4448 23.2341C40.4423 23.2341 40.4399 23.2341 40.4374 23.2341C40.4348 23.2341 40.4324 23.2341 40.4301 23.2341C40.4275 23.2341 40.4251 23.2341 40.4228 23.2341C40.4204 23.2341 40.418 23.2341 40.4155 23.2341C40.4131 23.2341 40.4108 23.2341 40.4085 23.2341C40.4061 23.2341 40.4037 23.2341 40.4013 23.2341C40.3991 23.2341 40.3967 23.2341 40.3943 23.2341C40.3921 23.2341 40.3898 23.2341 40.3875 23.2341C40.3852 23.2341 40.383 23.2341 40.3806 23.2341C40.3784 23.2341 40.3761 23.2341 40.3739 23.2341C40.3717 23.2341 40.3694 23.2341 40.3672 23.2341C40.365 23.2341 40.3629 23.2341 40.3606 23.2341C40.3584 23.2341 40.3563 23.2341 40.3541 23.2341C40.352 23.2341 40.3498 23.2341 40.3477 23.2341C40.3456 23.2341 40.3434 23.2341 40.3413 23.2341C40.3392 23.2341 40.3371 23.2341 40.335 23.2341C40.3329 23.2341 40.3309 23.2341 40.3288 23.2341C40.3268 23.2341 40.3248 23.2341 40.3227 23.2341C40.3207 23.2341 40.3186 23.2341 40.3167 23.2341C40.3146 23.2341 40.3127 23.2341 40.3108 23.2341C40.3087 23.2341 40.3067 23.2341 40.3048 23.2341C40.3029 23.2341 40.3009 23.2341 40.299 23.2341C40.2971 23.2341 40.2951 23.2341 40.2933 23.2341C40.2914 23.2341 40.2895 23.2341 40.2877 23.2341C40.2857 23.2341 40.2839 23.2341 40.282 23.2341C40.2802 23.2341 40.2784 23.2341 40.2765 23.2341C40.2747 23.2341 40.2729 23.2341 40.2711 23.2341C40.2693 23.2341 40.2676 23.2341 40.2658 23.2341C40.2641 23.2341 40.2624 23.2341 40.2606 23.2341C40.2589 23.2341 40.2571 23.2341 40.2555 23.2341C40.2537 23.2341 40.2521 23.2341 40.2504 23.2341C40.2486 23.2341 40.247 23.2341 40.2454 23.2341C40.2437 23.2341 40.2421 23.2341 40.2405 23.2341C40.2388 23.2341 40.2372 23.2341 40.2357 23.2341C40.2341 23.2341 40.2324 23.2341 40.2309 23.2341C40.2293 23.2341 40.2278 23.2341 40.2262 23.2341C40.2247 23.2341 40.2232 23.2341 40.2217 23.2341C40.2202 23.2341 40.2187 23.2341 40.2172 23.2341C40.2157 23.2341 40.2142 23.2341 40.2128 23.2341V25.9149Z" fill="#1E2C96"/>
</svg>
