<svg width="15" height="15" viewBox="0 0 15 15" fill="none" xmlns="http://www.w3.org/2000/svg">
<path d="M13.6289 2.51394C13.6289 1.12554 12.5033 0 11.1151 0C10.5073 0 9.95065 0.215886 9.51587 0.575109C9.71021 1.23767 10.0879 1.90199 10.639 2.4796C11.373 3.24775 12.3169 3.74605 13.2316 3.86542C13.4821 3.47494 13.6289 3.01227 13.6289 2.51394Z" fill="#FF9643"/>
<path d="M10.417 2.69208C9.87212 2.12135 9.49037 1.46833 9.27218 0.80835C8.95871 1.14673 8.74021 1.57084 8.65088 2.04078C8.88831 2.71472 9.31402 3.35707 9.89027 3.89318C10.4294 4.3945 11.053 4.75779 11.6928 4.9576C12.2234 4.833 12.6884 4.5419 13.0299 4.14028C12.0977 3.977 11.155 3.46485 10.417 2.69208Z" fill="#FF9643"/>
<path d="M4.6271 13.3226C4.1552 13.7143 2.60324 13.5991 1.73496 13.4355C1.56882 13.4024 1.40824 13.5134 1.37636 13.6802C1.34535 13.8468 1.45435 14.0076 1.621 14.0388C1.76316 14.0657 2.52182 14.2024 3.31645 14.2024C3.96505 14.2024 4.63821 14.1113 5.01883 13.7958C5.24265 13.6115 5.36006 13.3611 5.36006 13.0741C5.36006 12.2517 4.85859 11.8637 4.4558 11.5504C4.07456 11.2547 3.83994 11.0527 3.82363 10.6413C3.80333 10.1185 4.00725 9.76612 4.2026 9.54969C4.65878 9.95373 5.53621 9.8605 6.18133 9.33013L7.10479 8.57218C7.22494 8.72389 7.39311 8.83547 7.58933 8.87622V13.6819C6.1825 13.7322 5.10616 14.0057 5.10616 14.3367C5.10616 14.7031 6.42358 15 8.04989 15C9.67612 15 10.9936 14.7031 10.9936 14.3367C10.9936 14.0057 9.91719 13.7322 8.51037 13.6819V8.427C8.56711 8.3137 8.60157 8.18828 8.60157 8.05397C8.60157 7.84571 8.52304 7.65826 8.39769 7.5114L11.2908 5.13774C10.7181 4.91243 10.1664 4.5685 9.68132 4.11788C9.16022 3.63272 8.75461 3.06347 8.48862 2.46118L6.13956 5.35019C5.91065 5.25261 5.63528 5.29864 5.45432 5.48993C5.24922 5.70519 5.23108 6.03094 5.39569 6.26528L4.3337 7.57132C3.9769 8.01036 3.83294 8.54523 3.90654 8.98064C3.58752 9.26415 3.17679 9.80034 3.21019 10.665C3.23854 11.3834 3.70434 11.7447 4.07909 12.0353C4.45146 12.3243 4.74607 12.5528 4.74607 13.0738C4.746 13.1794 4.71064 13.2537 4.6271 13.3226Z" fill="#FF9643"/>
</svg>
