<svg width="13" height="13" viewBox="0 0 13 13" fill="none" xmlns="http://www.w3.org/2000/svg">
<path d="M12.6191 3.26331H0.380859C0.170523 3.26331 0 3.43383 0 3.64417V12.6189C0 12.8292 0.170523 12.9998 0.380859 12.9998H12.6191C12.8295 12.9998 13 12.8292 13 12.6189V3.64417C13 3.43383 12.8295 3.26331 12.6191 3.26331ZM8.64899 8.44845L5.58942 10.4882C5.52569 10.5306 5.45203 10.5521 5.37814 10.5521C5.31652 10.5521 5.25477 10.5372 5.19845 10.5071C5.07462 10.4408 4.99731 10.3118 4.99731 10.1713V6.09185C4.99731 5.95139 5.07462 5.82232 5.19845 5.75606C5.32233 5.68976 5.47259 5.69705 5.58942 5.77495L8.64899 7.81468C8.75494 7.88529 8.81859 8.00422 8.81859 8.13155C8.81859 8.25889 8.75494 8.37784 8.64899 8.44845Z" fill="#FF9643"/>
<path d="M11.3954 1.63171H1.60474C1.3944 1.63171 1.22388 1.80224 1.22388 2.01257C1.22388 2.22291 1.3944 2.39343 1.60474 2.39343H11.3954C11.6057 2.39343 11.7762 2.22291 11.7762 2.01257C11.7762 1.80224 11.6057 1.63171 11.3954 1.63171Z" fill="#FF9643"/>
<path d="M10.1716 0H2.82861C2.61828 0 2.44775 0.170523 2.44775 0.380859C2.44775 0.591195 2.61828 0.761719 2.82861 0.761719H10.1716C10.3819 0.761719 10.5524 0.591195 10.5524 0.380859C10.5524 0.170523 10.3819 0 10.1716 0Z" fill="#FF9643"/>
<rect x="3" y="5" width="7" height="6" fill="#FF9643"/>
<g clip-path="url(#clip0)">
<path d="M8.74001 8.11535C8.74001 7.97535 8.63295 7.86829 8.49295 7.86829C8.35295 7.86829 8.24589 7.97535 8.24589 8.11535C8.24589 9.07888 7.46354 9.86123 6.50001 9.86123C5.53648 9.86123 4.75413 9.07888 4.75413 8.11535C4.75413 7.97535 4.64707 7.86829 4.50707 7.86829C4.36707 7.86829 4.26001 7.97535 4.26001 8.11535C4.26001 9.26005 5.11648 10.2236 6.25295 10.3471V11.0059H5.3553C5.2153 11.0059 5.10825 11.113 5.10825 11.253C5.10825 11.393 5.2153 11.5001 5.3553 11.5001H7.64472C7.78472 11.5001 7.89177 11.393 7.89177 11.253C7.89177 11.113 7.78472 11.0059 7.64472 11.0059H6.74707V10.3471C7.88354 10.2236 8.74001 9.26005 8.74001 8.11535Z" fill="#3E2F4B"/>
<path d="M6.50004 4.5C5.7424 4.5 5.12476 5.11765 5.12476 5.87529V8.10706C5.12476 8.87294 5.7424 9.48235 6.50004 9.49059C7.25769 9.49059 7.87533 8.87294 7.87533 8.11529V5.87529C7.87533 5.11765 7.25769 4.5 6.50004 4.5Z" fill="#3E2F4B"/>
</g>
<defs>
<clipPath id="clip0">
<rect width="7" height="7" fill="white" transform="translate(3 4.5)"/>
</clipPath>
</defs>
</svg>
