<svg width="15" height="15" viewBox="0 0 15 15" fill="none" xmlns="http://www.w3.org/2000/svg">
<path d="M6.875 11.25C6.875 11.595 7.155 11.875 7.5 11.875C7.845 11.875 8.125 11.595 8.125 11.25V3.75C8.125 3.405 7.845 3.125 7.5 3.125C7.155 3.125 6.875 3.405 6.875 3.75V11.25Z" fill="#FF9643"/>
<path d="M0.625 3.75C0.279999 3.75 0 4.03 0 4.375V10.625C0 10.97 0.279999 11.25 0.625 11.25C0.970001 11.25 1.25 10.97 1.25 10.625V4.375C1.25 4.03 0.970001 3.75 0.625 3.75Z" fill="#FF9643"/>
<path d="M5.9375 10V5C5.9375 4.655 5.6575 4.375 5.3125 4.375C4.9675 4.375 4.6875 4.655 4.6875 5V10C4.6875 10.345 4.9675 10.625 5.3125 10.625C5.6575 10.625 5.9375 10.345 5.9375 10Z" fill="#FF9643"/>
<path d="M3.125 9.375C3.47 9.375 3.75 9.095 3.75 8.75V6.25C3.75 5.905 3.47 5.625 3.125 5.625C2.78 5.625 2.5 5.905 2.5 6.25V8.75C2.5 9.095 2.78 9.375 3.125 9.375Z" fill="#FF9643"/>
<path d="M10.3125 10V5C10.3125 4.655 10.0325 4.375 9.6875 4.375C9.3425 4.375 9.0625 4.655 9.0625 5V10C9.0625 10.345 9.3425 10.625 9.6875 10.625C10.0325 10.625 10.3125 10.345 10.3125 10Z" fill="#FF9643"/>
<path d="M14.375 3.75C14.03 3.75 13.75 4.03 13.75 4.375V10.625C13.75 10.97 14.03 11.25 14.375 11.25C14.72 11.25 15 10.97 15 10.625V4.375C15 4.03 14.72 3.75 14.375 3.75Z" fill="#FF9643"/>
<path d="M11.875 5.625C11.53 5.625 11.25 5.905 11.25 6.25V8.75C11.25 9.095 11.53 9.375 11.875 9.375C12.22 9.375 12.5 9.095 12.5 8.75V6.25C12.5 5.905 12.22 5.625 11.875 5.625Z" fill="#FF9643"/>
<path d="M6.875 14.375C6.875 14.72 7.155 15 7.5 15C7.845 15 8.125 14.72 8.125 14.375V13.75C8.125 13.405 7.845 13.125 7.5 13.125C7.155 13.125 6.875 13.405 6.875 13.75V14.375Z" fill="#FF9643"/>
<path d="M7.5 1.875C7.845 1.875 8.125 1.595 8.125 1.25V0.625C8.125 0.279999 7.845 0 7.5 0C7.155 0 6.875 0.279999 6.875 0.625V1.25C6.875 1.595 7.155 1.875 7.5 1.875Z" fill="#FF9643"/>
</svg>
