<svg width="15" height="15" viewBox="0 0 15 15" fill="none" xmlns="http://www.w3.org/2000/svg">
<g opacity="0.4" clip-path="url(#clip0)">
<path d="M6.60568 0C2.96341 0 0 2.96341 0 6.60568C0 10.2482 2.96341 13.2114 6.60568 13.2114C10.2482 13.2114 13.2114 10.2482 13.2114 6.60568C13.2114 2.96341 10.2482 0 6.60568 0ZM6.60568 11.9919C3.63577 11.9919 1.21951 9.57563 1.21951 6.60571C1.21951 3.6358 3.63577 1.21951 6.60568 1.21951C9.5756 1.21951 11.9919 3.63577 11.9919 6.60568C11.9919 9.5756 9.5756 11.9919 6.60568 11.9919Z" fill="#353535"/>
<path d="M14.8214 13.9591L11.3254 10.4632C11.0872 10.225 10.7014 10.225 10.4632 10.4632C10.225 10.7012 10.225 11.0874 10.4632 11.3254L13.9592 14.8213C14.0783 14.9404 14.2342 15 14.3903 15C14.5462 15 14.7023 14.9404 14.8214 14.8213C15.0596 14.5833 15.0596 14.1971 14.8214 13.9591Z" fill="#353535"/>
</g>
<defs>
<clipPath id="clip0">
<rect width="15" height="15" fill="white"/>
</clipPath>
</defs>
</svg>
