<svg width="15" height="15" viewBox="0 0 15 15" fill="none" xmlns="http://www.w3.org/2000/svg">
<g clip-path="url(#clip0)">
<path d="M14.9608 5.75336C14.862 5.44963 14.5926 5.23459 14.2752 5.20587L9.94509 4.81276L8.23383 0.806344C8.10748 0.511997 7.82 0.322021 7.50002 0.322021C7.18004 0.322021 6.89244 0.511997 6.7669 0.806344L5.05564 4.81276L0.72489 5.20587C0.407426 5.23517 0.138599 5.45021 0.039263 5.75336C-0.0595012 6.0571 0.0317097 6.39024 0.271811 6.60081L3.54499 9.47093L2.57989 13.7216C2.50928 14.0341 2.63059 14.3573 2.88992 14.5447C3.02931 14.646 3.19308 14.6966 3.35742 14.6966C3.49864 14.6966 3.63998 14.6591 3.76621 14.5835L7.50002 12.351L11.2331 14.5835C11.507 14.7472 11.8514 14.7322 12.1101 14.5447C12.3694 14.3573 12.4908 14.0341 12.4201 13.7216L11.4551 9.47093L14.7282 6.60081C14.9682 6.39024 15.0595 6.05778 14.9608 5.75336Z" fill="#FF9643"/>
</g>
<defs>
<clipPath id="clip0">
<rect width="15" height="15" fill="white"/>
</clipPath>
</defs>
</svg>
