<svg viewBox="0 0 20 20" xmlns="http://www.w3.org/2000/svg">
    <path d="M13.5383 9.38518L1.23076 0.154505C0.999989 -0.0208782 0.686147 -0.0485703 0.426149 0.0821977C0.164614 0.212966 0 0.479117 0 0.769883L0 19.2312C0 19.522 0.164614 19.7882 0.424611 19.9189C0.533841 19.9728 0.652301 20.0005 0.769223 20.0005C0.932298 20.0005 1.09537 19.9482 1.23076 19.8466L13.5383 10.6159C13.7322 10.4713 13.846 10.2421 13.846 10.0006C13.846 9.75903 13.7322 9.5298 13.5383 9.38518Z" />
    <path d="M19.2308 0.000244141L17.6923 0.000244141C17.2677 0.000244141 16.9231 0.344856 16.9231 0.769467L16.9231 19.2308C16.9231 19.6554 17.2677 20 17.6923 20H19.2308C19.6554 20 20 19.6554 20 19.2308L20 0.769467C20 0.344856 19.6554 0.000244141 19.2308 0.000244141Z" />
</svg>