<svg viewBox="0 0 20 20" xmlns="http://www.w3.org/2000/svg">
    <path d="M6.46168 10.6148L18.7692 19.8455C19 20.0209 19.3139 20.0486 19.5739 19.9178C19.8354 19.787 20 19.5209 20 19.2301L20 0.768761C20 0.477993 19.8354 0.211842 19.5754 0.0810737C19.4662 0.0272274 19.3477 -0.000463543 19.2308 -0.000463553C19.0677 -0.000463567 18.9046 0.0518435 18.7692 0.153381L6.46168 9.38406C6.26784 9.52867 6.15399 9.7579 6.15399 9.99944C6.15399 10.241 6.26784 10.4702 6.46168 10.6148Z" />
    <path d="M0.769233 19.9998L2.30768 19.9998C2.73229 19.9998 3.0769 19.6551 3.0769 19.2305L3.07691 0.769176C3.07691 0.344564 2.73229 -4.77138e-05 2.30768 -4.7751e-05L0.769235 -4.78855e-05C0.344623 -4.79226e-05 1.12551e-05 0.344564 1.12179e-05 0.769176L9.60399e-06 19.2305C9.56687e-06 19.6551 0.344622 19.9998 0.769233 19.9998Z" />
</svg>