<svg width="18" height="16" viewBox="0 0 18 16" fill="none" xmlns="http://www.w3.org/2000/svg">
<path d="M15.9375 2.01176H12V1.82417C12 1.10045 11.4112 0.511719 10.6875 0.511719H7.3125C6.58878 0.511719 6.00005 1.10045 6.00005 1.82417V2.01176H2.06255C0.924774 2.01176 0 2.9364 0 4.07417V13.4492C0 14.587 0.924774 15.5118 2.06255 15.5118H15.9375C17.0752 15.5118 18 14.587 18 13.4492V4.07417C18 2.9364 17.0752 2.01176 15.9375 2.01176ZM10.5007 3.51167H7.49995V2.01176H10.5L10.5007 3.51167ZM5.625 5.76167C6.65854 5.76167 7.49995 6.60323 7.49995 7.63676C7.49995 8.67017 6.65854 9.51172 5.625 9.51172C4.59146 9.51172 3.75005 8.67017 3.75005 7.63676C3.75005 6.60323 4.59146 5.76167 5.625 5.76167ZM9 12.6993C9 13.0098 8.748 13.2618 8.4375 13.2618H2.8125C2.502 13.2618 2.25 13.0098 2.25 12.6993V12.3242C2.25 11.1864 3.17477 10.2617 4.31255 10.2617H6.93745C8.07523 10.2617 9 11.1864 9 12.3242V12.6993ZM15.1875 13.2618H11.0625C10.752 13.2618 10.5 13.0098 10.5 12.6993C10.5 12.3888 10.752 12.1368 11.0625 12.1368H15.1875C15.498 12.1368 15.75 12.3888 15.75 12.6993C15.75 13.0098 15.498 13.2618 15.1875 13.2618ZM15.1875 10.2617H11.0625C10.752 10.2617 10.5 10.0097 10.5 9.69917C10.5 9.38867 10.752 9.13667 11.0625 9.13667H15.1875C15.498 9.13667 15.75 9.38867 15.75 9.69917C15.75 10.0097 15.498 10.2617 15.1875 10.2617ZM15.1875 7.26172H11.0625C10.752 7.26172 10.5 7.00972 10.5 6.69922C10.5 6.38872 10.752 6.13672 11.0625 6.13672H15.1875C15.498 6.13672 15.75 6.38872 15.75 6.69922C15.75 7.00972 15.498 7.26172 15.1875 7.26172Z" fill="#F3427F"/>
</svg>
