<svg width="24" height="24" viewBox="0 0 24 24" fill="none" xmlns="http://www.w3.org/2000/svg">
<g clip-path="url(#clip0)">
<path d="M19.714 11.999C19.2406 11.999 18.8569 12.3827 18.8569 12.8561V21.4274C18.8569 21.9008 18.4731 22.2845 17.9997 22.2845H2.57139C2.098 22.2845 1.71425 21.9008 1.71425 21.4274V4.28477C1.71425 3.81138 2.098 3.42762 2.57139 3.42762H12.857C13.3304 3.42762 13.7141 3.04387 13.7141 2.57048C13.7141 2.09708 13.3304 1.71338 12.857 1.71338H2.57139C1.15125 1.71338 0 2.86463 0 4.28477V21.4274C0 22.8475 1.15125 23.9988 2.57139 23.9988H17.9998C19.4199 23.9988 20.5712 22.8475 20.5712 21.4274V12.8561C20.5712 12.3827 20.1874 11.999 19.714 11.999Z" fill="#F3427F"/>
<g clip-path="url(#clip1)">
<path d="M23.4255 2.24635L21.7525 0.573276C20.9881 -0.19111 19.7445 -0.191074 18.9801 0.573276L18.3253 1.22812L22.7707 5.67381L23.4255 5.01896C24.1916 4.25278 24.1917 3.01261 23.4255 2.24635Z" fill="#F3427F"/>
<path d="M6.33227 13.5845L5.54762 17.822C5.51521 17.9971 5.57102 18.177 5.69697 18.303C5.82307 18.4291 6.00299 18.4848 6.17791 18.4524L10.4151 17.6676L6.33227 13.5845Z" fill="#F3427F"/>
<path d="M17.5603 1.99316L6.91577 12.6385L11.3611 17.0842L22.0056 6.43885L17.5603 1.99316Z" fill="#F3427F"/>
</g>
</g>
<defs>
<clipPath id="clip0">
<rect width="24" height="24" fill="white"/>
</clipPath>
<clipPath id="clip1">
<rect width="18.4615" height="18.4615" fill="white" transform="translate(5.53845)"/>
</clipPath>
</defs>
</svg>
