<svg width="18" height="18" viewBox="0 0 18 18" fill="none" xmlns="http://www.w3.org/2000/svg">
<path d="M11.9316 9.092L17.9999 12.9283V5.09375L11.9316 9.092Z" fill="#F3427F"/>
<path d="M0 5.09375V12.9283L6.06825 9.092L0 5.09375Z" fill="#F3427F"/>
<path d="M16.8749 2.8125H1.12494C0.563566 2.8125 0.118066 3.231 0.0336914 3.76988L8.99994 9.67725L17.9662 3.76988C17.8818 3.231 17.4363 2.8125 16.8749 2.8125Z" fill="#F3427F"/>
<path d="M10.9011 9.77163L9.30926 10.8201C9.21476 10.882 9.10789 10.9124 8.99989 10.9124C8.89189 10.9124 8.78501 10.882 8.69051 10.8201L7.09864 9.77051L0.0358887 14.2379C0.122514 14.7723 0.565764 15.1874 1.12489 15.1874H16.8749C17.434 15.1874 17.8773 14.7723 17.9639 14.2379L10.9011 9.77163Z" fill="#F3427F"/>
</svg>
