<svg width="36" height="23" viewBox="0 0 36 23" fill="none" xmlns="http://www.w3.org/2000/svg">
<path d="M1.09579 10.998C0.551143 10.998 0.109619 11.4394 0.109619 11.9841C0.109619 12.5288 0.551143 12.9703 1.09579 12.9703V10.998ZM29.5851 13.0799L28.8878 13.7772L29.1767 14.066H29.5851V13.0799ZM34.516 14.066C35.0607 14.066 35.5022 13.6246 35.5022 13.0799C35.5022 12.5352 35.0607 12.0937 34.516 12.0937V14.066ZM1.09579 12.9703H7.67026V10.998H1.09579V12.9703ZM7.67026 12.9703C7.42964 12.9703 7.27658 12.872 7.24754 12.853C7.20519 12.8254 7.19457 12.8098 7.21776 12.8339C7.26309 12.8808 7.34236 12.9787 7.45627 13.1436C7.68003 13.4678 7.94582 13.9147 8.23007 14.4001C8.50354 14.867 8.79665 15.3739 9.04778 15.7589C9.17173 15.9489 9.30761 16.1439 9.44355 16.3006C9.51007 16.3773 9.60259 16.4754 9.71687 16.562C9.80274 16.6271 10.0521 16.8054 10.4096 16.8054V14.8331C10.7124 14.8331 10.8966 14.9814 10.9084 14.9903C10.9486 15.0208 10.9579 15.0364 10.9335 15.0083C10.8876 14.9552 10.8103 14.8507 10.6997 14.6812C10.4817 14.347 10.2201 13.8951 9.93198 13.4032C9.65467 12.9299 9.35204 12.418 9.0793 12.023C8.94495 11.8284 8.79394 11.6268 8.63681 11.464C8.55877 11.3831 8.45388 11.2851 8.32544 11.2013C8.21032 11.1262 7.97936 10.998 7.67026 10.998V12.9703ZM10.4096 16.8054C10.707 16.8054 10.9221 16.6807 11.0231 16.6118C11.1346 16.5357 11.2177 16.4511 11.2718 16.3909C11.3807 16.2691 11.4747 16.1281 11.5503 16.0046C11.7067 15.7492 11.8787 15.4115 12.0533 15.0448C12.406 14.3041 12.8255 13.3249 13.2336 12.3726C13.6473 11.4073 14.0496 10.469 14.3818 9.7715C14.5496 9.4192 14.6857 9.1576 14.7861 8.9935C14.8389 8.9074 14.8605 8.8836 14.8521 8.8929C14.8485 8.8971 14.8119 8.9386 14.743 8.9856C14.6844 9.0255 14.5078 9.1352 14.2447 9.1352V7.1628C13.9473 7.1628 13.7322 7.2875 13.6312 7.3565C13.5198 7.4325 13.4366 7.5171 13.3826 7.5774C13.2737 7.6991 13.1797 7.8401 13.1041 7.9636C12.9477 8.219 12.7757 8.5567 12.601 8.9235C12.2484 9.6641 11.8288 10.6434 11.4208 11.5957C11.007 12.5609 10.6047 13.4992 10.2726 14.1968C10.1048 14.549 9.96865 14.8106 9.86818 14.9747C9.81544 15.0609 9.79386 15.0846 9.8022 15.0753C9.80589 15.0712 9.84248 15.0296 9.9114 14.9826C9.9699 14.9427 10.1465 14.8331 10.4096 14.8331V16.8054ZM14.2447 9.1352C14.0046 9.1352 13.83 9.0462 13.7409 8.9892C13.6504 8.9313 13.5939 8.8721 13.5696 8.845C13.5222 8.7921 13.5061 8.7579 13.5192 8.781C13.5406 8.819 13.5849 8.9113 13.6519 9.0793C13.7819 9.4052 13.9488 9.8916 14.1442 10.5037C14.5333 11.7217 15.0088 13.3516 15.4895 14.9996C15.9676 16.6388 16.4509 18.2962 16.8494 19.5436C17.0476 20.1642 17.2317 20.705 17.3885 21.0983C17.4649 21.2897 17.548 21.48 17.6352 21.6347C17.6764 21.7078 17.7421 21.8158 17.8342 21.9185C17.8767 21.9659 18.152 22.2841 18.6277 22.2841V20.3118C18.8678 20.3118 19.0424 20.4008 19.1315 20.4577C19.222 20.5157 19.2786 20.5749 19.3028 20.6019C19.3502 20.6549 19.3663 20.689 19.3532 20.6659C19.3318 20.628 19.2876 20.5356 19.2205 20.3677C19.0905 20.0418 18.9237 19.5554 18.7282 18.9433C18.3391 17.7253 17.8636 16.0954 17.3829 14.4474C16.9049 12.8081 16.4215 11.1508 16.023 9.9034C15.8248 9.2828 15.6407 8.7419 15.4839 8.3487C15.4075 8.1572 15.3245 7.967 15.2372 7.8123C15.196 7.7392 15.1303 7.6312 15.0383 7.5285C14.9957 7.4811 14.7204 7.1628 14.2447 7.1628V9.1352ZM18.6277 22.2841C19.0143 22.2841 19.2599 22.0721 19.3474 21.9859C19.4484 21.8861 19.5107 21.7849 19.5421 21.7297C19.6084 21.6135 19.655 21.4908 19.6864 21.4007C19.7536 21.2077 19.8205 20.9565 19.8867 20.6789C20.0212 20.114 20.1789 19.3232 20.3508 18.3958C20.6952 16.536 21.1076 14.0606 21.5181 11.5984C21.9294 9.1297 22.3388 6.6743 22.6792 4.8359C22.8498 3.9143 23.0002 3.16423 23.1226 2.65046C23.1848 2.38879 23.2334 2.21622 23.2669 2.1203C23.2857 2.06597 23.2856 2.07787 23.2619 2.11942C23.2517 2.13731 23.2098 2.21033 23.1279 2.29103C23.0598 2.35831 22.8322 2.56072 22.4628 2.56072V0.588379C22.0762 0.588379 21.8306 0.800409 21.7431 0.886649C21.6421 0.986309 21.5799 1.08763 21.5484 1.14285C21.4821 1.25903 21.4355 1.38168 21.4041 1.47181C21.3369 1.66481 21.27 1.91598 21.2038 2.19362C21.0693 2.75847 20.9116 3.54929 20.7397 4.47676C20.3954 6.3365 19.9829 8.8119 19.5725 11.2741C19.1611 13.7428 18.7517 16.1982 18.4113 18.0366C18.2407 18.9582 18.0903 19.7082 17.968 20.222C17.9057 20.4837 17.8571 20.6563 17.8236 20.7522C17.8048 20.8065 17.8049 20.7947 17.8286 20.753C17.8388 20.7352 17.8807 20.6622 17.9626 20.5814C18.0307 20.5142 18.2583 20.3118 18.6277 20.3118V22.2841ZM22.4628 2.56072C22.1015 2.56072 21.8725 2.36756 21.7866 2.28036C21.6964 2.1889 21.6517 2.10424 21.6392 2.07996C21.6114 2.02596 21.6089 2.00231 21.6225 2.05086C21.6457 2.13336 21.6791 2.28996 21.72 2.53642C21.8 3.01855 21.8897 3.72437 21.9879 4.5956C22.1842 6.3361 22.4052 8.649 22.646 10.9894C22.8857 13.3168 23.1446 15.667 23.4139 17.4398C23.5478 18.3208 23.6891 19.0923 23.8395 19.656C23.9127 19.9304 24.0013 20.2076 24.1152 20.4347C24.1706 20.5455 24.2581 20.6979 24.392 20.8358C24.5227 20.9704 24.796 21.1884 25.2022 21.1884V19.216C25.5399 19.216 25.7447 19.3976 25.8069 19.4617C25.8724 19.5292 25.8914 19.577 25.8786 19.5513C25.8557 19.5055 25.8079 19.3826 25.7452 19.1476C25.6238 18.6926 25.4954 18.0087 25.3639 17.1434C25.1026 15.4236 24.8478 13.1169 24.6081 10.7874C24.3695 8.4708 24.1454 6.1268 23.9479 4.37464C23.8491 3.49953 23.7548 2.75005 23.6657 2.21349C23.6221 1.95061 23.5747 1.707 23.5211 1.51664C23.4964 1.42875 23.4564 1.3005 23.3922 1.17602C23.3615 1.11648 23.299 1.0051 23.1912 0.895739C23.0876 0.790629 22.8412 0.588379 22.4628 0.588379V2.56072ZM25.2022 21.1884C25.5537 21.1884 25.8264 21.0391 25.9899 20.9252C26.1624 20.805 26.3087 20.6571 26.4279 20.5195C26.667 20.2436 26.9016 19.8861 27.1215 19.5136C27.5655 18.7615 28.0451 17.7827 28.4876 16.8634C28.9413 15.9212 29.3534 15.0477 29.6886 14.4346C29.8613 14.1186 29.9802 13.9352 30.0459 13.8553C30.0904 13.8013 30.0444 13.8764 29.9107 13.9455C29.8327 13.9859 29.6718 14.0515 29.4556 14.0357C29.2165 14.0182 29.0201 13.9095 28.8878 13.7772L30.2825 12.3825C30.116 12.2161 29.8809 12.0891 29.5993 12.0685C29.3406 12.0496 29.1332 12.1271 29.0046 12.1936C28.7701 12.3149 28.6081 12.4987 28.523 12.6019C28.3299 12.8366 28.1362 13.1625 27.958 13.4886C27.5911 14.1596 27.1472 15.1009 26.7106 16.0078C26.2629 16.9375 25.8179 17.842 25.423 18.5109C25.2234 18.8491 25.0599 19.0864 24.9374 19.2279C24.8757 19.299 24.8503 19.3153 24.8619 19.3072C24.8647 19.3053 24.9876 19.216 25.2022 19.216V21.1884ZM29.5851 14.066C29.5862 14.066 29.5873 14.066 29.5884 14.066C29.5895 14.066 29.5906 14.066 29.5917 14.066C29.5928 14.066 29.5939 14.066 29.595 14.066C29.5962 14.066 29.5973 14.066 29.5985 14.066C29.5996 14.066 29.6008 14.066 29.602 14.066C29.6031 14.066 29.6043 14.066 29.6055 14.066C29.6067 14.066 29.6079 14.066 29.6091 14.066C29.6104 14.066 29.6116 14.066 29.6129 14.066C29.6141 14.066 29.6153 14.066 29.6166 14.066C29.6178 14.066 29.6191 14.066 29.6203 14.066C29.6216 14.066 29.623 14.066 29.6242 14.066C29.6255 14.066 29.6268 14.066 29.6281 14.066C29.6294 14.066 29.6307 14.066 29.632 14.066C29.6335 14.066 29.6348 14.066 29.6361 14.066C29.6375 14.066 29.6388 14.066 29.6403 14.066C29.6416 14.066 29.643 14.066 29.6444 14.066C29.6457 14.066 29.6472 14.066 29.6486 14.066C29.65 14.066 29.6514 14.066 29.6529 14.066C29.6543 14.066 29.6557 14.066 29.6572 14.066C29.6587 14.066 29.6601 14.066 29.6616 14.066C29.6631 14.066 29.6646 14.066 29.666 14.066C29.6675 14.066 29.6691 14.066 29.6705 14.066C29.672 14.066 29.6736 14.066 29.6751 14.066C29.6766 14.066 29.6782 14.066 29.6797 14.066C29.6812 14.066 29.6829 14.066 29.6844 14.066C29.686 14.066 29.6876 14.066 29.6891 14.066C29.6908 14.066 29.6923 14.066 29.694 14.066C29.6956 14.066 29.6971 14.066 29.6988 14.066C29.7004 14.066 29.7021 14.066 29.7037 14.066C29.7054 14.066 29.707 14.066 29.7086 14.066C29.7104 14.066 29.712 14.066 29.7137 14.066C29.7154 14.066 29.7171 14.066 29.7187 14.066C29.7205 14.066 29.7222 14.066 29.7239 14.066C29.7256 14.066 29.7274 14.066 29.7291 14.066C29.7309 14.066 29.7325 14.066 29.7343 14.066C29.7361 14.066 29.7379 14.066 29.7396 14.066C29.7414 14.066 29.7432 14.066 29.745 14.066C29.7468 14.066 29.7485 14.066 29.7504 14.066C29.7523 14.066 29.754 14.066 29.7559 14.066C29.7577 14.066 29.7595 14.066 29.7613 14.066C29.7632 14.066 29.7651 14.066 29.7669 14.066C29.7688 14.066 29.7707 14.066 29.7725 14.066C29.7744 14.066 29.7764 14.066 29.7782 14.066C29.7801 14.066 29.7821 14.066 29.7839 14.066C29.7859 14.066 29.7878 14.066 29.7897 14.066C29.7917 14.066 29.7937 14.066 29.7955 14.066C29.7975 14.066 29.7995 14.066 29.8014 14.066C29.8034 14.066 29.8054 14.066 29.8074 14.066C29.8093 14.066 29.8114 14.066 29.8134 14.066C29.8154 14.066 29.8174 14.066 29.8194 14.066C29.8215 14.066 29.8235 14.066 29.8256 14.066C29.8275 14.066 29.8296 14.066 29.8317 14.066C29.8338 14.066 29.8359 14.066 29.8378 14.066C29.8399 14.066 29.842 14.066 29.8442 14.066C29.8463 14.066 29.8483 14.066 29.8504 14.066C29.8525 14.066 29.8547 14.066 29.8568 14.066C29.8589 14.066 29.8611 14.066 29.8631 14.066C29.8653 14.066 29.8675 14.066 29.8696 14.066C29.8718 14.066 29.874 14.066 29.8762 14.066C29.8783 14.066 29.8805 14.066 29.8826 14.066C29.8848 14.066 29.887 14.066 29.8893 14.066C29.8915 14.066 29.8937 14.066 29.8959 14.066C29.8982 14.066 29.9004 14.066 29.9026 14.066C29.9049 14.066 29.9071 14.066 29.9094 14.066C29.9117 14.066 29.9139 14.066 29.9162 14.066C29.9185 14.066 29.9208 14.066 29.923 14.066C29.9253 14.066 29.9276 14.066 29.9299 14.066C29.9322 14.066 29.9346 14.066 29.9369 14.066C29.9392 14.066 29.9415 14.066 29.9438 14.066C29.9462 14.066 29.9485 14.066 29.9509 14.066C29.9532 14.066 29.9556 14.066 29.9579 14.066C29.9603 14.066 29.9627 14.066 29.965 14.066C29.9675 14.066 29.9699 14.066 29.9723 14.066C29.9747 14.066 29.9771 14.066 29.9795 14.066C29.9819 14.066 29.9843 14.066 29.9867 14.066C29.9892 14.066 29.9917 14.066 29.9941 14.066C29.9965 14.066 29.999 14.066 30.0014 14.066C30.0039 14.066 30.0064 14.066 30.0089 14.066C30.0113 14.066 30.0138 14.066 30.0163 14.066C30.0187 14.066 30.0213 14.066 30.0238 14.066C30.0263 14.066 30.0288 14.066 30.0313 14.066C30.0339 14.066 30.0364 14.066 30.0389 14.066C30.0414 14.066 30.044 14.066 30.0466 14.066C30.0491 14.066 30.0517 14.066 30.0542 14.066C30.0568 14.066 30.0594 14.066 30.0619 14.066C30.0645 14.066 30.0672 14.066 30.0697 14.066C30.0723 14.066 30.0749 14.066 30.0776 14.066C30.0801 14.066 30.0827 14.066 30.0854 14.066C30.088 14.066 30.0906 14.066 30.0932 14.066C30.0959 14.066 30.0986 14.066 30.1012 14.066C30.1039 14.066 30.1065 14.066 30.1092 14.066C30.1119 14.066 30.1145 14.066 30.1172 14.066C30.1199 14.066 30.1226 14.066 30.1252 14.066C30.128 14.066 30.1307 14.066 30.1333 14.066C30.1361 14.066 30.1388 14.066 30.1416 14.066C30.1443 14.066 30.147 14.066 30.1498 14.066C30.1525 14.066 30.1553 14.066 30.158 14.066C30.1607 14.066 30.1635 14.066 30.1662 14.066C30.169 14.066 30.1718 14.066 30.1746 14.066C30.1774 14.066 30.1801 14.066 30.1829 14.066C30.1857 14.066 30.1885 14.066 30.1913 14.066C30.1942 14.066 30.1969 14.066 30.1998 14.066C30.2026 14.066 30.2055 14.066 30.2082 14.066C30.211 14.066 30.2139 14.066 30.2167 14.066C30.2196 14.066 30.2224 14.066 30.2253 14.066C30.2281 14.066 30.2311 14.066 30.2339 14.066C30.2368 14.066 30.2396 14.066 30.2426 14.066C30.2454 14.066 30.2483 14.066 30.2513 14.066C30.2541 14.066 30.2571 14.066 30.2599 14.066C30.2629 14.066 30.2658 14.066 30.2687 14.066C30.2716 14.066 30.2746 14.066 30.2774 14.066C30.2804 14.066 30.2834 14.066 30.2863 14.066C30.2893 14.066 30.2922 14.066 30.2952 14.066C30.2982 14.066 30.3011 14.066 30.3041 14.066C30.307 14.066 30.3101 14.066 30.3131 14.066C30.316 14.066 30.3191 14.066 30.322 14.066C30.325 14.066 30.3281 14.066 30.331 14.066C30.3341 14.066 30.337 14.066 30.3401 14.066C30.3431 14.066 30.3461 14.066 30.3492 14.066C30.3523 14.066 30.3552 14.066 30.3583 14.066C30.3614 14.066 30.3644 14.066 30.3675 14.066C30.3706 14.066 30.3736 14.066 30.3767 14.066C30.3798 14.066 30.3829 14.066 30.3859 14.066C30.389 14.066 30.3921 14.066 30.3952 14.066C30.3983 14.066 30.4014 14.066 30.4045 14.066C30.4076 14.066 30.4107 14.066 30.4139 14.066C30.4169 14.066 30.4201 14.066 30.4232 14.066C30.4264 14.066 30.4295 14.066 30.4326 14.066C30.4358 14.066 30.439 14.066 30.4421 14.066C30.4452 14.066 30.4484 14.066 30.4516 14.066C30.4547 14.066 30.4579 14.066 30.4611 14.066C30.4643 14.066 30.4674 14.066 30.4706 14.066C30.4738 14.066 30.477 14.066 30.4803 14.066C30.4834 14.066 30.4866 14.066 30.4898 14.066C30.4931 14.066 30.4963 14.066 30.4994 14.066C30.5027 14.066 30.5059 14.066 30.5092 14.066C30.5124 14.066 30.5157 14.066 30.5188 14.066C30.5221 14.066 30.5254 14.066 30.5286 14.066C30.5319 14.066 30.5352 14.066 30.5384 14.066C30.5416 14.066 30.5449 14.066 30.5482 14.066C30.5515 14.066 30.5548 14.066 30.5581 14.066C30.5613 14.066 30.5646 14.066 30.5679 14.066C30.5712 14.066 30.5745 14.066 30.5779 14.066C30.5812 14.066 30.5845 14.066 30.5878 14.066C30.5912 14.066 30.5944 14.066 30.5977 14.066C30.6011 14.066 30.6044 14.066 30.6077 14.066C30.6111 14.066 30.6144 14.066 30.6178 14.066C30.6212 14.066 30.6245 14.066 30.6279 14.066C30.6311 14.066 30.6345 14.066 30.6379 14.066C30.6413 14.066 30.6446 14.066 30.648 14.066C30.6514 14.066 30.6548 14.066 30.6582 14.066C30.6616 14.066 30.665 14.066 30.6684 14.066C30.6718 14.066 30.6752 14.066 30.6786 14.066C30.682 14.066 30.6854 14.066 30.6888 14.066C30.6923 14.066 30.6957 14.066 30.6991 14.066C30.7025 14.066 30.706 14.066 30.7094 14.066C30.7128 14.066 30.7163 14.066 30.7197 14.066C30.7232 14.066 30.7266 14.066 30.7301 14.066C30.7335 14.066 30.737 14.066 30.7404 14.066C30.7439 14.066 30.7474 14.066 30.7508 14.066C30.7543 14.066 30.7578 14.066 30.7613 14.066C30.7647 14.066 30.7682 14.066 30.7717 14.066C30.7752 14.066 30.7787 14.066 30.7823 14.066C30.7858 14.066 30.7893 14.066 30.7928 14.066C30.7963 14.066 30.7998 14.066 30.8033 14.066C30.8068 14.066 30.8103 14.066 30.8138 14.066C30.8174 14.066 30.8209 14.066 30.8244 14.066C30.8279 14.066 30.8316 14.066 30.8351 14.066C30.8386 14.066 30.8422 14.066 30.8457 14.066C30.8493 14.066 30.8528 14.066 30.8564 14.066C30.8599 14.066 30.8636 14.066 30.8671 14.066C30.8707 14.066 30.8742 14.066 30.8778 14.066C30.8814 14.066 30.8849 14.066 30.8885 14.066C30.8922 14.066 30.8958 14.066 30.8993 14.066C30.9029 14.066 30.9065 14.066 30.9101 14.066C30.9137 14.066 30.9174 14.066 30.921 14.066C30.9246 14.066 30.9282 14.066 30.9318 14.066C30.9354 14.066 30.9391 14.066 30.9427 14.066C30.9463 14.066 30.9499 14.066 30.9535 14.066C30.9571 14.066 30.9609 14.066 30.9645 14.066C30.9681 14.066 30.9717 14.066 30.9754 14.066C30.979 14.066 30.9827 14.066 30.9864 14.066C30.99 14.066 30.9936 14.066 30.9973 14.066C31.001 14.066 31.0047 14.066 31.0083 14.066C31.012 14.066 31.0156 14.066 31.0194 14.066C31.0231 14.066 31.0267 14.066 31.0304 14.066C31.0341 14.066 31.0378 14.066 31.0415 14.066C31.0451 14.066 31.0488 14.066 31.0526 14.066C31.0563 14.066 31.06 14.066 31.0636 14.066C31.0674 14.066 31.0711 14.066 31.0748 14.066C31.0785 14.066 31.0823 14.066 31.086 14.066C31.0897 14.066 31.0934 14.066 31.0972 14.066C31.1009 14.066 31.1046 14.066 31.1083 14.066C31.1121 14.066 31.1158 14.066 31.1195 14.066C31.1234 14.066 31.1271 14.066 31.1308 14.066C31.1345 14.066 31.1383 14.066 31.1421 14.066C31.1458 14.066 31.1495 14.066 31.1534 14.066C31.1571 14.066 31.1608 14.066 31.1647 14.066C31.1684 14.066 31.1721 14.066 31.176 14.066C31.1797 14.066 31.1835 14.066 31.1872 14.066C31.1911 14.066 31.1948 14.066 31.1986 14.066C31.2024 14.066 31.2062 14.066 31.21 14.066C31.2138 14.066 31.2176 14.066 31.2214 14.066C31.2251 14.066 31.229 14.066 31.2328 14.066C31.2365 14.066 31.2404 14.066 31.2442 14.066C31.2481 14.066 31.2518 14.066 31.2556 14.066C31.2594 14.066 31.2633 14.066 31.2671 14.066C31.271 14.066 31.2748 14.066 31.2786 14.066C31.2823 14.066 31.2862 14.066 31.29 14.066C31.2939 14.066 31.2977 14.066 31.3015 14.066C31.3054 14.066 31.3093 14.066 31.3131 14.066C31.317 14.066 31.3208 14.066 31.3246 14.066C31.3285 14.066 31.3323 14.066 31.3361 14.066C31.3401 14.066 31.3439 14.066 31.3478 14.066C31.3516 14.066 31.3555 14.066 31.3594 14.066C31.3632 14.066 31.3671 14.066 31.371 14.066C31.3748 14.066 31.3787 14.066 31.3826 14.066C31.3864 14.066 31.3903 14.066 31.3942 14.066C31.3981 14.066 31.402 14.066 31.4058 14.066C31.4098 14.066 31.4136 14.066 31.4176 14.066C31.4214 14.066 31.4253 14.066 31.4292 14.066C31.4331 14.066 31.437 14.066 31.4409 14.066C31.4447 14.066 31.4487 14.066 31.4526 14.066C31.4565 14.066 31.4604 14.066 31.4644 14.066C31.4682 14.066 31.4721 14.066 31.4761 14.066C31.4799 14.066 31.4839 14.066 31.4878 14.066C31.4917 14.066 31.4956 14.066 31.4995 14.066C31.5035 14.066 31.5074 14.066 31.5114 14.066C31.5152 14.066 31.5191 14.066 31.5231 14.066C31.527 14.066 31.531 14.066 31.5349 14.066C31.5389 14.066 31.5428 14.066 31.5467 14.066C31.5506 14.066 31.5545 14.066 31.5585 14.066C31.5624 14.066 31.5664 14.066 31.5703 14.066C31.5743 14.066 31.5782 14.066 31.5821 14.066C31.5861 14.066 31.5901 14.066 31.5941 14.066C31.598 14.066 31.602 14.066 31.6059 14.066C31.6099 14.066 31.6138 14.066 31.6178 14.066C31.6217 14.066 31.6258 14.066 31.6297 14.066C31.6336 14.066 31.6376 14.066 31.6415 14.066C31.6455 14.066 31.6495 14.066 31.6535 14.066C31.6574 14.066 31.6614 14.066 31.6654 14.066C31.6694 14.066 31.6733 14.066 31.6773 14.066C31.6813 14.066 31.6853 14.066 31.6892 14.066C31.6933 14.066 31.6972 14.066 31.7011 14.066C31.7052 14.066 31.7091 14.066 31.7131 14.066C31.7171 14.066 31.7211 14.066 31.7251 14.066C31.7291 14.066 31.733 14.066 31.7371 14.066C31.741 14.066 31.7451 14.066 31.749 14.066C31.7531 14.066 31.757 14.066 31.761 14.066C31.765 14.066 31.769 14.066 31.773 14.066C31.777 14.066 31.781 14.066 31.785 14.066C31.789 14.066 31.793 14.066 31.797 14.066C31.8011 14.066 31.805 14.066 31.8091 14.066C31.813 14.066 31.8171 14.066 31.821 14.066C31.8251 14.066 31.8291 14.066 31.8331 14.066C31.8371 14.066 31.8411 14.066 31.8451 14.066C31.8492 14.066 31.8531 14.066 31.8572 14.066C31.8612 14.066 31.8652 14.066 31.8692 14.066C31.8732 14.066 31.8772 14.066 31.8813 14.066C31.8853 14.066 31.8893 14.066 31.8933 14.066C31.8974 14.066 31.9013 14.066 31.9054 14.066C31.9094 14.066 31.9134 14.066 31.9174 14.066C31.9215 14.066 31.9255 14.066 31.9295 14.066C31.9335 14.066 31.9376 14.066 31.9417 14.066C31.9456 14.066 31.9497 14.066 31.9537 14.066C31.9578 14.066 31.9617 14.066 31.9658 14.066C31.9698 14.066 31.9739 14.066 31.9779 14.066C31.9819 14.066 31.9859 14.066 31.99 14.066C31.994 14.066 31.9981 14.066 32.002 14.066C32.0061 14.066 32.0101 14.066 32.0142 14.066C32.0182 14.066 32.0222 14.066 32.0262 14.066C32.0303 14.066 32.0344 14.066 32.0384 14.066C32.0425 14.066 32.0464 14.066 32.0505 14.066C32.0545 14.066 32.0586 14.066 32.0626 14.066C32.0667 14.066 32.0707 14.066 32.0747 14.066C32.0787 14.066 32.0828 14.066 32.0868 14.066C32.0909 14.066 32.095 14.066 32.099 14.066C32.1031 14.066 32.107 14.066 32.1111 14.066C32.1151 14.066 32.1192 14.066 32.1232 14.066C32.1273 14.066 32.1313 14.066 32.1354 14.066C32.1393 14.066 32.1434 14.066 32.1474 14.066C32.1515 14.066 32.1555 14.066 32.1596 14.066C32.1637 14.066 32.1677 14.066 32.1718 14.066C32.1757 14.066 32.1798 14.066 32.1838 14.066C32.1879 14.066 32.1919 14.066 32.196 14.066C32.2 14.066 32.2041 14.066 32.2081 14.066C32.2121 14.066 32.2161 14.066 32.2202 14.066C32.2243 14.066 32.2283 14.066 32.2324 14.066C32.2364 14.066 32.2405 14.066 32.2445 14.066C32.2485 14.066 32.2525 14.066 32.2566 14.066C32.2606 14.066 32.2647 14.066 32.2687 14.066C32.2728 14.066 32.2768 14.066 32.2809 14.066C32.2848 14.066 32.2889 14.066 32.293 14.066C32.297 14.066 32.3011 14.066 32.3051 14.066C32.3092 14.066 32.3131 14.066 32.3172 14.066C32.3212 14.066 32.3253 14.066 32.3293 14.066C32.3334 14.066 32.3374 14.066 32.3414 14.066C32.3454 14.066 32.3495 14.066 32.3535 14.066C32.3576 14.066 32.3617 14.066 32.3656 14.066C32.3697 14.066 32.3737 14.066 32.3778 14.066C32.3818 14.066 32.3858 14.066 32.3898 14.066C32.3939 14.066 32.3979 14.066 32.402 14.066C32.4059 14.066 32.41 14.066 32.414 14.066C32.4181 14.066 32.4221 14.066 32.4261 14.066C32.4301 14.066 32.4342 14.066 32.4382 14.066C32.4422 14.066 32.4462 14.066 32.4503 14.066C32.4544 14.066 32.4583 14.066 32.4624 14.066C32.4664 14.066 32.4704 14.066 32.4744 14.066C32.4785 14.066 32.4825 14.066 32.4865 14.066C32.4905 14.066 32.4946 14.066 32.4985 14.066C32.5026 14.066 32.5066 14.066 32.5106 14.066C32.5146 14.066 32.5187 14.066 32.5226 14.066C32.5267 14.066 32.5306 14.066 32.5347 14.066C32.5387 14.066 32.5427 14.066 32.5467 14.066C32.5507 14.066 32.5547 14.066 32.5588 14.066C32.5627 14.066 32.5668 14.066 32.5707 14.066C32.5748 14.066 32.5787 14.066 32.5828 14.066C32.5868 14.066 32.5908 14.066 32.5948 14.066C32.5988 14.066 32.6028 14.066 32.6068 14.066C32.6108 14.066 32.6148 14.066 32.6188 14.066C32.6228 14.066 32.6267 14.066 32.6308 14.066C32.6347 14.066 32.6388 14.066 32.6427 14.066C32.6468 14.066 32.6507 14.066 32.6547 14.066C32.6587 14.066 32.6627 14.066 32.6667 14.066C32.6707 14.066 32.6746 14.066 32.6787 14.066C32.6826 14.066 32.6865 14.066 32.6906 14.066C32.6945 14.066 32.6985 14.066 32.7025 14.066C32.7065 14.066 32.7104 14.066 32.7144 14.066C32.7184 14.066 32.7224 14.066 32.7263 14.066C32.7303 14.066 32.7342 14.066 32.7383 14.066C32.7422 14.066 32.7462 14.066 32.7501 14.066C32.754 14.066 32.7581 14.066 32.762 14.066C32.766 14.066 32.7699 14.066 32.7739 14.066C32.7778 14.066 32.7818 14.066 32.7857 14.066C32.7897 14.066 32.7936 14.066 32.7975 14.066C32.8015 14.066 32.8055 14.066 32.8095 14.066C32.8134 14.066 32.8173 14.066 32.8212 14.066C32.8252 14.066 32.8291 14.066 32.833 14.066C32.837 14.066 32.8409 14.066 32.8449 14.066C32.8488 14.066 32.8528 14.066 32.8567 14.066C32.8607 14.066 32.8645 14.066 32.8684 14.066C32.8724 14.066 32.8763 14.066 32.8803 14.066C32.8841 14.066 32.8881 14.066 32.892 14.066C32.8959 14.066 32.8998 14.066 32.9037 14.066C32.9077 14.066 32.9115 14.066 32.9154 14.066C32.9194 14.066 32.9232 14.066 32.9272 14.066C32.9311 14.066 32.9349 14.066 32.9389 14.066C32.9427 14.066 32.9467 14.066 32.9506 14.066C32.9545 14.066 32.9584 14.066 32.9622 14.066C32.9662 14.066 32.97 14.066 32.9739 14.066C32.9778 14.066 32.9816 14.066 32.9856 14.066C32.9894 14.066 32.9934 14.066 32.9972 14.066C33.001 14.066 33.005 14.066 33.0088 14.066C33.0126 14.066 33.0166 14.066 33.0204 14.066C33.0243 14.066 33.0281 14.066 33.032 14.066C33.0359 14.066 33.0397 14.066 33.0435 14.066C33.0474 14.066 33.0512 14.066 33.0552 14.066C33.059 14.066 33.0628 14.066 33.0667 14.066C33.0705 14.066 33.0743 14.066 33.0782 14.066C33.082 14.066 33.0858 14.066 33.0897 14.066C33.0935 14.066 33.0973 14.066 33.1012 14.066C33.105 14.066 33.1088 14.066 33.1127 14.066C33.1165 14.066 33.1202 14.066 33.1241 14.066C33.1279 14.066 33.1317 14.066 33.1356 14.066C33.1393 14.066 33.1431 14.066 33.147 14.066C33.1508 14.066 33.1545 14.066 33.1584 14.066C33.1622 14.066 33.1659 14.066 33.1698 14.066C33.1735 14.066 33.1773 14.066 33.1812 14.066C33.1849 14.066 33.1887 14.066 33.1925 14.066C33.1963 14.066 33.2 14.066 33.2038 14.066C33.2076 14.066 33.2113 14.066 33.2151 14.066C33.2189 14.066 33.2226 14.066 33.2264 14.066C33.2301 14.066 33.2339 14.066 33.2377 14.066C33.2414 14.066 33.2452 14.066 33.2489 14.066C33.2527 14.066 33.2564 14.066 33.2602 14.066C33.2639 14.066 33.2676 14.066 33.2713 14.066C33.2751 14.066 33.2788 14.066 33.2825 14.066C33.2862 14.066 33.29 14.066 33.2937 14.066C33.2974 14.066 33.3011 14.066 33.3049 14.066C33.3086 14.066 33.3123 14.066 33.316 14.066C33.3198 14.066 33.3234 14.066 33.3271 14.066C33.3308 14.066 33.3346 14.066 33.3382 14.066C33.3419 14.066 33.3456 14.066 33.3493 14.066C33.353 14.066 33.3567 14.066 33.3603 14.066C33.364 14.066 33.3677 14.066 33.3714 14.066C33.375 14.066 33.3787 14.066 33.3823 14.066C33.3861 14.066 33.3897 14.066 33.3933 14.066C33.397 14.066 33.4006 14.066 33.4043 14.066C33.408 14.066 33.4116 14.066 33.4152 14.066C33.4188 14.066 33.4226 14.066 33.4262 14.066C33.4298 14.066 33.4334 14.066 33.437 14.066C33.4406 14.066 33.4443 14.066 33.4479 14.066C33.4515 14.066 33.4551 14.066 33.4587 14.066C33.4623 14.066 33.4659 14.066 33.4696 14.066C33.4732 14.066 33.4768 14.066 33.4803 14.066C33.4839 14.066 33.4875 14.066 33.4911 14.066C33.4947 14.066 33.4983 14.066 33.5019 14.066C33.5054 14.066 33.509 14.066 33.5125 14.066C33.5161 14.066 33.5197 14.066 33.5233 14.066C33.5269 14.066 33.5304 14.066 33.5339 14.066C33.5375 14.066 33.541 14.066 33.5446 14.066C33.5481 14.066 33.5516 14.066 33.5551 14.066C33.5588 14.066 33.5623 14.066 33.5658 14.066C33.5693 14.066 33.5728 14.066 33.5764 14.066C33.5799 14.066 33.5834 14.066 33.5869 14.066C33.5904 14.066 33.5939 14.066 33.5974 14.066C33.6009 14.066 33.6045 14.066 33.6078 14.066C33.6114 14.066 33.6149 14.066 33.6184 14.066C33.6219 14.066 33.6253 14.066 33.6288 14.066C33.6323 14.066 33.6357 14.066 33.6392 14.066C33.6427 14.066 33.6461 14.066 33.6496 14.066C33.653 14.066 33.6565 14.066 33.6599 14.066C33.6634 14.066 33.6668 14.066 33.6702 14.066C33.6737 14.066 33.6771 14.066 33.6805 14.066C33.6839 14.066 33.6874 14.066 33.6908 14.066C33.6942 14.066 33.6976 14.066 33.701 14.066C33.7044 14.066 33.7078 14.066 33.7112 14.066C33.7146 14.066 33.718 14.066 33.7214 14.066C33.7248 14.066 33.7282 14.066 33.7316 14.066C33.735 14.066 33.7382 14.066 33.7416 14.066C33.745 14.066 33.7484 14.066 33.7517 14.066C33.7551 14.066 33.7584 14.066 33.7618 14.066C33.7652 14.066 33.7685 14.066 33.7719 14.066C33.7752 14.066 33.7785 14.066 33.7818 14.066C33.7851 14.066 33.7884 14.066 33.7918 14.066C33.7951 14.066 33.7984 14.066 33.8017 14.066C33.8051 14.066 33.8084 14.066 33.8117 14.066C33.8149 14.066 33.8182 14.066 33.8215 14.066C33.8248 14.066 33.8281 14.066 33.8314 14.066C33.8347 14.066 33.8378 14.066 33.8411 14.066C33.8444 14.066 33.8477 14.066 33.8509 14.066C33.8542 14.066 33.8575 14.066 33.8606 14.066C33.8639 14.066 33.8671 14.066 33.8704 14.066C33.8736 14.066 33.8769 14.066 33.88 14.066C33.8833 14.066 33.8865 14.066 33.8897 14.066C33.893 14.066 33.8961 14.066 33.8993 14.066C33.9025 14.066 33.9057 14.066 33.9088 14.066C33.9121 14.066 33.9153 14.066 33.9185 14.066C33.9217 14.066 33.9247 14.066 33.9279 14.066C33.9311 14.066 33.9343 14.066 33.9374 14.066C33.9406 14.066 33.9437 14.066 33.9469 14.066C33.95 14.066 33.9531 14.066 33.9563 14.066C33.9594 14.066 33.9625 14.066 33.9656 14.066C33.9688 14.066 33.9719 14.066 33.975 14.066C33.9781 14.066 33.9812 14.066 33.9843 14.066C33.9874 14.066 33.9905 14.066 33.9935 14.066C33.9966 14.066 33.9997 14.066 34.0028 14.066C34.0058 14.066 34.0089 14.066 34.012 14.066C34.015 14.066 34.0181 14.066 34.0212 14.066C34.0242 14.066 34.0273 14.066 34.0303 14.066C34.0333 14.066 34.0364 14.066 34.0394 14.066C34.0424 14.066 34.0454 14.066 34.0484 14.066C34.0514 14.066 34.0545 14.066 34.0574 14.066C34.0604 14.066 34.0635 14.066 34.0664 14.066C34.0694 14.066 34.0723 14.066 34.0754 14.066C34.0784 14.066 34.0813 14.066 34.0843 14.066C34.0872 14.066 34.0902 14.066 34.0932 14.066C34.0961 14.066 34.0991 14.066 34.1019 14.066C34.1049 14.066 34.1078 14.066 34.1108 14.066C34.1136 14.066 34.1166 14.066 34.1194 14.066C34.1224 14.066 34.1253 14.066 34.1282 14.066C34.1311 14.066 34.134 14.066 34.1369 14.066C34.1397 14.066 34.1427 14.066 34.1455 14.066C34.1484 14.066 34.1512 14.066 34.1541 14.066C34.1569 14.066 34.1598 14.066 34.1626 14.066C34.1655 14.066 34.1683 14.066 34.1712 14.066C34.174 14.066 34.1769 14.066 34.1796 14.066C34.1825 14.066 34.1853 14.066 34.188 14.066C34.1909 14.066 34.1936 14.066 34.1965 14.066C34.1992 14.066 34.2021 14.066 34.2048 14.066C34.2077 14.066 34.2104 14.066 34.2131 14.066C34.2159 14.066 34.2186 14.066 34.2214 14.066C34.2242 14.066 34.2269 14.066 34.2297 14.066C34.2324 14.066 34.2351 14.066 34.2378 14.066C34.2405 14.066 34.2433 14.066 34.246 14.066C34.2486 14.066 34.2514 14.066 34.2541 14.066C34.2567 14.066 34.2595 14.066 34.2621 14.066C34.2649 14.066 34.2675 14.066 34.2701 14.066C34.2729 14.066 34.2755 14.066 34.2781 14.066C34.2807 14.066 34.2835 14.066 34.2861 14.066C34.2887 14.066 34.2914 14.066 34.294 14.066C34.2966 14.066 34.2992 14.066 34.3018 14.066C34.3044 14.066 34.307 14.066 34.3096 14.066C34.3122 14.066 34.3148 14.066 34.3173 14.066C34.32 14.066 34.3225 14.066 34.3251 14.066C34.3276 14.066 34.3302 14.066 34.3328 14.066C34.3353 14.066 34.3378 14.066 34.3404 14.066C34.3429 14.066 34.3455 14.066 34.348 14.066C34.3505 14.066 34.353 14.066 34.3555 14.066C34.358 14.066 34.3605 14.066 34.363 14.066C34.3654 14.066 34.368 14.066 34.3705 14.066C34.3729 14.066 34.3754 14.066 34.3778 14.066C34.3803 14.066 34.3828 14.066 34.3852 14.066C34.3877 14.066 34.3901 14.066 34.3925 14.066C34.3949 14.066 34.3973 14.066 34.3997 14.066C34.4022 14.066 34.4046 14.066 34.407 14.066C34.4094 14.066 34.4118 14.066 34.4142 14.066C34.4165 14.066 34.4189 14.066 34.4213 14.066C34.4236 14.066 34.426 14.066 34.4283 14.066C34.4308 14.066 34.4331 14.066 34.4354 14.066C34.4378 14.066 34.4401 14.066 34.4424 14.066C34.4447 14.066 34.447 14.066 34.4494 14.066C34.4517 14.066 34.4539 14.066 34.4562 14.066C34.4585 14.066 34.4608 14.066 34.4631 14.066C34.4654 14.066 34.4676 14.066 34.4699 14.066C34.4721 14.066 34.4744 14.066 34.4766 14.066C34.4789 14.066 34.481 14.066 34.4832 14.066C34.4855 14.066 34.4877 14.066 34.4899 14.066C34.4921 14.066 34.4943 14.066 34.4965 14.066C34.4987 14.066 34.5009 14.066 34.5031 14.066C34.5053 14.066 34.5073 14.066 34.5095 14.066C34.5117 14.066 34.5138 14.066 34.516 14.066V12.0937C34.5138 12.0937 34.5117 12.0937 34.5095 12.0937C34.5073 12.0937 34.5053 12.0937 34.5031 12.0937C34.5009 12.0937 34.4987 12.0937 34.4965 12.0937C34.4943 12.0937 34.4921 12.0937 34.4899 12.0937C34.4877 12.0937 34.4855 12.0937 34.4832 12.0937C34.481 12.0937 34.4789 12.0937 34.4766 12.0937C34.4744 12.0937 34.4721 12.0937 34.4699 12.0937C34.4676 12.0937 34.4654 12.0937 34.4631 12.0937C34.4608 12.0937 34.4585 12.0937 34.4562 12.0937C34.4539 12.0937 34.4517 12.0937 34.4494 12.0937C34.447 12.0937 34.4447 12.0937 34.4424 12.0937C34.4401 12.0937 34.4378 12.0937 34.4354 12.0937C34.4331 12.0937 34.4308 12.0937 34.4283 12.0937C34.426 12.0937 34.4236 12.0937 34.4213 12.0937C34.4189 12.0937 34.4165 12.0937 34.4142 12.0937C34.4118 12.0937 34.4094 12.0937 34.407 12.0937C34.4046 12.0937 34.4022 12.0937 34.3997 12.0937C34.3973 12.0937 34.3949 12.0937 34.3925 12.0937C34.3901 12.0937 34.3877 12.0937 34.3852 12.0937C34.3828 12.0937 34.3803 12.0937 34.3778 12.0937C34.3754 12.0937 34.3729 12.0937 34.3705 12.0937C34.368 12.0937 34.3654 12.0937 34.363 12.0937C34.3605 12.0937 34.358 12.0937 34.3555 12.0937C34.353 12.0937 34.3505 12.0937 34.348 12.0937C34.3455 12.0937 34.3429 12.0937 34.3404 12.0937C34.3378 12.0937 34.3353 12.0937 34.3328 12.0937C34.3302 12.0937 34.3276 12.0937 34.3251 12.0937C34.3225 12.0937 34.32 12.0937 34.3173 12.0937C34.3148 12.0937 34.3122 12.0937 34.3096 12.0937C34.307 12.0937 34.3044 12.0937 34.3018 12.0937C34.2992 12.0937 34.2966 12.0937 34.294 12.0937C34.2914 12.0937 34.2887 12.0937 34.2861 12.0937C34.2835 12.0937 34.2807 12.0937 34.2781 12.0937C34.2755 12.0937 34.2729 12.0937 34.2701 12.0937C34.2675 12.0937 34.2649 12.0937 34.2621 12.0937C34.2595 12.0937 34.2567 12.0937 34.2541 12.0937C34.2514 12.0937 34.2486 12.0937 34.246 12.0937C34.2433 12.0937 34.2405 12.0937 34.2378 12.0937C34.2351 12.0937 34.2324 12.0937 34.2297 12.0937C34.2269 12.0937 34.2242 12.0937 34.2214 12.0937C34.2186 12.0937 34.2159 12.0937 34.2131 12.0937C34.2104 12.0937 34.2077 12.0937 34.2048 12.0937C34.2021 12.0937 34.1992 12.0937 34.1965 12.0937C34.1936 12.0937 34.1909 12.0937 34.188 12.0937C34.1853 12.0937 34.1825 12.0937 34.1796 12.0937C34.1769 12.0937 34.174 12.0937 34.1712 12.0937C34.1683 12.0937 34.1655 12.0937 34.1626 12.0937C34.1598 12.0937 34.1569 12.0937 34.1541 12.0937C34.1512 12.0937 34.1484 12.0937 34.1455 12.0937C34.1427 12.0937 34.1397 12.0937 34.1369 12.0937C34.134 12.0937 34.1311 12.0937 34.1282 12.0937C34.1253 12.0937 34.1224 12.0937 34.1194 12.0937C34.1166 12.0937 34.1136 12.0937 34.1108 12.0937C34.1078 12.0937 34.1049 12.0937 34.1019 12.0937C34.0991 12.0937 34.0961 12.0937 34.0932 12.0937C34.0902 12.0937 34.0872 12.0937 34.0843 12.0937C34.0813 12.0937 34.0784 12.0937 34.0754 12.0937C34.0723 12.0937 34.0694 12.0937 34.0664 12.0937C34.0635 12.0937 34.0604 12.0937 34.0574 12.0937C34.0545 12.0937 34.0514 12.0937 34.0484 12.0937C34.0454 12.0937 34.0424 12.0937 34.0394 12.0937C34.0364 12.0937 34.0333 12.0937 34.0303 12.0937C34.0273 12.0937 34.0242 12.0937 34.0212 12.0937C34.0181 12.0937 34.015 12.0937 34.012 12.0937C34.0089 12.0937 34.0058 12.0937 34.0028 12.0937C33.9997 12.0937 33.9966 12.0937 33.9935 12.0937C33.9905 12.0937 33.9874 12.0937 33.9843 12.0937C33.9812 12.0937 33.9781 12.0937 33.975 12.0937C33.9719 12.0937 33.9688 12.0937 33.9656 12.0937C33.9625 12.0937 33.9594 12.0937 33.9563 12.0937C33.9531 12.0937 33.95 12.0937 33.9469 12.0937C33.9437 12.0937 33.9406 12.0937 33.9374 12.0937C33.9343 12.0937 33.9311 12.0937 33.9279 12.0937C33.9247 12.0937 33.9217 12.0937 33.9185 12.0937C33.9153 12.0937 33.9121 12.0937 33.9088 12.0937C33.9057 12.0937 33.9025 12.0937 33.8993 12.0937C33.8961 12.0937 33.893 12.0937 33.8897 12.0937C33.8865 12.0937 33.8833 12.0937 33.88 12.0937C33.8769 12.0937 33.8736 12.0937 33.8704 12.0937C33.8671 12.0937 33.8639 12.0937 33.8606 12.0937C33.8575 12.0937 33.8542 12.0937 33.8509 12.0937C33.8477 12.0937 33.8444 12.0937 33.8411 12.0937C33.8378 12.0937 33.8347 12.0937 33.8314 12.0937C33.8281 12.0937 33.8248 12.0937 33.8215 12.0937C33.8182 12.0937 33.8149 12.0937 33.8117 12.0937C33.8084 12.0937 33.8051 12.0937 33.8017 12.0937C33.7984 12.0937 33.7951 12.0937 33.7918 12.0937C33.7884 12.0937 33.7851 12.0937 33.7818 12.0937C33.7785 12.0937 33.7752 12.0937 33.7719 12.0937C33.7685 12.0937 33.7652 12.0937 33.7618 12.0937C33.7584 12.0937 33.7551 12.0937 33.7517 12.0937C33.7484 12.0937 33.745 12.0937 33.7416 12.0937C33.7382 12.0937 33.735 12.0937 33.7316 12.0937C33.7282 12.0937 33.7248 12.0937 33.7214 12.0937C33.718 12.0937 33.7146 12.0937 33.7112 12.0937C33.7078 12.0937 33.7044 12.0937 33.701 12.0937C33.6976 12.0937 33.6942 12.0937 33.6908 12.0937C33.6874 12.0937 33.6839 12.0937 33.6805 12.0937C33.6771 12.0937 33.6737 12.0937 33.6702 12.0937C33.6668 12.0937 33.6634 12.0937 33.6599 12.0937C33.6565 12.0937 33.653 12.0937 33.6496 12.0937C33.6461 12.0937 33.6427 12.0937 33.6392 12.0937C33.6357 12.0937 33.6323 12.0937 33.6288 12.0937C33.6253 12.0937 33.6219 12.0937 33.6184 12.0937C33.6149 12.0937 33.6114 12.0937 33.6078 12.0937C33.6045 12.0937 33.6009 12.0937 33.5974 12.0937C33.5939 12.0937 33.5904 12.0937 33.5869 12.0937C33.5834 12.0937 33.5799 12.0937 33.5764 12.0937C33.5728 12.0937 33.5693 12.0937 33.5658 12.0937C33.5623 12.0937 33.5588 12.0937 33.5551 12.0937C33.5516 12.0937 33.5481 12.0937 33.5446 12.0937C33.541 12.0937 33.5375 12.0937 33.5339 12.0937C33.5304 12.0937 33.5269 12.0937 33.5233 12.0937C33.5197 12.0937 33.5161 12.0937 33.5125 12.0937C33.509 12.0937 33.5054 12.0937 33.5019 12.0937C33.4983 12.0937 33.4947 12.0937 33.4911 12.0937C33.4875 12.0937 33.4839 12.0937 33.4803 12.0937C33.4768 12.0937 33.4732 12.0937 33.4696 12.0937C33.4659 12.0937 33.4623 12.0937 33.4587 12.0937C33.4551 12.0937 33.4515 12.0937 33.4479 12.0937C33.4443 12.0937 33.4406 12.0937 33.437 12.0937C33.4334 12.0937 33.4298 12.0937 33.4262 12.0937C33.4226 12.0937 33.4188 12.0937 33.4152 12.0937C33.4116 12.0937 33.408 12.0937 33.4043 12.0937C33.4006 12.0937 33.397 12.0937 33.3933 12.0937C33.3897 12.0937 33.3861 12.0937 33.3823 12.0937C33.3787 12.0937 33.375 12.0937 33.3714 12.0937C33.3677 12.0937 33.364 12.0937 33.3603 12.0937C33.3567 12.0937 33.353 12.0937 33.3493 12.0937C33.3456 12.0937 33.3419 12.0937 33.3382 12.0937C33.3346 12.0937 33.3308 12.0937 33.3271 12.0937C33.3234 12.0937 33.3198 12.0937 33.316 12.0937C33.3123 12.0937 33.3086 12.0937 33.3049 12.0937C33.3011 12.0937 33.2974 12.0937 33.2937 12.0937C33.29 12.0937 33.2862 12.0937 33.2825 12.0937C33.2788 12.0937 33.2751 12.0937 33.2713 12.0937C33.2676 12.0937 33.2639 12.0937 33.2602 12.0937C33.2564 12.0937 33.2527 12.0937 33.2489 12.0937C33.2452 12.0937 33.2414 12.0937 33.2377 12.0937C33.2339 12.0937 33.2301 12.0937 33.2264 12.0937C33.2226 12.0937 33.2189 12.0937 33.2151 12.0937C33.2113 12.0937 33.2076 12.0937 33.2038 12.0937C33.2 12.0937 33.1963 12.0937 33.1925 12.0937C33.1887 12.0937 33.1849 12.0937 33.1812 12.0937C33.1773 12.0937 33.1735 12.0937 33.1698 12.0937C33.1659 12.0937 33.1622 12.0937 33.1584 12.0937C33.1545 12.0937 33.1508 12.0937 33.147 12.0937C33.1431 12.0937 33.1393 12.0937 33.1356 12.0937C33.1317 12.0937 33.1279 12.0937 33.1241 12.0937C33.1202 12.0937 33.1165 12.0937 33.1127 12.0937C33.1088 12.0937 33.105 12.0937 33.1012 12.0937C33.0973 12.0937 33.0935 12.0937 33.0897 12.0937C33.0858 12.0937 33.082 12.0937 33.0782 12.0937C33.0743 12.0937 33.0705 12.0937 33.0667 12.0937C33.0628 12.0937 33.059 12.0937 33.0552 12.0937C33.0512 12.0937 33.0474 12.0937 33.0435 12.0937C33.0397 12.0937 33.0359 12.0937 33.032 12.0937C33.0281 12.0937 33.0243 12.0937 33.0204 12.0937C33.0166 12.0937 33.0126 12.0937 33.0088 12.0937C33.005 12.0937 33.001 12.0937 32.9972 12.0937C32.9934 12.0937 32.9894 12.0937 32.9856 12.0937C32.9816 12.0937 32.9778 12.0937 32.9739 12.0937C32.97 12.0937 32.9662 12.0937 32.9622 12.0937C32.9584 12.0937 32.9545 12.0937 32.9506 12.0937C32.9467 12.0937 32.9427 12.0937 32.9389 12.0937C32.9349 12.0937 32.9311 12.0937 32.9272 12.0937C32.9232 12.0937 32.9194 12.0937 32.9154 12.0937C32.9115 12.0937 32.9077 12.0937 32.9037 12.0937C32.8998 12.0937 32.8959 12.0937 32.892 12.0937C32.8881 12.0937 32.8841 12.0937 32.8803 12.0937C32.8763 12.0937 32.8724 12.0937 32.8684 12.0937C32.8645 12.0937 32.8607 12.0937 32.8567 12.0937C32.8528 12.0937 32.8488 12.0937 32.8449 12.0937C32.8409 12.0937 32.837 12.0937 32.833 12.0937C32.8291 12.0937 32.8252 12.0937 32.8212 12.0937C32.8173 12.0937 32.8134 12.0937 32.8095 12.0937C32.8055 12.0937 32.8015 12.0937 32.7975 12.0937C32.7936 12.0937 32.7897 12.0937 32.7857 12.0937C32.7818 12.0937 32.7778 12.0937 32.7739 12.0937C32.7699 12.0937 32.766 12.0937 32.762 12.0937C32.7581 12.0937 32.754 12.0937 32.7501 12.0937C32.7462 12.0937 32.7422 12.0937 32.7383 12.0937C32.7342 12.0937 32.7303 12.0937 32.7263 12.0937C32.7224 12.0937 32.7184 12.0937 32.7144 12.0937C32.7104 12.0937 32.7065 12.0937 32.7025 12.0937C32.6985 12.0937 32.6945 12.0937 32.6906 12.0937C32.6865 12.0937 32.6826 12.0937 32.6787 12.0937C32.6746 12.0937 32.6707 12.0937 32.6667 12.0937C32.6627 12.0937 32.6587 12.0937 32.6547 12.0937C32.6507 12.0937 32.6468 12.0937 32.6427 12.0937C32.6388 12.0937 32.6347 12.0937 32.6308 12.0937C32.6267 12.0937 32.6228 12.0937 32.6188 12.0937C32.6148 12.0937 32.6108 12.0937 32.6068 12.0937C32.6028 12.0937 32.5988 12.0937 32.5948 12.0937C32.5908 12.0937 32.5868 12.0937 32.5828 12.0937C32.5787 12.0937 32.5748 12.0937 32.5707 12.0937C32.5668 12.0937 32.5627 12.0937 32.5588 12.0937C32.5547 12.0937 32.5507 12.0937 32.5467 12.0937C32.5427 12.0937 32.5387 12.0937 32.5347 12.0937C32.5306 12.0937 32.5267 12.0937 32.5226 12.0937C32.5187 12.0937 32.5146 12.0937 32.5106 12.0937C32.5066 12.0937 32.5026 12.0937 32.4985 12.0937C32.4946 12.0937 32.4905 12.0937 32.4865 12.0937C32.4825 12.0937 32.4785 12.0937 32.4744 12.0937C32.4704 12.0937 32.4664 12.0937 32.4624 12.0937C32.4583 12.0937 32.4544 12.0937 32.4503 12.0937C32.4462 12.0937 32.4422 12.0937 32.4382 12.0937C32.4342 12.0937 32.4301 12.0937 32.4261 12.0937C32.4221 12.0937 32.4181 12.0937 32.414 12.0937C32.41 12.0937 32.4059 12.0937 32.402 12.0937C32.3979 12.0937 32.3939 12.0937 32.3898 12.0937C32.3858 12.0937 32.3818 12.0937 32.3778 12.0937C32.3737 12.0937 32.3697 12.0937 32.3656 12.0937C32.3617 12.0937 32.3576 12.0937 32.3535 12.0937C32.3495 12.0937 32.3454 12.0937 32.3414 12.0937C32.3374 12.0937 32.3334 12.0937 32.3293 12.0937C32.3253 12.0937 32.3212 12.0937 32.3172 12.0937C32.3131 12.0937 32.3092 12.0937 32.3051 12.0937C32.3011 12.0937 32.297 12.0937 32.293 12.0937C32.2889 12.0937 32.2848 12.0937 32.2809 12.0937C32.2768 12.0937 32.2728 12.0937 32.2687 12.0937C32.2647 12.0937 32.2606 12.0937 32.2566 12.0937C32.2525 12.0937 32.2485 12.0937 32.2445 12.0937C32.2405 12.0937 32.2364 12.0937 32.2324 12.0937C32.2283 12.0937 32.2243 12.0937 32.2202 12.0937C32.2161 12.0937 32.2121 12.0937 32.2081 12.0937C32.2041 12.0937 32.2 12.0937 32.196 12.0937C32.1919 12.0937 32.1879 12.0937 32.1838 12.0937C32.1798 12.0937 32.1757 12.0937 32.1718 12.0937C32.1677 12.0937 32.1637 12.0937 32.1596 12.0937C32.1555 12.0937 32.1515 12.0937 32.1474 12.0937C32.1434 12.0937 32.1393 12.0937 32.1354 12.0937C32.1313 12.0937 32.1273 12.0937 32.1232 12.0937C32.1192 12.0937 32.1151 12.0937 32.1111 12.0937C32.107 12.0937 32.1031 12.0937 32.099 12.0937C32.095 12.0937 32.0909 12.0937 32.0868 12.0937C32.0828 12.0937 32.0787 12.0937 32.0747 12.0937C32.0707 12.0937 32.0667 12.0937 32.0626 12.0937C32.0586 12.0937 32.0545 12.0937 32.0505 12.0937C32.0464 12.0937 32.0425 12.0937 32.0384 12.0937C32.0344 12.0937 32.0303 12.0937 32.0262 12.0937C32.0222 12.0937 32.0182 12.0937 32.0142 12.0937C32.0101 12.0937 32.0061 12.0937 32.002 12.0937C31.9981 12.0937 31.994 12.0937 31.99 12.0937C31.9859 12.0937 31.9819 12.0937 31.9779 12.0937C31.9739 12.0937 31.9698 12.0937 31.9658 12.0937C31.9617 12.0937 31.9578 12.0937 31.9537 12.0937C31.9497 12.0937 31.9456 12.0937 31.9417 12.0937C31.9376 12.0937 31.9335 12.0937 31.9295 12.0937C31.9255 12.0937 31.9215 12.0937 31.9174 12.0937C31.9134 12.0937 31.9094 12.0937 31.9054 12.0937C31.9013 12.0937 31.8974 12.0937 31.8933 12.0937C31.8893 12.0937 31.8853 12.0937 31.8813 12.0937C31.8772 12.0937 31.8732 12.0937 31.8692 12.0937C31.8652 12.0937 31.8612 12.0937 31.8572 12.0937C31.8531 12.0937 31.8492 12.0937 31.8451 12.0937C31.8411 12.0937 31.8371 12.0937 31.8331 12.0937C31.8291 12.0937 31.8251 12.0937 31.821 12.0937C31.8171 12.0937 31.813 12.0937 31.8091 12.0937C31.805 12.0937 31.8011 12.0937 31.797 12.0937C31.793 12.0937 31.789 12.0937 31.785 12.0937C31.781 12.0937 31.777 12.0937 31.773 12.0937C31.769 12.0937 31.765 12.0937 31.761 12.0937C31.757 12.0937 31.7531 12.0937 31.749 12.0937C31.7451 12.0937 31.741 12.0937 31.7371 12.0937C31.733 12.0937 31.7291 12.0937 31.7251 12.0937C31.7211 12.0937 31.7171 12.0937 31.7131 12.0937C31.7091 12.0937 31.7052 12.0937 31.7011 12.0937C31.6972 12.0937 31.6933 12.0937 31.6892 12.0937C31.6853 12.0937 31.6813 12.0937 31.6773 12.0937C31.6733 12.0937 31.6694 12.0937 31.6654 12.0937C31.6614 12.0937 31.6574 12.0937 31.6535 12.0937C31.6495 12.0937 31.6455 12.0937 31.6415 12.0937C31.6376 12.0937 31.6336 12.0937 31.6297 12.0937C31.6258 12.0937 31.6217 12.0937 31.6178 12.0937C31.6138 12.0937 31.6099 12.0937 31.6059 12.0937C31.602 12.0937 31.598 12.0937 31.5941 12.0937C31.5901 12.0937 31.5861 12.0937 31.5821 12.0937C31.5782 12.0937 31.5743 12.0937 31.5703 12.0937C31.5664 12.0937 31.5624 12.0937 31.5585 12.0937C31.5545 12.0937 31.5506 12.0937 31.5467 12.0937C31.5428 12.0937 31.5389 12.0937 31.5349 12.0937C31.531 12.0937 31.527 12.0937 31.5231 12.0937C31.5191 12.0937 31.5152 12.0937 31.5114 12.0937C31.5074 12.0937 31.5035 12.0937 31.4995 12.0937C31.4956 12.0937 31.4917 12.0937 31.4878 12.0937C31.4839 12.0937 31.4799 12.0937 31.4761 12.0937C31.4721 12.0937 31.4682 12.0937 31.4644 12.0937C31.4604 12.0937 31.4565 12.0937 31.4526 12.0937C31.4487 12.0937 31.4447 12.0937 31.4409 12.0937C31.437 12.0937 31.4331 12.0937 31.4292 12.0937C31.4253 12.0937 31.4214 12.0937 31.4176 12.0937C31.4136 12.0937 31.4098 12.0937 31.4058 12.0937C31.402 12.0937 31.3981 12.0937 31.3942 12.0937C31.3903 12.0937 31.3864 12.0937 31.3826 12.0937C31.3787 12.0937 31.3748 12.0937 31.371 12.0937C31.3671 12.0937 31.3632 12.0937 31.3594 12.0937C31.3555 12.0937 31.3516 12.0937 31.3478 12.0937C31.3439 12.0937 31.3401 12.0937 31.3361 12.0937C31.3323 12.0937 31.3285 12.0937 31.3246 12.0937C31.3208 12.0937 31.317 12.0937 31.3131 12.0937C31.3093 12.0937 31.3054 12.0937 31.3015 12.0937C31.2977 12.0937 31.2939 12.0937 31.29 12.0937C31.2862 12.0937 31.2823 12.0937 31.2786 12.0937C31.2748 12.0937 31.271 12.0937 31.2671 12.0937C31.2633 12.0937 31.2594 12.0937 31.2556 12.0937C31.2518 12.0937 31.2481 12.0937 31.2442 12.0937C31.2404 12.0937 31.2365 12.0937 31.2328 12.0937C31.229 12.0937 31.2251 12.0937 31.2214 12.0937C31.2176 12.0937 31.2138 12.0937 31.21 12.0937C31.2062 12.0937 31.2024 12.0937 31.1986 12.0937C31.1948 12.0937 31.1911 12.0937 31.1872 12.0937C31.1835 12.0937 31.1797 12.0937 31.176 12.0937C31.1721 12.0937 31.1684 12.0937 31.1647 12.0937C31.1608 12.0937 31.1571 12.0937 31.1534 12.0937C31.1495 12.0937 31.1458 12.0937 31.1421 12.0937C31.1383 12.0937 31.1345 12.0937 31.1308 12.0937C31.1271 12.0937 31.1234 12.0937 31.1195 12.0937C31.1158 12.0937 31.1121 12.0937 31.1083 12.0937C31.1046 12.0937 31.1009 12.0937 31.0972 12.0937C31.0934 12.0937 31.0897 12.0937 31.086 12.0937C31.0823 12.0937 31.0785 12.0937 31.0748 12.0937C31.0711 12.0937 31.0674 12.0937 31.0636 12.0937C31.06 12.0937 31.0563 12.0937 31.0526 12.0937C31.0488 12.0937 31.0451 12.0937 31.0415 12.0937C31.0378 12.0937 31.0341 12.0937 31.0304 12.0937C31.0267 12.0937 31.0231 12.0937 31.0194 12.0937C31.0156 12.0937 31.012 12.0937 31.0083 12.0937C31.0047 12.0937 31.001 12.0937 30.9973 12.0937C30.9936 12.0937 30.99 12.0937 30.9864 12.0937C30.9827 12.0937 30.979 12.0937 30.9754 12.0937C30.9717 12.0937 30.9681 12.0937 30.9645 12.0937C30.9609 12.0937 30.9571 12.0937 30.9535 12.0937C30.9499 12.0937 30.9463 12.0937 30.9427 12.0937C30.9391 12.0937 30.9354 12.0937 30.9318 12.0937C30.9282 12.0937 30.9246 12.0937 30.921 12.0937C30.9174 12.0937 30.9137 12.0937 30.9101 12.0937C30.9065 12.0937 30.9029 12.0937 30.8993 12.0937C30.8958 12.0937 30.8922 12.0937 30.8885 12.0937C30.8849 12.0937 30.8814 12.0937 30.8778 12.0937C30.8742 12.0937 30.8707 12.0937 30.8671 12.0937C30.8636 12.0937 30.8599 12.0937 30.8564 12.0937C30.8528 12.0937 30.8493 12.0937 30.8457 12.0937C30.8422 12.0937 30.8386 12.0937 30.8351 12.0937C30.8316 12.0937 30.8279 12.0937 30.8244 12.0937C30.8209 12.0937 30.8174 12.0937 30.8138 12.0937C30.8103 12.0937 30.8068 12.0937 30.8033 12.0937C30.7998 12.0937 30.7963 12.0937 30.7928 12.0937C30.7893 12.0937 30.7858 12.0937 30.7823 12.0937C30.7787 12.0937 30.7752 12.0937 30.7717 12.0937C30.7682 12.0937 30.7647 12.0937 30.7613 12.0937C30.7578 12.0937 30.7543 12.0937 30.7508 12.0937C30.7474 12.0937 30.7439 12.0937 30.7404 12.0937C30.737 12.0937 30.7335 12.0937 30.7301 12.0937C30.7266 12.0937 30.7232 12.0937 30.7197 12.0937C30.7163 12.0937 30.7128 12.0937 30.7094 12.0937C30.706 12.0937 30.7025 12.0937 30.6991 12.0937C30.6957 12.0937 30.6923 12.0937 30.6888 12.0937C30.6854 12.0937 30.682 12.0937 30.6786 12.0937C30.6752 12.0937 30.6718 12.0937 30.6684 12.0937C30.665 12.0937 30.6616 12.0937 30.6582 12.0937C30.6548 12.0937 30.6514 12.0937 30.648 12.0937C30.6446 12.0937 30.6413 12.0937 30.6379 12.0937C30.6345 12.0937 30.6311 12.0937 30.6279 12.0937C30.6245 12.0937 30.6212 12.0937 30.6178 12.0937C30.6144 12.0937 30.6111 12.0937 30.6077 12.0937C30.6044 12.0937 30.6011 12.0937 30.5977 12.0937C30.5944 12.0937 30.5912 12.0937 30.5878 12.0937C30.5845 12.0937 30.5812 12.0937 30.5779 12.0937C30.5745 12.0937 30.5712 12.0937 30.5679 12.0937C30.5646 12.0937 30.5613 12.0937 30.5581 12.0937C30.5548 12.0937 30.5515 12.0937 30.5482 12.0937C30.5449 12.0937 30.5416 12.0937 30.5384 12.0937C30.5352 12.0937 30.5319 12.0937 30.5286 12.0937C30.5254 12.0937 30.5221 12.0937 30.5188 12.0937C30.5157 12.0937 30.5124 12.0937 30.5092 12.0937C30.5059 12.0937 30.5027 12.0937 30.4994 12.0937C30.4963 12.0937 30.4931 12.0937 30.4898 12.0937C30.4866 12.0937 30.4834 12.0937 30.4803 12.0937C30.477 12.0937 30.4738 12.0937 30.4706 12.0937C30.4674 12.0937 30.4643 12.0937 30.4611 12.0937C30.4579 12.0937 30.4547 12.0937 30.4516 12.0937C30.4484 12.0937 30.4452 12.0937 30.4421 12.0937C30.439 12.0937 30.4358 12.0937 30.4326 12.0937C30.4295 12.0937 30.4264 12.0937 30.4232 12.0937C30.4201 12.0937 30.4169 12.0937 30.4139 12.0937C30.4107 12.0937 30.4076 12.0937 30.4045 12.0937C30.4014 12.0937 30.3983 12.0937 30.3952 12.0937C30.3921 12.0937 30.389 12.0937 30.3859 12.0937C30.3829 12.0937 30.3798 12.0937 30.3767 12.0937C30.3736 12.0937 30.3706 12.0937 30.3675 12.0937C30.3644 12.0937 30.3614 12.0937 30.3583 12.0937C30.3552 12.0937 30.3523 12.0937 30.3492 12.0937C30.3461 12.0937 30.3431 12.0937 30.3401 12.0937C30.337 12.0937 30.3341 12.0937 30.331 12.0937C30.3281 12.0937 30.325 12.0937 30.322 12.0937C30.3191 12.0937 30.316 12.0937 30.3131 12.0937C30.3101 12.0937 30.307 12.0937 30.3041 12.0937C30.3011 12.0937 30.2982 12.0937 30.2952 12.0937C30.2922 12.0937 30.2893 12.0937 30.2863 12.0937C30.2834 12.0937 30.2804 12.0937 30.2774 12.0937C30.2746 12.0937 30.2716 12.0937 30.2687 12.0937C30.2658 12.0937 30.2629 12.0937 30.2599 12.0937C30.2571 12.0937 30.2541 12.0937 30.2513 12.0937C30.2483 12.0937 30.2454 12.0937 30.2426 12.0937C30.2396 12.0937 30.2368 12.0937 30.2339 12.0937C30.2311 12.0937 30.2281 12.0937 30.2253 12.0937C30.2224 12.0937 30.2196 12.0937 30.2167 12.0937C30.2139 12.0937 30.211 12.0937 30.2082 12.0937C30.2055 12.0937 30.2026 12.0937 30.1998 12.0937C30.1969 12.0937 30.1942 12.0937 30.1913 12.0937C30.1885 12.0937 30.1857 12.0937 30.1829 12.0937C30.1801 12.0937 30.1774 12.0937 30.1746 12.0937C30.1718 12.0937 30.169 12.0937 30.1662 12.0937C30.1635 12.0937 30.1607 12.0937 30.158 12.0937C30.1553 12.0937 30.1525 12.0937 30.1498 12.0937C30.147 12.0937 30.1443 12.0937 30.1416 12.0937C30.1388 12.0937 30.1361 12.0937 30.1333 12.0937C30.1307 12.0937 30.128 12.0937 30.1252 12.0937C30.1226 12.0937 30.1199 12.0937 30.1172 12.0937C30.1145 12.0937 30.1119 12.0937 30.1092 12.0937C30.1065 12.0937 30.1039 12.0937 30.1012 12.0937C30.0986 12.0937 30.0959 12.0937 30.0932 12.0937C30.0906 12.0937 30.088 12.0937 30.0854 12.0937C30.0827 12.0937 30.0801 12.0937 30.0776 12.0937C30.0749 12.0937 30.0723 12.0937 30.0697 12.0937C30.0672 12.0937 30.0645 12.0937 30.0619 12.0937C30.0594 12.0937 30.0568 12.0937 30.0542 12.0937C30.0517 12.0937 30.0491 12.0937 30.0466 12.0937C30.044 12.0937 30.0414 12.0937 30.0389 12.0937C30.0364 12.0937 30.0339 12.0937 30.0313 12.0937C30.0288 12.0937 30.0263 12.0937 30.0238 12.0937C30.0213 12.0937 30.0187 12.0937 30.0163 12.0937C30.0138 12.0937 30.0113 12.0937 30.0089 12.0937C30.0064 12.0937 30.0039 12.0937 30.0014 12.0937C29.999 12.0937 29.9965 12.0937 29.9941 12.0937C29.9917 12.0937 29.9892 12.0937 29.9867 12.0937C29.9843 12.0937 29.9819 12.0937 29.9795 12.0937C29.9771 12.0937 29.9747 12.0937 29.9723 12.0937C29.9699 12.0937 29.9675 12.0937 29.965 12.0937C29.9627 12.0937 29.9603 12.0937 29.9579 12.0937C29.9556 12.0937 29.9532 12.0937 29.9509 12.0937C29.9485 12.0937 29.9462 12.0937 29.9438 12.0937C29.9415 12.0937 29.9392 12.0937 29.9369 12.0937C29.9346 12.0937 29.9322 12.0937 29.9299 12.0937C29.9276 12.0937 29.9253 12.0937 29.923 12.0937C29.9208 12.0937 29.9185 12.0937 29.9162 12.0937C29.9139 12.0937 29.9117 12.0937 29.9094 12.0937C29.9071 12.0937 29.9049 12.0937 29.9026 12.0937C29.9004 12.0937 29.8982 12.0937 29.8959 12.0937C29.8937 12.0937 29.8915 12.0937 29.8893 12.0937C29.887 12.0937 29.8848 12.0937 29.8826 12.0937C29.8805 12.0937 29.8783 12.0937 29.8762 12.0937C29.874 12.0937 29.8718 12.0937 29.8696 12.0937C29.8675 12.0937 29.8653 12.0937 29.8631 12.0937C29.8611 12.0937 29.8589 12.0937 29.8568 12.0937C29.8547 12.0937 29.8525 12.0937 29.8504 12.0937C29.8483 12.0937 29.8463 12.0937 29.8442 12.0937C29.842 12.0937 29.8399 12.0937 29.8378 12.0937C29.8359 12.0937 29.8338 12.0937 29.8317 12.0937C29.8296 12.0937 29.8275 12.0937 29.8256 12.0937C29.8235 12.0937 29.8215 12.0937 29.8194 12.0937C29.8174 12.0937 29.8154 12.0937 29.8134 12.0937C29.8114 12.0937 29.8093 12.0937 29.8074 12.0937C29.8054 12.0937 29.8034 12.0937 29.8014 12.0937C29.7995 12.0937 29.7975 12.0937 29.7955 12.0937C29.7937 12.0937 29.7917 12.0937 29.7897 12.0937C29.7878 12.0937 29.7859 12.0937 29.7839 12.0937C29.7821 12.0937 29.7801 12.0937 29.7782 12.0937C29.7764 12.0937 29.7744 12.0937 29.7725 12.0937C29.7707 12.0937 29.7688 12.0937 29.7669 12.0937C29.7651 12.0937 29.7632 12.0937 29.7613 12.0937C29.7595 12.0937 29.7577 12.0937 29.7559 12.0937C29.754 12.0937 29.7523 12.0937 29.7504 12.0937C29.7485 12.0937 29.7468 12.0937 29.745 12.0937C29.7432 12.0937 29.7414 12.0937 29.7396 12.0937C29.7379 12.0937 29.7361 12.0937 29.7343 12.0937C29.7325 12.0937 29.7309 12.0937 29.7291 12.0937C29.7274 12.0937 29.7256 12.0937 29.7239 12.0937C29.7222 12.0937 29.7205 12.0937 29.7187 12.0937C29.7171 12.0937 29.7154 12.0937 29.7137 12.0937C29.712 12.0937 29.7104 12.0937 29.7086 12.0937C29.707 12.0937 29.7054 12.0937 29.7037 12.0937C29.7021 12.0937 29.7004 12.0937 29.6988 12.0937C29.6971 12.0937 29.6956 12.0937 29.694 12.0937C29.6923 12.0937 29.6908 12.0937 29.6891 12.0937C29.6876 12.0937 29.686 12.0937 29.6844 12.0937C29.6829 12.0937 29.6812 12.0937 29.6797 12.0937C29.6782 12.0937 29.6766 12.0937 29.6751 12.0937C29.6736 12.0937 29.672 12.0937 29.6705 12.0937C29.6691 12.0937 29.6675 12.0937 29.666 12.0937C29.6646 12.0937 29.6631 12.0937 29.6616 12.0937C29.6601 12.0937 29.6587 12.0937 29.6572 12.0937C29.6557 12.0937 29.6543 12.0937 29.6529 12.0937C29.6514 12.0937 29.65 12.0937 29.6486 12.0937C29.6472 12.0937 29.6457 12.0937 29.6444 12.0937C29.643 12.0937 29.6416 12.0937 29.6403 12.0937C29.6388 12.0937 29.6375 12.0937 29.6361 12.0937C29.6348 12.0937 29.6335 12.0937 29.632 12.0937C29.6307 12.0937 29.6294 12.0937 29.6281 12.0937C29.6268 12.0937 29.6255 12.0937 29.6242 12.0937C29.623 12.0937 29.6216 12.0937 29.6203 12.0937C29.6191 12.0937 29.6178 12.0937 29.6166 12.0937C29.6153 12.0937 29.6141 12.0937 29.6129 12.0937C29.6116 12.0937 29.6104 12.0937 29.6091 12.0937C29.6079 12.0937 29.6067 12.0937 29.6055 12.0937C29.6043 12.0937 29.6031 12.0937 29.602 12.0937C29.6008 12.0937 29.5996 12.0937 29.5985 12.0937C29.5973 12.0937 29.5962 12.0937 29.595 12.0937C29.5939 12.0937 29.5928 12.0937 29.5917 12.0937C29.5906 12.0937 29.5895 12.0937 29.5884 12.0937C29.5873 12.0937 29.5862 12.0937 29.5851 12.0937V14.066Z" fill="#1E2C96"/>
</svg>
