<svg width="23" height="23" viewBox="0 0 23 23" fill="none" xmlns="http://www.w3.org/2000/svg">
<path d="M11.5 21.7204C11.1725 21.7204 10.8569 21.6018 10.6108 21.3863C9.6817 20.5739 8.78589 19.8104 7.99555 19.1369L7.99152 19.1334C5.67436 17.1588 3.67341 15.4535 2.28118 13.7736C0.72489 11.8957 0 10.1151 0 8.16999C0 6.28011 0.648032 4.53658 1.8246 3.26035C3.0152 1.96902 4.64888 1.25781 6.42522 1.25781C7.75287 1.25781 8.96874 1.67755 10.039 2.50527C10.5791 2.92308 11.0687 3.43442 11.5 4.03086C11.9315 3.43442 12.4209 2.92308 12.9612 2.50527C14.0314 1.67755 15.2473 1.25781 16.5749 1.25781C18.3511 1.25781 19.9849 1.96902 21.1755 3.26035C22.3521 4.53658 23 6.28011 23 8.16999C23 10.1151 22.2752 11.8957 20.7189 13.7735C19.3267 15.4535 17.3259 17.1586 15.0091 19.133C14.2174 19.8076 13.3202 20.5723 12.3889 21.3867C12.1431 21.6018 11.8272 21.7204 11.5 21.7204ZM6.42522 2.60512C5.02966 2.60512 3.74764 3.16208 2.81498 4.17352C1.86847 5.20023 1.34713 6.61948 1.34713 8.16999C1.34713 9.80595 1.95515 11.2691 3.31842 12.914C4.63607 14.504 6.59596 16.1742 8.86521 18.1081L8.86942 18.1116C9.66275 18.7877 10.5621 19.5542 11.498 20.3726C12.4397 19.5526 13.3404 18.7849 14.1353 18.1077C16.4044 16.1738 18.3641 14.504 19.6817 12.914C21.0448 11.2691 21.6528 9.80595 21.6528 8.16999C21.6528 6.61948 21.1315 5.20023 20.185 4.17352C19.2525 3.16208 17.9703 2.60512 16.5749 2.60512C15.5526 2.60512 14.614 2.9301 13.7852 3.57094C13.0466 4.14229 12.5321 4.86455 12.2305 5.36992C12.0754 5.6298 11.8023 5.78492 11.5 5.78492C11.1976 5.78492 10.9246 5.6298 10.7695 5.36992C10.468 4.86455 9.95351 4.14229 9.21476 3.57094C8.38599 2.9301 7.44737 2.60512 6.42522 2.60512Z" fill="#353535"/>
</svg>
